<svg width="45" height="45" viewBox="0 0 45 45" fill="none" xmlns="http://www.w3.org/2000/svg">
<rect width="45" height="45" rx="22.5" fill="#D3FFF0"/>
<g clip-path="url(#clip0_583_28)">
<rect width="23" height="23" transform="translate(11 11)" fill="#D3FFF0"/>
<path d="M27.0007 18.0941C27.8235 18.0941 28.6079 18.0941 29.3923 18.0941C29.4691 18.0941 29.5459 18.0239 29.6117 17.96C30.0396 17.5769 30.462 17.1874 30.8898 16.8043C30.9995 16.7085 31.0324 16.6255 30.994 16.4595C30.7691 15.4378 31.2957 14.4545 32.1514 14.2693C33.0181 14.0777 33.819 14.7674 33.9177 15.8145C33.9835 16.4722 33.7641 17.015 33.3088 17.3981C32.8261 17.8068 32.2941 17.8515 31.7565 17.5386C31.5919 17.4428 31.4932 17.4556 31.3561 17.5833C30.9172 17.9983 30.462 18.3878 30.0286 18.8029C29.8311 18.9944 29.6227 19.0647 29.3704 19.0583C28.6847 19.0455 27.999 19.0583 27.3189 19.0583C27.2256 19.0583 27.1324 19.0583 27.0172 19.0583V22.0083H28.5695C28.9699 20.9931 29.6062 20.5652 30.4071 20.7696C31.1092 20.9547 31.6029 21.6954 31.581 22.5639C31.5645 23.4067 31.0434 24.0963 30.3029 24.256C29.5679 24.4156 28.8986 23.9303 28.5805 22.9981H27.0172V25.9481C27.1927 25.9481 27.3573 25.9481 27.5273 25.9481C28.1581 25.9481 28.7944 25.9545 29.4252 25.9481C29.6446 25.9481 29.8202 26.0119 29.9902 26.1716C30.4565 26.6122 30.9337 27.0272 31.4 27.4678C31.5097 27.57 31.581 27.5763 31.7126 27.4933C32.3215 27.0911 33.0456 27.206 33.5337 27.7615C34.0219 28.317 34.1371 29.1727 33.8135 29.8751C33.4953 30.5647 32.8152 30.9414 32.1679 30.7882C31.4822 30.6222 30.9886 29.9836 30.9337 29.1663C30.9172 28.9556 30.9831 28.7321 30.9886 28.515C30.9886 28.4192 30.9611 28.2787 30.9008 28.2277C30.462 27.8126 30.0176 27.4103 29.5733 27.0081C29.5185 26.957 29.4362 26.9123 29.3704 26.9123C28.5915 26.9059 27.818 26.9123 27.0007 26.9123C27.0007 27.0527 27.0007 27.1677 27.0007 27.2826C27.0007 28.847 27.0007 30.4114 27.0007 31.9695C27.0007 32.9783 26.529 33.719 25.7555 33.9425C25.5855 33.9936 25.399 34.0064 25.2235 34.0064C21.0766 34.0064 16.9242 34.0064 12.7772 34.0064C11.6802 34.0064 11.0055 33.2146 11.0055 31.9312C11 25.6416 11 19.3584 11 13.0752C11 11.7918 11.6747 11 12.7718 11C16.9187 11 21.0711 11 25.218 11C26.3205 11 26.9952 11.7854 27.0007 13.0625C27.0007 14.6077 27.0007 16.1466 27.0007 17.6918C27.0007 17.8132 27.0007 17.9281 27.0007 18.0941ZM18.9812 25.9098C20.5829 25.9098 22.1791 25.9098 23.7808 25.9098C23.8686 25.9098 23.9509 25.9162 24.0386 25.9034C24.2416 25.8651 24.3568 25.7118 24.3787 25.4756C24.3952 25.2585 24.3129 25.0797 24.1264 25.0031C24.0277 24.9584 23.907 24.952 23.7973 24.952C20.5993 24.952 17.3959 24.952 14.1979 24.952C14.0992 24.952 13.9895 24.952 13.8963 24.9903C13.6878 25.0669 13.5946 25.2521 13.622 25.4947C13.6494 25.7246 13.7756 25.8715 13.9785 25.897C14.0608 25.9098 14.1486 25.9034 14.2363 25.9034C15.8216 25.9034 17.4014 25.9034 18.9866 25.9034L18.9812 25.9098ZM19.0196 19.7351C17.4288 19.7351 15.8381 19.7351 14.2473 19.7351C14.1596 19.7351 14.0773 19.7351 13.9895 19.7415C13.7756 19.7671 13.6439 19.9139 13.622 20.163C13.6 20.4248 13.7207 20.6036 13.9347 20.6674C14.0224 20.6929 14.1212 20.6866 14.2144 20.6866C17.4069 20.6866 20.5993 20.6866 23.7863 20.6866C23.8905 20.6866 23.9948 20.6866 24.088 20.6546C24.2855 20.5908 24.3842 20.412 24.3732 20.1821C24.3568 19.9395 24.2361 19.7798 24.0222 19.7415C23.9399 19.7288 23.8521 19.7351 23.7644 19.7351C22.1791 19.7351 20.5993 19.7351 19.0141 19.7351H19.0196ZM18.9812 23.2982C20.6158 23.2982 22.2504 23.2982 23.8796 23.2982C24.2032 23.2982 24.3897 23.1002 24.3842 22.8065C24.3787 22.5255 24.1922 22.3531 23.885 22.3404C23.8521 22.3404 23.8192 22.3404 23.7808 22.3404C20.5938 22.3404 17.4014 22.3404 14.2144 22.3404C14.1212 22.3404 14.0224 22.3404 13.9347 22.3595C13.7262 22.417 13.611 22.5766 13.6165 22.832C13.622 23.0811 13.7427 23.2407 13.9566 23.279C14.0553 23.2982 14.1596 23.2982 14.2638 23.2982C15.8381 23.2982 17.4124 23.2982 18.9866 23.2982H18.9812ZM16.244 17.4237C16.9626 17.4237 17.6811 17.4237 18.3997 17.4237C18.7343 17.4237 18.9098 17.2576 18.9153 16.9575C18.9153 16.651 18.7453 16.4722 18.4162 16.4722C16.979 16.4722 15.5419 16.4722 14.1047 16.4722C13.7975 16.4722 13.622 16.651 13.6165 16.9448C13.6165 17.2512 13.792 17.43 14.1157 17.43C14.8233 17.43 15.5364 17.43 16.244 17.43V17.4237ZM15.1469 27.5763C14.7959 27.5763 14.4448 27.5763 14.0937 27.5763C13.792 27.5763 13.611 27.7615 13.6165 28.0552C13.6165 28.3362 13.7975 28.5278 14.0828 28.5278C14.7904 28.5278 15.5035 28.5278 16.2111 28.5278C16.4908 28.5278 16.6663 28.3298 16.6609 28.0425C16.6609 27.7551 16.4853 27.5763 16.2001 27.5763C15.849 27.5763 15.498 27.5763 15.1469 27.5763Z" fill="#10B981"/>
</g>
<defs>
<clipPath id="clip0_583_28">
<rect width="23" height="23" fill="white" transform="translate(11 11)"/>
</clipPath>
</defs>
</svg>
