<svg width="45" height="45" viewBox="0 0 45 45" fill="none" xmlns="http://www.w3.org/2000/svg">
<rect width="45" height="45" rx="22.5" fill="#D9E9FF"/>
<g clip-path="url(#clip0_583_29)">
<path d="M28.3238 18.8418C28.2602 18.7941 28.2313 18.7703 28.2024 18.7524C26.3989 17.6621 24.5897 16.5717 22.7804 15.4993C22.6937 15.4457 22.5203 15.4695 22.422 15.5291C20.659 16.5658 18.9018 17.6084 17.1446 18.6511C17.0868 18.6868 17.029 18.7286 16.9654 18.7703C17.0001 18.806 17.0174 18.8298 17.0405 18.8418C18.8267 19.9797 20.6128 21.1237 22.4047 22.2498C22.4741 22.2974 22.6301 22.2736 22.711 22.2259C23.5665 21.7195 24.4105 21.2071 25.2602 20.6947C26.2717 20.081 27.2833 19.4733 28.3295 18.8418H28.3238ZM23.0579 29.5424C23.1735 29.4828 23.2371 29.4471 23.3006 29.4113C25.0752 28.3806 26.844 27.3439 28.6243 26.3191C28.7978 26.2178 28.8556 26.1106 28.8556 25.908C28.8498 23.9776 28.8556 22.0472 28.8556 20.1168C28.8556 20.0274 28.8498 19.938 28.844 19.8129C28.7168 19.8844 28.6128 19.938 28.5145 19.9976C26.7746 21.0522 25.0347 22.1068 23.2891 23.1554C23.1157 23.2567 23.0579 23.3639 23.0579 23.5665C23.0636 25.4492 23.0579 27.3379 23.0579 29.2207V29.5365V29.5424ZM16.4278 19.7533C16.4278 21.8982 16.4278 23.9895 16.4336 26.0808C16.4336 26.1702 16.5261 26.2953 16.607 26.3489C18.3295 27.3796 20.0579 28.4044 21.792 29.4233C21.8498 29.459 21.9134 29.4769 22.0001 29.5126C22.0001 29.3935 22.0001 29.3101 22.0001 29.2326C22.0001 27.3439 22.0001 25.4612 22.0001 23.5725C22.0001 23.352 21.9307 23.2448 21.7573 23.1316C20.0636 22.0591 18.3816 20.9807 16.6937 19.9082C16.6186 19.8606 16.5434 19.8189 16.4278 19.7533ZM31.8613 18.4783V26.5396C32.1677 26.5694 32.4625 26.5932 32.7688 26.623V18.4009C32.4625 18.4306 32.1793 18.4545 31.8613 18.4843V18.4783ZM12.3989 26.5694H13.3006V18.4426H12.3989V26.5694ZM14.6532 16.256C16.8671 14.9333 19.0868 13.6106 21.2891 12.2939C21.1099 12.0079 20.948 11.7576 20.7804 11.4895C18.607 12.7884 16.422 14.0872 14.2486 15.3801C14.3816 15.6661 14.5145 15.9402 14.659 16.25L14.6532 16.256ZM21.2602 32.7479C19.0405 31.4847 16.8151 30.2216 14.607 28.9585C14.4336 29.2445 14.2775 29.5007 14.1099 29.7748C16.3295 31.0379 18.555 32.307 20.7631 33.5641C20.9365 33.2841 21.0868 33.0338 21.2602 32.7479ZM30.792 15.3444C28.6128 14.0574 26.4394 12.7705 24.2775 11.4895C24.0983 11.7695 23.9307 12.0317 23.7631 12.2939C25.9654 13.5927 28.1677 14.8975 30.3584 16.1904C30.503 15.9044 30.6417 15.6363 30.792 15.3384V15.3444ZM24.2833 33.5462C26.4683 32.2772 28.6648 31.0081 30.8498 29.739C30.6821 29.4531 30.5319 29.1909 30.37 28.9168C28.1735 30.1918 25.9712 31.4669 23.7746 32.7419C23.9423 33.01 24.0983 33.2662 24.2775 33.5522L24.2833 33.5462ZM23.3873 10.8878C23.3873 10.3932 23.0116 10.006 22.5319 10C22.0579 10 21.6648 10.3813 21.659 10.8699C21.6475 11.3644 22.0463 11.7815 22.5319 11.7755C23.0116 11.7755 23.3873 11.3823 23.3873 10.8878ZM23.3758 34.1123C23.3758 33.6177 23.0001 33.2245 22.5261 33.2245C22.0579 33.2245 21.6706 33.6237 21.6706 34.1123C21.6706 34.6008 22.0521 35 22.5203 35C22.9885 35 23.3758 34.6008 23.3758 34.1123ZM32.1446 17.4952C32.6186 17.4952 33.0058 17.0901 33.0001 16.6075C33.0001 16.1368 32.6128 15.7376 32.1561 15.7316C31.6937 15.7257 31.2891 16.1308 31.2891 16.6134C31.2891 17.096 31.6764 17.5012 32.1446 17.5012V17.4952ZM12.8556 17.4952C13.3238 17.4952 13.7168 17.096 13.7168 16.6134C13.7168 16.1308 13.318 15.7257 12.8556 15.7316C12.3931 15.7376 12.0058 16.1368 12.0001 16.6075C11.9943 17.0901 12.3816 17.4952 12.8498 17.5012L12.8556 17.4952ZM12.8729 29.2743C13.3411 29.2684 13.7284 28.8572 13.7168 28.3746C13.7053 27.892 13.3064 27.5048 12.8382 27.5167C12.3758 27.5286 12.0001 27.9278 12.0001 28.3985C12.0001 28.8811 12.3989 29.2803 12.8671 29.2743H12.8729ZM32.1504 27.5167C31.6821 27.5167 31.2891 27.9278 31.2949 28.4044C31.3006 28.8751 31.6879 29.2743 32.1446 29.2743C32.6128 29.2743 33.0001 28.8692 32.9943 28.3806C32.9885 27.904 32.607 27.5167 32.1504 27.5107V27.5167Z" fill="white"/>
<path d="M28.3236 18.8418C27.2774 19.4733 26.2658 20.087 25.2543 20.6947C24.4046 21.2071 23.5606 21.7255 22.7051 22.2259C22.6242 22.2736 22.4739 22.2915 22.3988 22.2498C20.6069 21.1177 18.8207 19.9797 17.0346 18.8418C17.0115 18.8298 16.9942 18.806 16.9595 18.7703C17.0231 18.7286 17.0809 18.6869 17.1387 18.6511C18.8959 17.6084 20.6531 16.5598 22.4161 15.5291C22.5144 15.4755 22.6878 15.4516 22.7745 15.4993C24.5895 16.5777 26.393 17.668 28.1965 18.7524C28.2254 18.7703 28.2543 18.7941 28.3179 18.8418H28.3236Z" fill="#64748B"/>
<path d="M23.0576 29.5424V29.2266C23.0576 27.3439 23.0576 25.4552 23.0576 23.5724C23.0576 23.3698 23.1154 23.2626 23.2888 23.1613C25.0345 22.1127 26.7744 21.0581 28.5143 20.0035C28.6125 19.944 28.7166 19.8903 28.8437 19.8188C28.8437 19.944 28.8553 20.0333 28.8553 20.1227C28.8553 22.0531 28.8553 23.9835 28.8553 25.9139C28.8553 26.1165 28.7975 26.2238 28.6241 26.325C26.8437 27.3498 25.075 28.3865 23.3004 29.4173C23.2368 29.453 23.1732 29.4828 23.0576 29.5484V29.5424Z" fill="#64748B"/>
<path d="M16.4277 19.7534C16.5433 19.819 16.6242 19.8607 16.6936 19.9083C18.3815 20.9867 20.0693 22.0651 21.7572 23.1316C21.9306 23.2389 22.0057 23.3521 22 23.5725C21.9884 25.4612 22 27.344 22 29.2327C22 29.3161 22 29.3995 22 29.5127C21.9133 29.477 21.8497 29.4531 21.7919 29.4233C20.0636 28.3986 18.3352 27.3797 16.6069 26.349C16.526 26.3013 16.4335 26.1762 16.4335 26.0809C16.4219 23.9896 16.4277 21.8983 16.4277 19.7534Z" fill="#64748B"/>
<path d="M31.8613 18.4784C32.1792 18.4486 32.4625 18.4248 32.7688 18.395V26.6171C32.4625 26.5873 32.1677 26.5635 31.8613 26.5337V18.4725V18.4784Z" fill="#64748B"/>
<path d="M12.3989 26.5694V18.4426H13.3007V26.5694H12.3989Z" fill="#64748B"/>
<path d="M14.6531 16.2558C14.5086 15.946 14.3756 15.672 14.2427 15.386C16.4161 14.0931 18.6011 12.7883 20.7745 11.4954C20.9421 11.7575 21.1039 12.0137 21.2831 12.2997C19.0808 13.6164 16.8612 14.9391 14.6473 16.2618L14.6531 16.2558Z" fill="#64748B"/>
<path d="M21.2602 32.742C21.0867 33.0279 20.9365 33.2782 20.763 33.5582C18.5549 32.3011 16.3295 31.032 14.1099 29.7689C14.2775 29.4948 14.4336 29.2386 14.607 28.9526C16.8151 30.2098 19.0405 31.4729 21.2602 32.742Z" fill="#64748B"/>
<path d="M30.7921 15.3384C30.6418 15.6363 30.5031 15.9044 30.3586 16.1904C28.1678 14.8975 25.9655 13.5927 23.7632 12.2938C23.9308 12.0257 24.0984 11.7695 24.2776 11.4895C26.4337 12.7645 28.6129 14.0515 30.7921 15.3444V15.3384Z" fill="#64748B"/>
<path d="M24.2832 33.5404C24.104 33.2544 23.9479 32.9982 23.7803 32.7301C25.9768 31.4551 28.1791 30.1801 30.3756 28.905C30.5375 29.1851 30.6878 29.4413 30.8554 29.7272C28.6647 30.9963 26.4739 32.2654 24.2889 33.5344L24.2832 33.5404Z" fill="#64748B"/>
<path d="M23.3873 10.8878C23.3873 11.3823 23.0058 11.7755 22.5318 11.7755C22.052 11.7755 21.6474 11.3644 21.6589 10.8699C21.6647 10.3813 22.0578 10 22.5318 10C23.0115 10 23.3873 10.3932 23.3873 10.8878Z" fill="#64748B"/>
<path d="M23.3757 34.1124C23.3757 34.6009 22.9884 35.0001 22.5202 35.0001C22.0462 35.0001 21.6647 34.6009 21.6705 34.1124C21.6705 33.6238 22.0578 33.2246 22.526 33.2246C23 33.2246 23.3757 33.6178 23.3757 34.1124Z" fill="#64748B"/>
<path d="M32.1446 17.5013C31.6764 17.5013 31.2833 17.0961 31.2891 16.6135C31.2891 16.1309 31.6937 15.7258 32.1562 15.7318C32.6128 15.7377 32.9943 16.1369 33.0001 16.6076C33.0059 17.0902 32.6186 17.4953 32.1446 17.4953V17.5013Z" fill="#64748B"/>
<path d="M12.8495 17.5011C12.3813 17.5011 11.9882 17.09 11.9998 16.6074C12.0055 16.1367 12.3928 15.7375 12.8495 15.7375C13.3119 15.7375 13.7107 16.1367 13.7107 16.6193C13.7107 17.1019 13.3177 17.5011 12.8495 17.5011Z" fill="#64748B"/>
<path d="M12.8671 29.2743C12.3988 29.2802 12 28.881 12 28.3984C12 27.9277 12.3757 27.5226 12.8324 27.5166C13.3064 27.5047 13.7052 27.892 13.711 28.3746C13.7225 28.8572 13.3353 29.2683 12.8671 29.2743Z" fill="#64748B"/>
<path d="M32.1446 27.5166C32.607 27.5166 32.9828 27.9039 32.9885 28.3865C32.9943 28.875 32.607 29.2802 32.1388 29.2802C31.6822 29.2802 31.2949 28.881 31.2891 28.4103C31.2833 27.9337 31.6764 27.5226 32.1446 27.5226V27.5166Z" fill="#64748B"/>
</g>
<defs>
<clipPath id="clip0_583_29">
<rect width="21" height="25" fill="white" transform="translate(12 10)"/>
</clipPath>
</defs>
</svg>
