<svg width="45" height="45" viewBox="0 0 45 45" fill="none" xmlns="http://www.w3.org/2000/svg">
<rect width="45" height="45" rx="22.5" fill="#D9E3FF"/>
<g clip-path="url(#clip0_583_27)">
<path d="M27.7547 13.7681C23.5728 11.081 17.2776 11.4996 13.4608 16.1401C9.77915 20.6141 10.2839 27.2215 14.6099 31.1734C18.8683 35.0667 25.497 34.9317 29.6608 30.8358C33.8021 26.7624 33.6353 20.7716 31.2245 17.2384C30.6522 17.81 30.0709 18.3861 29.4806 18.9757C30.3548 20.5916 30.6792 22.338 30.4404 24.1834C29.796 29.22 24.7805 32.6047 19.8462 31.3354C15.1371 30.1247 12.3432 25.2681 13.7672 20.6276C14.7541 17.4004 16.9847 15.4065 20.2833 14.6773C22.2074 14.2542 24.073 14.5423 25.835 15.438C25.9612 15.501 26.0333 15.492 26.1279 15.3885C26.3712 15.1319 26.6236 14.8843 26.8759 14.6368C27.1643 14.3487 27.4572 14.0607 27.7502 13.7681H27.7547ZM24.4741 17.0448C22.4418 16.0771 19.026 16.2751 16.863 18.9577C14.7541 21.5773 14.9794 25.3761 17.3677 27.6941C19.8236 30.0751 23.5683 30.2327 26.1775 28.0362C28.8362 25.7992 28.9083 22.374 27.9259 20.4431C27.4122 20.9562 26.9165 21.4828 26.3848 21.9734C26.1234 22.2119 25.9927 22.4505 26.0873 22.8061C26.1189 22.9231 26.1009 23.0491 26.0964 23.1751C25.9837 26.0693 23.0862 27.9462 20.3914 26.8705C18.5889 26.1548 17.5164 24.1789 17.8904 22.2795C18.2735 20.317 20.0129 18.8587 21.9686 18.9307C22.4328 18.9487 22.7257 18.8182 23.0231 18.4986C23.4827 17.999 23.9829 17.5354 24.4696 17.0493L24.4741 17.0448ZM31.6751 11.045L31.5985 11C31.5444 11.072 31.4994 11.1485 31.4363 11.216C30.7063 11.9497 29.9853 12.6924 29.2372 13.408C28.9984 13.6376 28.8542 13.8581 28.9668 14.1957C29.0074 14.3082 28.9984 14.4387 29.0209 14.5603C29.0525 14.7178 29.0029 14.8348 28.8857 14.9519C26.921 16.9098 24.9563 18.8722 22.996 20.8436C22.8563 20.9832 22.7437 21.0147 22.5499 20.9562C21.5991 20.6726 20.5897 21.0867 20.0895 21.9419C19.5848 22.7971 19.7245 23.8683 20.423 24.5704C21.1214 25.2726 22.2074 25.4166 23.0546 24.9215C23.9198 24.4174 24.3344 23.4047 24.0505 22.446C23.9964 22.2659 24.0235 22.1579 24.1587 22.0229C26.0017 20.1955 27.8538 18.3771 29.6563 16.5092C30.0889 16.0636 30.499 15.8926 31.0668 16.0726C31.211 16.1176 31.3101 16.0636 31.4138 15.9601C32.2294 15.1364 33.0495 14.3217 33.8697 13.5025C33.9102 13.4575 33.9463 13.408 34.0004 13.3405C33.2974 13.246 32.6259 13.156 31.9455 13.0614C31.8509 12.3773 31.7607 11.7112 31.6706 11.0495L31.6751 11.045Z" fill="#1E3A8A"/>
<path d="M27.7543 13.7682C27.4613 14.0607 27.1684 14.3488 26.88 14.6369C26.6277 14.8844 26.3753 15.132 26.132 15.3885C26.0374 15.492 25.9608 15.501 25.8391 15.438C24.0771 14.5423 22.2115 14.2543 20.2874 14.6774C16.9933 15.4065 14.7627 17.4005 13.7713 20.6277C12.3473 25.2682 15.1457 30.1247 19.8503 31.3355C24.7846 32.6048 29.7956 29.22 30.4445 24.1834C30.6788 22.338 30.3589 20.5917 29.4847 18.9758C30.075 18.3907 30.6518 17.8101 31.2286 17.2384C33.6394 20.7717 33.8062 26.767 29.6649 30.8359C25.5011 34.9273 18.8724 35.0623 14.614 31.1735C10.2834 27.2171 9.77875 20.6142 13.4604 16.1402C17.2772 11.4997 23.5724 11.0811 27.7543 13.7682Z" fill="#1E3A8A"/>
<path d="M24.4737 17.0492C23.987 17.5353 23.4868 17.9989 23.0272 18.4986C22.7298 18.8181 22.4368 18.9487 21.9727 18.9307C20.017 18.8586 18.2776 20.3215 17.8945 22.2794C17.5205 24.1833 18.5975 26.1547 20.3955 26.8704C23.0903 27.9461 25.9878 26.0692 26.1004 23.1751C26.1049 23.0535 26.123 22.923 26.0914 22.806C25.9923 22.4549 26.1275 22.2164 26.3888 21.9733C26.9161 21.4827 27.4163 20.9606 27.93 20.443C28.9078 22.3694 28.8357 25.7991 26.1816 28.0361C23.5769 30.2281 19.8277 30.0751 17.3718 27.6941C14.9835 25.3761 14.7582 21.5772 16.8671 18.9577C19.0301 16.2706 22.4459 16.0725 24.4782 17.0447L24.4737 17.0492Z" fill="#1E3A8A"/>
<path d="M31.6749 11.0451C31.7651 11.7113 31.8552 12.3729 31.9498 13.0571C32.6258 13.1471 33.2972 13.2416 34.0047 13.3361C33.9506 13.4036 33.9191 13.4531 33.874 13.4981C33.0539 14.3173 32.2337 15.132 31.4181 15.9557C31.3144 16.0592 31.2153 16.1132 31.0711 16.0682C30.4988 15.8927 30.0932 16.0592 29.6606 16.5048C27.8536 18.3682 26.0015 20.1866 24.163 22.0185C24.0278 22.1535 24.0008 22.2616 24.0548 22.4416C24.3387 23.4003 23.9287 24.413 23.059 24.9171C22.2118 25.4122 21.1258 25.2682 20.4273 24.5661C19.7288 23.8639 19.5936 22.7882 20.0938 21.9375C20.5985 21.0823 21.6079 20.6727 22.5542 20.9518C22.748 21.0103 22.8607 20.9788 23.0004 20.8392C24.9606 18.8723 26.9208 16.9099 28.8901 14.9475C29.0072 14.8304 29.0568 14.7179 29.0253 14.5559C29.0027 14.4344 29.0117 14.3038 28.9712 14.1913C28.8585 13.8537 28.9982 13.6332 29.2416 13.4036C29.9851 12.6835 30.7106 11.9453 31.4406 11.2117C31.5037 11.1486 31.5488 11.0676 31.6028 10.9956L31.6794 11.0406L31.6749 11.0451Z" fill="#1E3A8A"/>
</g>
<defs>
<clipPath id="clip0_583_27">
<rect width="23" height="23" fill="white" transform="translate(11 11)"/>
</clipPath>
</defs>
</svg>
