<svg width="45" height="45" viewBox="0 0 45 45" fill="none" xmlns="http://www.w3.org/2000/svg">
<rect width="45" height="45" rx="22.5" fill="#DAFFFC"/>
<g clip-path="url(#clip0_583_30)">
<path d="M28.1351 27.9123C28.0828 27.957 28.038 27.9942 27.9932 28.0389C27.493 28.5263 27.2765 28.5896 26.6606 28.2696C26.3209 28.091 26.067 28.1914 25.746 28.2993C25.3279 28.437 25.0964 28.6677 24.9695 29.0882C24.8277 29.5608 24.5551 29.7171 24.0475 29.7208C23.5696 29.7208 23.0955 29.7208 22.6177 29.7208C21.9943 29.7208 21.774 29.5868 21.5725 29.0026C21.4605 28.6715 21.3074 28.4147 20.9341 28.3589C20.9155 28.3589 20.9005 28.3514 20.8856 28.3403C20.5123 28.0761 20.1576 28.1319 19.7657 28.3403C19.3439 28.5673 19.034 28.4817 18.6868 28.1393C18.3471 27.8044 18.0149 27.4695 17.6752 27.1309C17.2272 26.6844 17.1638 26.4276 17.4475 25.862C17.6043 25.5532 17.5893 25.3002 17.4699 24.9727C17.3019 24.5187 17.0592 24.2471 16.5889 24.1206C16.1857 24.0089 16.0065 23.6852 16.0103 23.2684C16.0103 22.9484 16.0103 22.6321 16.0103 22.2935C15.9244 22.3121 15.8572 22.327 15.79 22.3456C13.5614 22.9894 11.9861 25.1178 12.0383 27.4286C12.0421 27.6109 11.9898 27.6965 11.8256 27.7784C10.7019 28.3663 10.0636 29.3078 10.0001 30.5841C9.91426 32.4446 11.4037 33.9926 13.2777 33.9963C17.6677 34.0075 22.0578 33.9963 26.4478 33.9963C26.6195 33.9963 26.795 33.974 26.9629 33.9517C28.2844 33.7582 29.4043 32.6828 29.6694 31.3544C29.9344 30.0185 29.3185 28.6156 28.1351 27.9161V27.9123ZM30.1173 15.0374V15.3835C30.1173 16.79 30.1173 18.1966 30.1173 19.6032C30.1173 20.0385 30.2629 20.1799 30.6922 20.1799C31.394 20.1799 32.0958 20.1799 32.7976 20.1799C33.2493 20.1799 33.38 20.046 33.38 19.592C33.38 18.178 33.38 16.7603 33.38 15.3463C33.38 15.2532 33.38 15.1602 33.38 15.0374C33.828 15.0374 34.2498 15.0486 34.6716 15.03C34.7836 15.0262 34.9553 14.9704 34.9927 14.8886C35.03 14.8104 34.9553 14.6467 34.8807 14.5611C33.9362 13.4373 32.9806 12.321 32.0286 11.201C31.7972 10.9293 31.7188 10.9256 31.4836 11.201C30.5317 12.3173 29.576 13.4373 28.6316 14.5611C28.5569 14.6467 28.486 14.8141 28.5196 14.8923C28.5569 14.9704 28.7249 15.0262 28.8406 15.03C29.255 15.0449 29.6694 15.0374 30.1211 15.0374H30.1173Z" fill="white"/>
<path d="M28.1349 27.9123C29.3183 28.6119 29.938 30.0148 29.6692 31.3506C29.4041 32.6791 28.2842 33.7582 26.9627 33.9479C26.791 33.974 26.6193 33.9926 26.4476 33.9926C22.0576 33.9926 17.6675 34 13.2775 33.9926C11.4035 33.9889 9.91033 32.4409 9.99992 30.5804C10.0597 29.304 10.698 28.3663 11.8328 27.7747C11.9971 27.6891 12.0494 27.6072 12.0456 27.4249C11.9934 25.1141 13.5687 22.9856 15.7973 22.3419C15.8608 22.3233 15.928 22.3121 16.0175 22.2898C16.0175 22.6284 16.0175 22.9484 16.0175 23.2647C16.0138 23.6852 16.193 24.0089 16.5962 24.1168C17.0665 24.2471 17.3092 24.5187 17.4772 24.969C17.5966 25.2964 17.6115 25.5495 17.4548 25.8583C17.171 26.4239 17.2345 26.6807 17.6825 27.1272C18.0184 27.4621 18.3544 27.8007 18.6941 28.1356C19.0413 28.478 19.3511 28.5635 19.773 28.3366C20.1649 28.1282 20.5196 28.0724 20.8929 28.3366C20.9078 28.3477 20.9265 28.3514 20.9414 28.3552C21.3184 28.411 21.4677 28.6677 21.5797 28.9989C21.7813 29.5831 21.9978 29.7171 22.625 29.7171C23.1028 29.7171 23.5769 29.7171 24.0547 29.7171C24.5624 29.7171 24.8349 29.5608 24.9768 29.0845C25.1037 28.664 25.3351 28.437 25.7532 28.2956C26.0706 28.1877 26.3244 28.091 26.6678 28.2659C27.2838 28.5859 27.5003 28.5226 28.0005 28.0351C28.0416 27.9942 28.0901 27.957 28.1424 27.9086L28.1349 27.9123Z" fill="#0F766E"/>
<path d="M18.5782 19.5734C18.4774 19.3502 18.4028 19.1157 18.2796 18.9111C18.1153 18.6394 18.1639 18.4608 18.4028 18.2599C18.6902 18.0143 18.9478 17.7315 19.2128 17.4561C19.3062 17.3557 19.3846 17.3185 19.5227 17.3854C19.7952 17.5194 20.0714 17.7241 20.3514 17.7278C20.6127 17.7315 20.8778 17.5157 21.1428 17.4003C21.2548 17.352 21.3668 17.2887 21.4825 17.2738C21.9193 17.2217 22.1097 16.9538 22.2366 16.5594C22.4008 16.0384 22.427 16.0459 22.9608 16.0459C23.2968 16.0459 23.6365 16.0533 23.9724 16.0459C24.1218 16.0421 24.2039 16.0905 24.23 16.2319C24.3569 16.8682 24.7004 17.2887 25.3798 17.3817C25.447 17.3892 25.5142 17.4227 25.5702 17.4636C26.0181 17.8134 26.4623 17.7613 26.9103 17.4636C27.1268 17.3185 27.2948 17.3445 27.4777 17.5566C27.7428 17.8655 28.0526 18.1297 28.3289 18.4273C28.3849 18.4869 28.411 18.6283 28.3849 18.7064C28.2953 18.9595 28.1683 19.1939 28.075 19.4432C28.0451 19.5251 28.0526 19.6404 28.0862 19.726C28.2579 20.1651 28.4408 20.6005 28.6312 21.0358C28.6686 21.1177 28.747 21.1847 28.8142 21.2516C28.8365 21.274 28.8776 21.2777 28.9075 21.2889C29.1763 21.4005 29.5496 21.4414 29.6877 21.6424C29.8258 21.847 29.7362 22.208 29.7325 22.4982C29.7325 22.781 29.8071 23.1271 29.669 23.3243C29.5384 23.5141 29.1875 23.5587 28.9261 23.6443C28.732 23.7076 28.6499 23.8229 28.5864 24.0127C28.452 24.4034 28.2915 24.7829 28.1086 25.1551C28.0302 25.3151 28.019 25.4341 28.0974 25.583C28.2019 25.7914 28.2803 26.0109 28.3849 26.2193C28.4483 26.3458 28.4371 26.4314 28.3289 26.5319C27.9966 26.8481 27.6756 27.1719 27.3545 27.5031C27.2612 27.5998 27.1866 27.6184 27.0634 27.5589C26.8319 27.4435 26.5967 27.3319 26.3541 27.2463C26.257 27.2128 26.1264 27.224 26.0256 27.2612C25.6 27.4249 25.1782 27.5998 24.7601 27.7859C24.6556 27.8305 24.551 27.9235 24.5025 28.024C24.3905 28.2473 24.3308 28.4929 24.2188 28.7161C24.1815 28.7943 24.0658 28.8761 23.9836 28.8799C23.517 28.8947 23.0504 28.8947 22.5837 28.8799C22.5091 28.8799 22.3822 28.7943 22.3672 28.731C22.2216 28.0798 21.867 27.6556 21.1727 27.5514C21.0233 27.5291 20.874 27.4472 20.7508 27.3579C20.4933 27.1607 20.2618 27.1905 19.9968 27.3393C19.7952 27.451 19.5525 27.6184 19.3622 27.5812C19.168 27.544 19.0187 27.291 18.8507 27.1272C18.6454 26.9263 18.4364 26.7328 18.2497 26.517C18.1937 26.4537 18.1639 26.2974 18.2012 26.2379C18.5633 25.6797 18.6006 25.1402 18.1937 24.5857C18.1265 24.4927 18.078 24.3662 18.0631 24.2508C18.0145 23.8304 17.7532 23.6555 17.3762 23.5364C16.8386 23.3689 16.8461 23.3429 16.8461 22.7736C16.8461 22.4461 16.8349 22.1187 16.8536 21.7912C16.8573 21.7056 16.9357 21.5865 17.0104 21.5531C17.2903 21.4228 17.6524 21.3856 17.8578 21.1884C18.0519 20.9986 18.078 20.6451 18.1937 20.3697C18.2833 20.1539 18.3953 19.953 18.4998 19.7409C18.526 19.6888 18.5521 19.633 18.5782 19.5772V19.5734ZM26.328 22.528C26.3765 20.9242 25.0475 19.5027 23.4498 19.4469C21.7065 19.3874 20.3141 20.6712 20.2543 22.3903C20.1984 24.035 21.5348 25.4527 23.181 25.5048C24.8833 25.5569 26.2757 24.2359 26.328 22.528Z" fill="#0F766E"/>
<path d="M30.1173 15.041C29.6656 15.041 29.2512 15.0522 28.8368 15.0336C28.7211 15.0298 28.5531 14.974 28.5158 14.8959C28.4785 14.8177 28.5531 14.654 28.6278 14.5647C29.5722 13.4409 30.5279 12.3246 31.4798 11.2046C31.715 10.9292 31.7934 10.9292 32.0248 11.2046C32.9767 12.3246 33.9324 13.4409 34.8768 14.5647C34.9515 14.6503 35.0224 14.814 34.9888 14.8922C34.9515 14.974 34.7835 15.0298 34.6678 15.0336C34.246 15.0484 33.8241 15.041 33.3762 15.041C33.3762 15.1638 33.3762 15.2568 33.3762 15.3499C33.3762 16.7639 33.3762 18.1816 33.3762 19.5956C33.3762 20.0496 33.2455 20.1835 32.7938 20.1835C32.092 20.1835 31.3902 20.1835 30.6884 20.1835C30.2591 20.1835 30.1135 20.0384 30.1135 19.6068C30.1135 18.2002 30.1135 16.7936 30.1135 15.3871V15.041H30.1173Z" fill="#0F766E"/>
</g>
<defs>
<clipPath id="clip0_583_30">
<rect width="25" height="23" fill="white" transform="translate(10 11)"/>
</clipPath>
</defs>
</svg>
