<svg width="45" height="45" viewBox="0 0 45 45" fill="none" xmlns="http://www.w3.org/2000/svg">
<rect width="45" height="45" rx="22.5" fill="#E6DBFF"/>
<g clip-path="url(#clip0_583_26)">
<path d="M17.8916 13.8163C16.9129 13.8163 15.9342 13.8163 14.9555 13.8163C14.2331 13.8163 13.7553 14.2925 13.7553 15.0125C13.7553 15.9357 13.7553 16.8532 13.7553 17.7764C13.7553 17.8345 13.7612 17.8926 13.767 17.9332C15.1419 16.5629 16.5109 15.1983 17.8974 13.8163H17.8916ZM17.8508 31.242C16.4876 29.8832 15.1127 28.5129 13.7612 27.1657C13.7612 28.1587 13.7437 29.1922 13.767 30.2316C13.7787 30.7484 14.2389 31.2246 14.7574 31.2362C15.806 31.2652 16.8546 31.242 17.8567 31.242H17.8508ZM27.1138 31.2478C28.0808 31.2478 29.0537 31.2478 30.0324 31.2478C30.7723 31.2478 31.2442 30.7716 31.2442 30.0342C31.2442 29.1284 31.2442 28.2225 31.2442 27.3225C31.2442 27.2586 31.2442 27.189 31.2442 27.1251C29.8577 28.5071 28.4945 29.8716 27.1138 31.2478ZM27.1778 13.8163C28.5236 15.1577 29.8926 16.528 31.2442 17.8752C31.2442 16.9809 31.2442 16.0286 31.2442 15.0822C31.2442 15.0009 31.2442 14.9196 31.2442 14.8383C31.1976 14.3099 30.7548 13.8337 30.2305 13.8221C29.1877 13.7989 28.1507 13.8163 27.1837 13.8163H27.1778Z" fill="white"/>
<path d="M22.5 11C22.7738 11.1277 23.0068 11.2323 23.234 11.3484C23.3098 11.389 23.368 11.4645 23.4321 11.5284C26.8052 14.8846 30.1725 18.2467 33.5456 21.6029C33.9126 21.9687 34.1107 22.3752 33.9359 22.8861C33.8718 23.0661 33.7611 23.2461 33.6213 23.3797C30.1958 26.7998 26.7702 30.2199 23.3389 33.6284C22.8379 34.1277 22.1563 34.1219 21.6553 33.6284C18.2297 30.2141 14.8042 26.794 11.3787 23.3739C10.8485 22.8455 10.8835 22.1835 11.4486 21.6203C14.7459 18.3338 18.0433 15.0472 21.3465 11.7549C21.4747 11.6271 21.5853 11.4761 21.7368 11.3832C21.9757 11.2381 22.232 11.1336 22.5058 11H22.5ZM17.4316 22.1661C17.4316 22.1661 17.4665 22.1545 17.4782 22.1487C17.5248 22.2184 17.5772 22.2881 17.6238 22.3635C18.0491 23.0313 18.4627 23.6991 18.888 24.361C19.0919 24.6804 19.3657 24.7907 19.692 24.6978C20.0182 24.6049 20.1813 24.3726 20.1872 23.9894C20.1872 23.0023 20.1872 22.021 20.1872 21.0338C20.1872 20.9409 20.1697 20.8306 20.1289 20.7493C20.0299 20.5519 19.8493 20.4648 19.6337 20.517C19.3774 20.5751 19.2667 20.7667 19.2667 21.0164C19.2667 21.6551 19.2667 22.2881 19.2667 22.9268C19.2667 23.0023 19.255 23.072 19.2434 23.2055C18.754 22.4274 18.2996 21.7132 17.8394 20.9932C17.6122 20.639 17.3442 20.517 17.0063 20.6099C16.6859 20.697 16.5111 20.9642 16.5053 21.3764C16.5053 22.3287 16.5053 23.2752 16.5053 24.2275C16.5053 24.5991 16.6684 24.8023 16.9597 24.8023C17.2626 24.8023 17.4258 24.6049 17.4258 24.21C17.4258 23.5307 17.4258 22.8513 17.4258 22.1661H17.4316ZM22.5116 21.388C23.0068 21.388 23.4729 21.3938 23.9389 21.388C24.2594 21.3822 24.4516 21.1964 24.4458 20.9177C24.4458 20.6448 24.2594 20.4764 23.9448 20.4706C23.3855 20.4648 22.832 20.459 22.2728 20.4706C21.8417 20.4822 21.5795 20.7551 21.5737 21.1906C21.5737 22.23 21.5737 23.2694 21.5737 24.3088C21.5737 24.4191 21.6086 24.5468 21.6669 24.6339C21.7834 24.8023 21.964 24.8604 22.1621 24.7965C22.3776 24.7268 22.4825 24.5701 22.4825 24.3494C22.4825 24.0126 22.4825 23.6758 22.4825 23.3332C22.7621 23.3332 22.9952 23.3332 23.2282 23.3332C23.6418 23.3332 23.8574 23.1765 23.8632 22.8803C23.8632 22.5842 23.6477 22.4158 23.2399 22.4158C22.9952 22.4158 22.7447 22.4158 22.4942 22.4158V21.3822L22.5116 21.388ZM26.7586 21.388V21.6842C26.7586 22.5087 26.7586 23.3332 26.7586 24.1578C26.7586 24.2275 26.7586 24.303 26.7586 24.3726C26.7761 24.6397 26.98 24.8314 27.2305 24.8255C27.481 24.8139 27.6732 24.6223 27.6732 24.3436C27.6791 23.4552 27.6732 22.5726 27.6732 21.6842C27.6732 21.5913 27.6732 21.4984 27.6732 21.388C27.8771 21.388 28.0403 21.3938 28.2034 21.388C28.5238 21.3706 28.716 21.1848 28.7044 20.9119C28.6986 20.6448 28.5121 20.4764 28.1975 20.4764C27.5392 20.4764 26.8868 20.4706 26.2285 20.4764C25.9139 20.4764 25.7333 20.6506 25.7274 20.9177C25.7216 21.1964 25.908 21.3764 26.2343 21.3938C26.3974 21.3996 26.5547 21.3938 26.7586 21.3938V21.388Z" fill="#8B5CF6"/>
<path d="M17.8916 13.8162C16.5109 15.1923 15.136 16.5627 13.7612 17.9331C13.7612 17.8924 13.7495 17.8343 13.7495 17.7763C13.7495 16.853 13.7495 15.9356 13.7495 15.0123C13.7495 14.2923 14.2272 13.822 14.9496 13.8162C15.9283 13.8162 16.9071 13.8162 17.8858 13.8162H17.8916Z" fill="#8B5CF6"/>
<path d="M17.8513 31.2476C16.8493 31.2476 15.8006 31.265 14.752 31.2418C14.2335 31.2302 13.7733 30.7483 13.7616 30.2373C13.7383 29.2037 13.7558 28.1643 13.7558 27.1714C15.1132 28.5243 16.4822 29.8889 17.8455 31.2476H17.8513Z" fill="#8B5CF6"/>
<path d="M27.1138 31.2536C28.4945 29.8774 29.8635 28.5128 31.2442 27.1309C31.2442 27.1947 31.2442 27.2644 31.2442 27.3283C31.2442 28.2341 31.2442 29.1399 31.2442 30.04C31.2442 30.7774 30.7723 31.2477 30.0325 31.2536C29.0537 31.2536 28.0808 31.2536 27.1138 31.2536Z" fill="#8B5CF6"/>
<path d="M27.184 13.8219C28.1453 13.8219 29.1881 13.8045 30.2309 13.8278C30.761 13.8394 31.2038 14.3155 31.2446 14.8439C31.2504 14.9252 31.2446 15.0065 31.2446 15.0878C31.2446 16.0343 31.2446 16.9866 31.2446 17.8808C29.893 16.5336 28.524 15.1633 27.1782 13.8219H27.184Z" fill="#8B5CF6"/>
</g>
<defs>
<clipPath id="clip0_583_26">
<rect width="23" height="23" fill="white" transform="translate(11 11)"/>
</clipPath>
</defs>
</svg>
