<svg width="45" height="45" viewBox="0 0 45 45" fill="none" xmlns="http://www.w3.org/2000/svg">
<rect width="45" height="45" rx="22.5" fill="#FFE4D2"/>
<g clip-path="url(#clip0_583_31)">
<path d="M34.0002 22.2798C33.9259 22.7396 33.883 23.2033 33.7657 23.6516C33.668 24.0342 33.5313 24.4206 33.3398 24.7645C32.5466 26.1557 30.9914 25.9547 30.1004 25.3017C30.0457 25.2591 30.0145 25.1664 30.0027 25.093C29.7995 23.7791 29.5026 22.4884 28.9985 21.2596C27.7168 18.114 23.6256 17.2291 21.1091 19.5361C21.0348 19.6018 20.9176 19.6482 20.816 19.652C20.3354 19.6636 19.8587 19.6597 19.378 19.652C19.296 19.652 19.1983 19.6172 19.1397 19.567C18.3269 18.8251 17.3774 18.3884 16.2754 18.2647C16.2598 18.2647 16.2481 18.2531 16.2051 18.2377C16.2363 18.1102 16.2598 17.9749 16.2989 17.8474C16.4825 17.2368 16.6349 16.6185 16.8576 16.0234C17.8853 13.3107 21.453 12.6267 23.4458 14.7559C23.5591 14.8757 23.6686 14.9221 23.8327 14.9221C24.5595 14.9144 25.2863 14.9144 26.0131 14.9221C26.1538 14.9221 26.2436 14.8796 26.3374 14.7752C28.3381 12.5958 31.9878 13.3261 32.9725 16.1046C33.5 17.5846 33.8478 19.0994 33.9611 20.6683C33.965 20.734 33.9885 20.7959 34.0002 20.8616V22.2836V22.2798ZM20.8316 17.2948C20.8316 17.0629 20.8395 16.862 20.8316 16.6649C20.8238 16.549 20.8043 16.4253 20.7457 16.3287C20.6402 16.1432 20.4565 16.0737 20.2455 16.1239C20.0267 16.1741 19.8938 16.3248 19.8821 16.549C19.8704 16.7886 19.8821 17.032 19.8821 17.2986C19.6516 17.2986 19.4601 17.2986 19.2647 17.2986C18.8896 17.2986 18.6864 17.4687 18.6825 17.7662C18.6825 18.0638 18.8935 18.2415 19.2569 18.2415C19.4562 18.2415 19.6555 18.2415 19.8704 18.2415C19.8704 18.4541 19.8704 18.6396 19.8704 18.8251C19.8704 19.2038 20.0501 19.424 20.3471 19.4279C20.648 19.4279 20.8316 19.2038 20.8316 18.8328C20.8316 18.6434 20.8316 18.4541 20.8316 18.2454C21.0739 18.2454 21.2888 18.2454 21.5038 18.2454C21.8125 18.2377 22.0156 18.0522 22.0196 17.7778C22.0196 17.4996 21.8281 17.3141 21.5116 17.3064C21.2967 17.3025 21.0817 17.3064 20.8316 17.3064V17.2948ZM28.7367 17.7546C28.7328 17.4957 28.5061 17.2871 28.2365 17.2948C27.9786 17.3025 27.7754 17.5151 27.7793 17.774C27.7832 18.029 27.9981 18.2377 28.256 18.2377C28.5218 18.2377 28.7445 18.0174 28.7367 17.7546ZM29.9285 16.5876C29.9324 16.3287 29.737 16.1162 29.4752 16.1084C29.2134 16.0968 28.9829 16.3094 28.975 16.5722C28.9711 16.8233 29.1782 17.0397 29.4322 17.0475C29.7097 17.0552 29.9207 16.8581 29.9246 16.5876H29.9285ZM30.1786 17.7546C30.1786 18.0213 30.3896 18.2377 30.6553 18.2377C30.9093 18.2377 31.1242 18.029 31.1281 17.774C31.132 17.5073 30.921 17.2948 30.6514 17.2986C30.3896 17.2986 30.1825 17.4996 30.1786 17.7585V17.7546ZM29.9285 18.9371C29.9246 18.6821 29.7097 18.4734 29.4557 18.4734C29.1939 18.4734 28.9711 18.7014 28.975 18.9603C28.9829 19.2115 29.2017 19.424 29.4518 19.424C29.7175 19.424 29.9324 19.2038 29.9246 18.9371H29.9285Z" fill="#F97316"/>
<path d="M11 27.2184C11.0313 25.2901 11.3869 23.4198 12.0941 21.6267C13.1414 18.972 16.7012 18.3421 18.6432 20.4443C18.7565 20.5679 18.8699 20.6104 19.0301 20.6066C19.7491 20.5988 20.4681 20.5988 21.1871 20.6066C21.3316 20.6066 21.4332 20.5718 21.5348 20.4597C23.5629 18.2764 27.1891 19.0145 28.1777 21.8084C28.8342 23.6594 29.221 25.5568 29.1898 27.5237C29.1741 28.4704 29.0569 29.3979 28.6427 30.2674C28.1308 31.3455 27.068 31.7667 25.9504 31.3223C25.2548 31.0479 24.6726 30.5997 24.1842 30.0548C23.6957 29.5099 23.2542 28.9187 22.8009 28.3391C22.7188 28.2386 22.6485 28.1845 22.5117 28.1845C20.9018 28.1884 19.2919 28.1884 17.682 28.1845C17.5452 28.1845 17.467 28.2309 17.3928 28.3391C16.8575 29.1467 16.2557 29.9002 15.5093 30.5301C15.0678 30.905 14.595 31.2218 14.0323 31.3919C13.0085 31.701 12.0511 31.2837 11.5783 30.3292C11.1446 29.4443 11.0313 28.4975 11 27.5276C11 27.4232 11 27.3189 11 27.2184ZM15.0678 22.9793C14.849 22.9793 14.6614 22.9793 14.4777 22.9793C14.087 22.9793 13.876 23.1454 13.8721 23.4468C13.8721 23.7483 14.0909 23.9221 14.4699 23.9221C14.6614 23.9221 14.8529 23.9221 15.0678 23.9221C15.0678 24.154 15.06 24.3588 15.0678 24.5636C15.0756 24.6718 15.0912 24.7878 15.142 24.8805C15.2397 25.0621 15.4625 25.1394 15.6656 25.0853C15.8767 25.0273 16.0134 24.865 16.0212 24.6293C16.0291 24.3975 16.0212 24.1617 16.0212 23.9221C16.2518 23.9221 16.4472 23.9221 16.6425 23.9221C17.002 23.9221 17.2209 23.7367 17.217 23.443C17.213 23.157 17.002 22.9831 16.6543 22.9793C16.4472 22.9793 16.244 22.9793 16.0251 22.9793C16.0251 22.7435 16.0251 22.5426 16.0251 22.3455C16.0251 22.0093 15.8298 21.7929 15.5445 21.7929C15.2554 21.7929 15.0756 22.0016 15.0678 22.3455C15.0678 22.5426 15.0678 22.7435 15.0678 22.9793ZM20.0929 26.2832C20.2649 26.2832 20.4368 26.291 20.6087 26.2832C20.8588 26.2678 21.0425 26.0746 21.0542 25.8388C21.0659 25.5954 20.8784 25.3674 20.6244 25.3558C20.2727 25.3403 19.921 25.3403 19.5693 25.3558C19.3153 25.3674 19.1278 25.5915 19.1356 25.835C19.1434 26.0707 19.327 26.2678 19.5771 26.2871C19.7491 26.2987 19.921 26.2871 20.0929 26.2871V26.2832ZM25.122 24.637C25.122 24.3859 24.9188 24.1695 24.6609 24.1579C24.403 24.1463 24.1685 24.3704 24.1646 24.6255C24.1646 24.8728 24.3756 25.0969 24.6296 25.1046C24.8914 25.1124 25.1181 24.896 25.122 24.637ZM24.6335 22.7319C24.9071 22.7358 25.122 22.531 25.122 22.2644C25.122 22.0093 24.9149 21.7968 24.657 21.7929C24.3952 21.7852 24.1646 22.0054 24.1646 22.2644C24.1646 22.5155 24.3756 22.7281 24.6335 22.7319ZM22.9767 23.4468C22.9767 23.7057 23.176 23.9144 23.4339 23.9221C23.6957 23.9299 23.9263 23.7135 23.9263 23.4546C23.9263 23.1918 23.7074 22.9793 23.4378 22.9831C23.1721 22.9831 22.9728 23.1879 22.9728 23.4468H22.9767ZM25.8527 22.9831C25.5909 22.9831 25.3799 23.1763 25.3721 23.4352C25.3643 23.698 25.5753 23.9221 25.841 23.926C26.1067 23.926 26.3216 23.7135 26.3216 23.4468C26.3216 23.1879 26.1184 22.987 25.8527 22.9831Z" fill="#F97316"/>
</g>
<defs>
<clipPath id="clip0_583_31">
<rect width="23" height="18" fill="white" transform="translate(11 13.5)"/>
</clipPath>
</defs>
</svg>
