<svg width="39" height="39" viewBox="0 0 39 39" fill="none" xmlns="http://www.w3.org/2000/svg">
<path d="M19.5 37C19.927 37 20.3242 36.8022 21.1205 36.405L27.508 33.2253C30.3378 31.82 31.75 31.1148 31.75 30V16M19.5 37C19.073 37 18.6758 36.8022 17.8795 36.405L11.492 33.2253C8.66225 31.82 7.25 31.1148 7.25 30V16M19.5 37V23M31.75 16C31.75 14.8852 30.336 14.1817 27.5097 12.7747L21.1205 9.59325C20.3225 9.19775 19.927 9 19.5 9M31.75 16C31.75 17.1148 30.336 17.8183 27.5097 19.2253L21.1205 22.4068C20.3242 22.8023 19.927 23 19.5 23M7.25 16C7.25 14.8852 8.66225 14.18 11.492 12.7747L17.8795 9.595C18.6758 9.19775 19.073 9 19.5 9M7.25 16C7.25 17.1148 8.664 17.8183 11.4902 19.2253L17.8795 22.4068C18.6758 22.8023 19.073 23 19.5 23M19.5 9V2M37 35.25L31.75 30.875M2 35.25L7.25 30.875" stroke="black" stroke-width="1.5" stroke-linecap="round" stroke-linejoin="round"/>
</svg>
