<svg width="676" height="730" viewBox="0 0 676 730" fill="none" xmlns="http://www.w3.org/2000/svg">
<path d="M673 171C654.144 169.236 617.422 174.849 596.214 205.685C585.683 220.997 584.5 240.428 584.5 259.011V502.5C585.333 525.167 602.1 569.6 662.5 566" stroke="url(#paint0_linear_779_2826)" stroke-width="6" stroke-linecap="round" stroke-linejoin="round"/>
<path d="M583 230.5H439C414 228 357.2 214.3 330 179.5L162.5 3" stroke="url(#paint1_linear_779_2826)" stroke-width="6" stroke-linecap="round" stroke-linejoin="round"/>
<path d="M583 307H439C414 304.5 357.2 290.8 330 256L162.5 79.5" stroke="url(#paint2_linear_779_2826)" stroke-width="6" stroke-linecap="round" stroke-linejoin="round"/>
<path d="M583 425.5H439C414 428 357.2 441.7 330 476.5L162.5 653" stroke="url(#paint3_linear_779_2826)" stroke-width="6" stroke-linecap="round" stroke-linejoin="round"/>
<path d="M583 499.5H439C414 502 357.2 515.7 330 550.5L162.5 727" stroke="url(#paint4_linear_779_2826)" stroke-width="6" stroke-linecap="round" stroke-linejoin="round"/>
<path d="M583 368H439H385.5M385.5 368C364.667 361.667 315.7 341.3 286.5 310.5L68.5 93M385.5 368C359.333 373.833 300.7 393.8 275.5 427L3 701.5" stroke="url(#paint5_linear_779_2826)" stroke-width="6" stroke-linecap="round" stroke-linejoin="round"/>
<defs>
<linearGradient id="paint0_linear_779_2826" x1="628.75" y1="170.709" x2="628.75" y2="566.206" gradientUnits="userSpaceOnUse">
<stop stop-color="#E5E5E5"/>
<stop offset="1" stop-color="#E2EFFF"/>
</linearGradient>
<linearGradient id="paint1_linear_779_2826" x1="583" y1="230.5" x2="233" y2="52.5" gradientUnits="userSpaceOnUse">
<stop stop-color="#E5E5E5"/>
<stop offset="1" stop-color="#E2EFFF" stop-opacity="0.3"/>
</linearGradient>
<linearGradient id="paint2_linear_779_2826" x1="583" y1="307" x2="233" y2="129" gradientUnits="userSpaceOnUse">
<stop stop-color="#E5E5E5"/>
<stop offset="1" stop-color="#E2EFFF" stop-opacity="0.3"/>
</linearGradient>
<linearGradient id="paint3_linear_779_2826" x1="183.5" y1="635" x2="558" y2="411" gradientUnits="userSpaceOnUse">
<stop stop-color="#E5E5E5" stop-opacity="0.3"/>
<stop offset="1" stop-color="#E2EFFF"/>
</linearGradient>
<linearGradient id="paint4_linear_779_2826" x1="214" y1="686.5" x2="555.5" y2="496.5" gradientUnits="userSpaceOnUse">
<stop stop-color="#E5E5E5" stop-opacity="0.3"/>
<stop offset="1" stop-color="#E2EFFF"/>
</linearGradient>
<linearGradient id="paint5_linear_779_2826" x1="27.5" y1="380.5" x2="850" y2="373" gradientUnits="userSpaceOnUse">
<stop stop-color="#E5E5E5" stop-opacity="0.35"/>
<stop offset="1" stop-color="#E2EFFF"/>
</linearGradient>
</defs>
</svg>
