<svg width="676" height="730" viewBox="0 0 676 730" fill="none" xmlns="http://www.w3.org/2000/svg">
<path d="M3 171C21.8562 169.236 58.5777 174.849 79.7862 205.685C90.317 220.997 91.5 240.428 91.5 259.011V502.5C90.6667 525.167 73.9 569.6 13.5 566" stroke="url(#paint0_linear_779_2827)" stroke-width="6" stroke-linecap="round" stroke-linejoin="round"/>
<path d="M93 230.5H237C262 228 318.8 214.3 346 179.5L513.5 3" stroke="url(#paint1_linear_779_2827)" stroke-width="6" stroke-linecap="round" stroke-linejoin="round"/>
<path d="M93 307H237C262 304.5 318.8 290.8 346 256L513.5 79.5" stroke="url(#paint2_linear_779_2827)" stroke-width="6" stroke-linecap="round" stroke-linejoin="round"/>
<path d="M93 425.5H237C262 428 318.8 441.7 346 476.5L513.5 653" stroke="url(#paint3_linear_779_2827)" stroke-width="6" stroke-linecap="round" stroke-linejoin="round"/>
<path d="M93 499.5H237C262 502 318.8 515.7 346 550.5L513.5 727" stroke="url(#paint4_linear_779_2827)" stroke-width="6" stroke-linecap="round" stroke-linejoin="round"/>
<path d="M93 368H237H290.5M290.5 368C311.333 361.667 360.3 341.3 389.5 310.5L607.5 93M290.5 368C316.667 373.833 375.3 393.8 400.5 427L673 701.5" stroke="url(#paint5_linear_779_2827)" stroke-width="6" stroke-linecap="round" stroke-linejoin="round"/>
<defs>
<linearGradient id="paint0_linear_779_2827" x1="47.25" y1="170.709" x2="47.25" y2="566.206" gradientUnits="userSpaceOnUse">
<stop stop-color="#E5E5E5"/>
<stop offset="1" stop-color="#E2EFFF"/>
</linearGradient>
<linearGradient id="paint1_linear_779_2827" x1="93" y1="230.5" x2="443" y2="52.5" gradientUnits="userSpaceOnUse">
<stop stop-color="#E5E5E5"/>
<stop offset="1" stop-color="#E2EFFF" stop-opacity="0.3"/>
</linearGradient>
<linearGradient id="paint2_linear_779_2827" x1="93" y1="307" x2="443" y2="129" gradientUnits="userSpaceOnUse">
<stop stop-color="#E5E5E5"/>
<stop offset="1" stop-color="#E2EFFF" stop-opacity="0.3"/>
</linearGradient>
<linearGradient id="paint3_linear_779_2827" x1="492.5" y1="635" x2="118" y2="411" gradientUnits="userSpaceOnUse">
<stop stop-color="#E5E5E5" stop-opacity="0.3"/>
<stop offset="1" stop-color="#E2EFFF"/>
</linearGradient>
<linearGradient id="paint4_linear_779_2827" x1="462" y1="686.5" x2="120.5" y2="496.5" gradientUnits="userSpaceOnUse">
<stop stop-color="#E5E5E5" stop-opacity="0.3"/>
<stop offset="1" stop-color="#E2EFFF"/>
</linearGradient>
<linearGradient id="paint5_linear_779_2827" x1="648.5" y1="380.5" x2="-174" y2="373" gradientUnits="userSpaceOnUse">
<stop stop-color="#E5E5E5" stop-opacity="0.35"/>
<stop offset="1" stop-color="#E2EFFF"/>
</linearGradient>
</defs>
</svg>
