<svg width="200" height="200" viewBox="0 0 200 200" fill="none" xmlns="http://www.w3.org/2000/svg">
<g clip-path="url(#clip0_912_690)">
<path d="M122.613 131.832C125.275 131.832 127.471 130.124 128.446 127.213C134.104 110.316 139.763 93.4045 145.377 76.4929C145.697 75.5228 145.886 74.4223 145.785 73.4233C145.508 70.5709 143.224 68.4424 140.373 68.1818C137.697 67.9357 135.137 69.6732 134.177 72.5256C131.311 80.9959 128.49 89.4807 125.653 97.9655C122.788 106.508 119.908 115.036 117.086 123.579C115.689 127.822 118.409 131.832 122.599 131.818L122.613 131.832ZM162.629 100.007C158.236 104.365 154.003 108.535 149.814 112.734C147.152 115.398 147.05 119.047 149.508 121.465C151.908 123.825 155.559 123.753 158.148 121.19C163.778 115.63 169.407 110.041 174.992 104.423C177.698 101.701 177.698 98.2985 174.978 95.5619C169.392 89.944 163.792 84.3551 158.119 78.824C157.276 77.9987 156.097 77.3182 154.963 77.0286C152.301 76.3481 149.77 77.5788 148.49 79.8665C147.21 82.1542 147.603 85.0211 149.581 87.0047C153.857 91.3051 158.163 95.5475 162.643 99.9926L162.629 100.007ZM100.023 100.036C100.62 99.4134 101.085 98.9211 101.551 98.4433C105.318 94.6787 109.129 90.9576 112.867 87.164C115.413 84.5867 115.457 80.8945 113.071 78.5489C110.686 76.1888 107.005 76.2612 104.416 78.824C98.7725 84.3985 93.1578 89.9874 87.5722 95.6054C84.8376 98.3419 84.8813 101.687 87.6159 104.467C90.2196 107.116 92.8815 109.723 95.5142 112.343C98.5834 115.398 101.594 118.526 104.751 121.494C108.038 124.578 113.231 123.246 114.526 119.047C115.297 116.557 114.526 114.457 112.693 112.647C108.504 108.521 104.344 104.365 100.009 100.05L100.023 100.036Z" fill="white"/>
<path d="M137.086 60.5368C131.006 62.0426 127.646 66.0823 125.988 71.8595C125.115 74.9291 123.981 77.9263 123.021 80.8221C122.046 78.7516 121.348 76.5073 120.068 74.6685C115.442 68.0515 105.871 66.7773 99.9509 72.2649C93.4053 78.3172 87.107 84.6446 80.9978 91.1313C76.3285 96.0832 76.3285 103.931 80.9978 108.897C87.107 115.384 93.5362 121.567 99.9364 127.793C102.176 129.979 105.115 130.935 108.242 131.079C109.275 131.123 109.828 131.398 110.366 132.354C113.275 137.523 117.799 140.114 123.733 139.637C129.493 139.173 133.479 136.017 135.632 130.645C136.054 129.574 136.417 128.488 137.086 127.445C137.13 127.822 137.188 128.212 137.188 128.589C137.188 140.013 137.246 151.452 137.188 162.876C137.115 174.184 129.813 182.828 118.831 184.725C117.377 184.971 115.864 185 114.38 185C91.2234 185.014 68.0811 185.029 44.9242 185C31.3093 184.971 22 175.719 22 162.181C22 120.596 22 79.0267 22 37.457C22 25.9895 29.3456 17.2006 40.4586 15.2749C41.855 15.0432 43.3096 15.0143 44.7351 15.0143C68.0084 14.9998 91.2816 14.9998 114.555 15.0143C126.206 15.0143 134.934 22.1815 136.912 33.258C137.13 34.4598 137.188 35.7195 137.188 36.9502C137.217 44.3636 137.203 51.7769 137.188 59.1902C137.188 59.6101 137.13 60.03 137.086 60.5223V60.5368ZM48.037 26.9596C48.1824 27.4664 48.2552 27.8863 48.4152 28.2627C49.8552 31.868 51.237 35.5023 52.7789 39.0787C54.888 44.0016 58.7136 46.5644 64.0955 46.5934C74.4521 46.6513 84.8233 46.6513 95.1799 46.5934C100.562 46.5644 104.373 43.9581 106.482 39.0352C108.009 35.4589 109.406 31.8391 110.831 28.2193C110.977 27.8428 111.035 27.4374 111.151 26.9451H48.037V26.9596ZM79.7468 153.392C74.5394 153.392 69.332 153.377 64.1246 153.392C60.4591 153.406 57.8117 155.853 57.7681 159.227C57.7099 162.658 60.4009 165.236 64.1246 165.25C74.4085 165.265 84.7069 165.265 94.9908 165.25C98.7873 165.25 101.42 162.789 101.42 159.328C101.42 155.868 98.7873 153.421 94.9908 153.406C89.9143 153.392 84.8233 153.406 79.7468 153.406V153.392Z" fill="url(#paint0_linear_912_690)"/>
<path d="M122.614 131.832C118.425 131.832 115.69 127.836 117.101 123.594C119.923 115.037 122.803 106.508 125.669 97.9801C128.505 89.4953 131.327 81.0105 134.193 72.5402C135.153 69.6878 137.713 67.9503 140.389 68.1965C143.225 68.4571 145.524 70.5855 145.8 73.4379C145.902 74.437 145.713 75.5374 145.393 76.5075C139.778 93.4192 134.12 110.331 128.461 127.228C127.487 130.138 125.291 131.832 122.629 131.847L122.614 131.832Z" fill="url(#paint1_linear_912_690)"/>
<path d="M162.615 100.007C158.135 95.5622 153.829 91.3198 149.553 87.0195C147.574 85.0213 147.182 82.1689 148.462 79.8812C149.742 77.5935 152.273 76.3628 154.935 77.0433C156.069 77.3329 157.247 78.0134 158.091 78.8387C163.764 84.3698 169.364 89.9587 174.95 95.5767C177.67 98.3132 177.684 101.701 174.964 104.438C169.379 110.056 163.764 115.63 158.12 121.205C155.531 123.768 151.88 123.854 149.48 121.48C147.022 119.062 147.138 115.413 149.785 112.749C153.975 108.55 158.207 104.38 162.6 100.022L162.615 100.007Z" fill="url(#paint2_linear_912_690)"/>
<path d="M100.025 100.036C104.359 104.351 108.519 108.506 112.708 112.633C114.541 114.443 115.298 116.542 114.541 119.033C113.247 123.232 108.054 124.564 104.766 121.48C101.61 118.511 98.599 115.384 95.5299 112.329C92.8971 109.708 90.2352 107.102 87.6315 104.452C84.8969 101.672 84.8533 98.3275 87.5879 95.5909C93.1734 89.973 98.7881 84.3841 104.432 78.8096C107.021 76.2612 110.701 76.1888 113.087 78.5345C115.472 80.8801 115.429 84.5723 112.883 87.1496C109.145 90.9431 105.348 94.6787 101.566 98.4289C101.086 98.9067 100.635 99.399 100.039 100.022L100.025 100.036Z" fill="url(#paint3_linear_912_690)"/>
</g>
<defs>
<linearGradient id="paint0_linear_912_690" x1="79.607" y1="15.0034" x2="79.607" y2="185.017" gradientUnits="userSpaceOnUse">
<stop stop-color="#F5C835"/>
<stop offset="1" stop-color="#E57331"/>
</linearGradient>
<linearGradient id="paint1_linear_912_690" x1="131.277" y1="68.1733" x2="131.277" y2="131.847" gradientUnits="userSpaceOnUse">
<stop stop-color="#F5C835"/>
<stop offset="1" stop-color="#E57331"/>
</linearGradient>
<linearGradient id="paint2_linear_912_690" x1="162.356" y1="76.8564" x2="162.356" y2="123.196" gradientUnits="userSpaceOnUse">
<stop stop-color="#F5C835"/>
<stop offset="1" stop-color="#E57331"/>
</linearGradient>
<linearGradient id="paint3_linear_912_690" x1="100.197" y1="76.8345" x2="100.197" y2="123.168" gradientUnits="userSpaceOnUse">
<stop stop-color="#F5C835"/>
<stop offset="1" stop-color="#E57331"/>
</linearGradient>
<clipPath id="clip0_912_690">
<rect width="155" height="170" fill="white" transform="translate(22 15)"/>
</clipPath>
</defs>
</svg>
