<svg width="200" height="200" viewBox="0 0 200 200" fill="none" xmlns="http://www.w3.org/2000/svg">
<g clip-path="url(#clip0_912_707)">
<path d="M109.941 94.5515C109.661 94.3549 109.52 94.2425 109.38 94.1442C108.722 93.6808 108.077 93.2034 107.405 92.7681C91.1656 82.4186 73.7074 79.6944 55.5907 86.1399C32.2337 94.4532 18.7688 111.403 15.2099 136.061C14.4393 141.426 15.7564 142.788 21.1788 142.788C42.8123 142.788 64.4319 142.746 86.0654 142.844C88.5455 142.844 90.3809 142.563 91.0535 139.881C91.1235 139.614 91.4598 139.404 91.4738 139.151C91.5299 138.308 91.8101 137.255 91.4318 136.665C85.5891 127.762 90.0587 114.127 99.9367 110.518C100.539 110.293 101.282 109.437 101.324 108.833C101.772 102.696 104.757 98.1183 109.941 94.5655V94.5515ZM42.2379 47.3261C42.2098 65.1462 56.6556 79.6523 74.5061 79.7084C92.3425 79.7786 106.83 65.3428 106.872 47.4525C106.914 29.4639 92.4967 14.986 74.5481 15C56.6976 15.0141 42.2519 29.4639 42.2238 47.3261H42.2379Z" fill="white"/>
<path d="M109.941 94.5516C104.757 98.1044 101.772 102.682 101.324 108.819C101.282 109.423 100.539 110.279 99.9367 110.504C90.0727 114.113 85.5891 127.748 91.4318 136.651C91.8241 137.241 91.5299 138.308 91.4738 139.137C91.4598 139.39 91.1095 139.6 91.0535 139.867C90.3809 142.549 88.5455 142.844 86.0654 142.83C64.4319 142.732 42.8123 142.774 21.1788 142.774C15.7564 142.774 14.4393 141.426 15.2099 136.048C18.7688 111.403 32.2337 94.4393 55.5767 86.1401C73.6934 79.6945 91.1656 82.4188 107.391 92.7682C108.063 93.2035 108.708 93.681 109.366 94.1444C109.506 94.2427 109.647 94.341 109.927 94.5516H109.941Z" fill="url(#paint0_linear_912_707)"/>
<path d="M94.2344 147.324C94.6547 146.172 95.1031 144.066 96.1259 142.283C97.8353 139.263 97.8913 136.511 96.0979 133.534C92.2448 127.145 95.005 118.663 101.857 115.756C105.037 114.408 106.662 112.175 106.957 108.693C107.587 101.264 114.873 95.9981 122.075 97.7113C125.452 98.5117 128.086 97.6551 130.356 95.001C135.19 89.3559 144.143 89.384 149.019 95.0572C151.303 97.7112 153.951 98.4976 157.314 97.6972C164.361 96.0261 171.661 101.222 172.292 108.426C172.614 112.077 174.267 114.45 177.686 115.868C184.271 118.621 187.06 127.173 183.361 133.295C181.455 136.455 181.455 139.334 183.361 142.479C187.06 148.602 184.299 157.154 177.714 159.92C174.295 161.352 172.628 163.698 172.306 167.349C171.661 174.567 164.389 179.776 157.342 178.091C153.895 177.263 151.233 178.161 148.921 180.858C144.143 186.419 135.12 186.39 130.384 180.816C128.128 178.161 125.494 177.277 122.117 178.077C114.845 179.804 107.573 174.496 106.957 166.955C106.676 163.613 105.121 161.395 102.053 160.131C96.8125 157.954 94.7108 153.713 94.2624 147.352L94.2344 147.324ZM111.482 137.648C111.244 152.997 123.756 165.888 139.155 166.155C154.595 166.422 167.556 153.98 167.808 138.66C168.074 122.848 155.814 109.914 140.332 109.662C124.499 109.395 111.721 121.794 111.482 137.663V137.648Z" fill="url(#paint1_linear_912_707)"/>
<path d="M42.2367 47.3261C42.2647 29.4639 56.6964 15.0141 74.5469 15C92.4955 14.986 106.899 29.4639 106.857 47.4666C106.815 65.3569 92.3274 79.7786 74.4909 79.7225C56.6404 79.6523 42.1947 65.1603 42.2227 47.3402L42.2367 47.3261Z" fill="url(#paint2_linear_912_707)"/>
<path d="M134.922 139.347C138.971 135.373 142.698 131.736 146.425 128.085C147.126 127.397 147.784 126.695 148.485 126.007C150.642 123.914 153.739 123.816 155.742 125.74C157.802 127.734 157.76 130.88 155.616 133.126C153.753 135.078 151.833 136.974 149.942 138.884C146.481 142.395 143.02 145.919 139.545 149.402C136.799 152.154 134.109 152.154 131.307 149.43C128.841 147.029 126.361 144.641 123.923 142.212C121.555 139.867 121.401 136.848 123.488 134.727C125.562 132.621 128.644 132.705 130.97 135.022C132.358 136.398 133.619 137.887 134.936 139.333L134.922 139.347Z" fill="url(#paint3_linear_912_707)"/>
</g>
<defs>
<linearGradient id="paint0_linear_912_707" x1="62.4743" y1="82.6719" x2="62.4743" y2="142.831" gradientUnits="userSpaceOnUse">
<stop stop-color="#F5C835"/>
<stop offset="1" stop-color="#E57331"/>
</linearGradient>
<linearGradient id="paint1_linear_912_707" x1="139.626" y1="90.7847" x2="139.626" y2="185.013" gradientUnits="userSpaceOnUse">
<stop stop-color="#F5C835"/>
<stop offset="1" stop-color="#E57331"/>
</linearGradient>
<linearGradient id="paint2_linear_912_707" x1="74.54" y1="15" x2="74.54" y2="79.7226" gradientUnits="userSpaceOnUse">
<stop stop-color="#F5C835"/>
<stop offset="1" stop-color="#E57331"/>
</linearGradient>
<linearGradient id="paint3_linear_912_707" x1="139.642" y1="124.364" x2="139.642" y2="151.47" gradientUnits="userSpaceOnUse">
<stop stop-color="#F5C835"/>
<stop offset="1" stop-color="#E57331"/>
</linearGradient>
<clipPath id="clip0_912_707">
<rect width="170" height="170" fill="white" transform="translate(15 15)"/>
</clipPath>
</defs>
</svg>
