<svg width="200" height="200" viewBox="0 0 200 200" fill="none" xmlns="http://www.w3.org/2000/svg">
<g clip-path="url(#clip0_1034_113)">
<path d="M161.87 93.0009C165.452 101.668 167.23 110.624 166.976 119.975C166.173 149.835 143.911 176.616 114.272 183.314C98.1419 186.959 82.8296 184.651 68.2693 176.935C67.0246 176.277 66.6994 175.609 67.05 174.272C67.4767 172.632 67.7104 170.931 67.9187 169.24C68.2845 166.319 69.4225 163.747 71.4648 161.651C75.5901 157.424 77.4393 152.401 77.2514 146.539C77.1396 143.132 77.3123 139.714 77.165 136.307C76.8246 128.475 71.0736 122.101 63.2803 121.144C59.4751 120.679 56.5184 119.124 53.902 116.375C48.4101 110.599 42.715 105.015 37.1672 99.2888C36.6795 98.7825 36.3035 97.6839 36.5118 97.0713C40.6168 84.7791 47.7344 74.5373 57.7986 66.3358C57.9358 66.2244 58.1288 66.1788 58.4032 66.0522C62.0966 70.1024 65.8053 74.1627 69.5038 78.228C72.3996 81.4074 75.331 84.5614 78.1709 87.7914C81.0464 91.0569 84.6027 92.768 88.9464 93.0414C94.0522 93.3604 96.8718 96.4233 96.887 101.527C96.9023 106.706 97.014 111.89 96.821 117.064C96.7549 118.805 96.2723 120.79 95.2969 122.192C89.8456 130.045 91.8168 139.178 97.8675 145.329C103.131 150.68 109.273 153.465 116.731 151.035C119.459 150.149 122.081 148.402 124.255 146.488C129.046 142.266 133.42 137.573 138.165 133.295C141.625 130.176 143.118 126.369 143.266 121.899C143.357 119.124 143.306 116.34 143.306 113.561C143.306 111.439 143.962 109.546 145.501 108.083C150.734 103.116 156.018 98.2054 161.286 93.2794C161.413 93.1629 161.611 93.1224 161.87 93.0009Z" fill="#E77B32"/>
<path d="M63.3555 62.3715C68.5171 58.8884 73.9938 56.357 79.8057 54.5547C82.3408 53.77 84.9572 53.2688 87.5279 52.6056C88.5491 52.3423 89.0876 52.6714 89.6159 53.6131C95.118 63.4144 100.6 73.2259 106.249 82.9463C112.467 93.6387 127.079 93.6792 133.454 83.0729C136.604 77.8279 139.617 72.502 142.975 66.7305C146.044 69.9554 149.138 72.8412 151.79 76.0914C154.218 79.0632 156.138 82.435 158.338 85.5991C159.065 86.642 158.856 87.2901 157.947 88.1254C152.684 92.9653 147.512 97.9065 142.238 102.736C138.86 105.83 137.128 109.556 137.199 114.127C137.239 116.78 137.26 119.433 137.189 122.086C137.128 124.577 136.233 126.693 134.349 128.465C129.507 133.016 124.777 137.684 119.976 142.276C114.987 147.045 108.774 147.07 103.694 142.352C102.586 141.324 101.529 140.21 100.595 139.026C97.775 135.462 97.0282 131.386 99.4566 127.554C102.647 122.506 103.313 117.165 103.013 111.444C102.83 107.915 103.013 104.372 102.967 100.833C102.866 93.264 97.2416 87.4166 89.6312 87.0066C86.8878 86.8597 84.6524 85.8978 82.793 83.8323C76.6102 76.9673 70.3664 70.163 64.148 63.3334C63.9042 63.0651 63.6806 62.7715 63.3555 62.3715Z" fill="#E77B32"/>
<path d="M120.429 15.0001C138.825 14.8735 151.343 35.5495 142.59 51.9628C137.606 61.3136 132.134 70.4112 126.708 79.519C123.548 84.8247 116.177 84.7892 113.027 79.4835C107.774 70.639 102.455 61.8198 97.6183 52.7526C86.8631 32.5929 103.486 14.8887 120.429 15.0001ZM106.016 40.4148C105.996 48.0696 112.245 54.4283 119.794 54.4435C127.714 54.4587 133.745 48.4493 133.77 40.5262C133.796 32.598 127.846 26.5734 119.901 26.4772C112.412 26.3911 106.036 32.7904 106.011 40.4148H106.016Z" fill="#F5C835"/>
<path d="M61.1689 172.348C37.7687 156.244 29.3149 127.417 34.4359 105.379C34.949 105.855 35.4114 106.255 35.8381 106.685C40.7356 111.631 45.6585 116.552 50.5204 121.534C53.5534 124.642 57.13 126.475 61.4991 126.961C67.6565 127.645 71.0959 131.588 71.1416 137.78C71.1671 140.939 71.0654 144.098 71.167 147.252C71.2687 150.437 70.278 153.206 68.4084 155.717C67.9563 156.325 67.5447 156.973 67.0367 157.53C63.7243 161.17 61.936 165.448 61.5347 170.333C61.4839 170.946 61.3162 171.553 61.1689 172.343V172.348Z" fill="#E77B32"/>
<path d="M112.103 40.4956C112.093 36.1872 115.634 32.5623 119.876 32.5421C124.108 32.5218 127.694 36.1416 127.705 40.4449C127.715 44.7482 124.169 48.368 119.921 48.3832C115.674 48.3984 112.113 44.8039 112.098 40.4956H112.103Z" fill="#E77B32"/>
</g>
<defs>
<clipPath id="clip0_1034_113">
<rect width="134" height="170" fill="white" transform="translate(33 15)"/>
</clipPath>
</defs>
</svg>
