<svg width="200" height="200" viewBox="0 0 200 200" fill="none" xmlns="http://www.w3.org/2000/svg">
<g clip-path="url(#clip0_913_722)">
<path d="M153.349 95.9346C148.296 96.1751 143.425 96.1901 138.613 96.6861C132.854 97.2722 128.794 100.383 126.614 105.824C126.268 106.681 125.877 107.507 125.502 108.349C123.622 108.169 121.848 107.853 120.073 107.883C115.908 107.958 112.405 109.597 109.668 112.768C105.954 117.051 103.158 121.876 101.053 127.136C98.8121 132.742 99.4286 137.912 103.338 142.541C104.496 143.909 104.586 144.841 103.368 146.254C99.4437 150.853 98.8121 156.023 101.038 161.644C103.128 166.919 105.909 171.759 109.653 176.012C112.871 179.695 116.961 181.348 121.878 180.822C123.036 180.702 124.193 180.566 125.502 180.431C126.103 181.829 126.689 183.227 127.381 184.865C126.539 184.865 125.938 184.865 125.351 184.865C96.1357 184.865 66.9202 184.865 37.6897 184.865C25.9765 184.865 17.2103 177.726 15.2707 166.604C15.015 165.161 15 163.658 15 162.17C15 120.688 15 79.2066 15 37.7249C15 26.0018 22.1422 17.2545 33.2691 15.3157C34.7877 15.0602 36.3515 15.0452 37.8852 15.0452C59.763 15.0302 81.6257 15.0753 103.488 15.0001C108.165 14.9851 111.969 16.5632 115.247 19.8547C126.298 30.9916 137.395 42.0684 148.537 53.1152C151.845 56.3917 153.424 60.2092 153.379 64.8834C153.289 74.6977 153.349 84.5121 153.349 94.3264V95.9196V95.9346ZM80.1371 94.0258C90.6324 94.0258 101.128 94.0409 111.623 94.0258C115.111 94.0258 117.728 91.4708 117.758 88.1793C117.788 84.8878 115.187 82.1975 111.758 82.1975C90.7076 82.1675 69.6568 82.1825 48.591 82.1975C46.531 82.1975 44.862 83.0542 43.7042 84.7526C42.4261 86.6313 42.2307 88.6753 43.2682 90.7193C44.4109 92.9437 46.3055 94.0409 48.8166 94.0409C59.2517 94.0409 69.6869 94.0409 80.1221 94.0409L80.1371 94.0258ZM104.045 29.3233C104.015 29.9095 103.97 30.3754 103.97 30.8564C103.97 39.1828 103.955 47.5242 103.97 55.8506C103.985 61.1861 107.187 64.3724 112.51 64.3874C120.84 64.3874 129.185 64.3874 137.515 64.3874C138.042 64.3874 138.553 64.3273 139.064 64.2973C127.381 52.6343 115.773 41.0464 104.045 29.3384V29.3233ZM66.2737 149.305C71.9574 149.305 77.6411 149.32 83.3098 149.29C84.2871 149.29 85.3096 149.215 86.2118 148.914C88.9634 147.967 90.467 145.187 89.9708 142.271C89.4746 139.415 86.9636 137.476 83.6105 137.476C72.1228 137.446 60.6501 137.446 49.1624 137.476C45.3733 137.476 42.6968 139.956 42.6517 143.368C42.6066 146.825 45.3131 149.305 49.2376 149.32C54.9213 149.335 60.605 149.32 66.2737 149.32V149.305ZM66.4391 109.867C66.4391 109.867 66.4391 109.867 66.4391 109.852C60.7554 109.852 55.0716 109.852 49.403 109.852C48.4858 109.852 47.5234 109.897 46.6664 110.168C43.9598 111.024 42.2908 113.805 42.7269 116.525C43.2231 119.636 45.5838 121.65 48.982 121.665C60.59 121.695 72.1979 121.695 83.8059 121.65C84.8735 121.65 86.0313 121.365 86.9936 120.884C89.3844 119.696 90.5422 116.886 89.9107 114.286C89.3092 111.806 87.0839 109.897 84.4074 109.867C78.423 109.807 72.4235 109.852 66.4391 109.852V109.867Z" fill="url(#paint0_linear_913_722)"/>
<path d="M146.086 185C143.846 184.745 141.395 184.534 138.959 184.189C136.553 183.858 134.929 182.475 134.027 180.221C133.441 178.733 132.809 177.26 132.193 175.787C131.05 173.022 129.035 171.879 126.118 172.315C125.381 172.42 124.629 172.405 123.923 172.616C119.111 173.999 115.728 172.12 113.412 168.002C111.548 164.68 109.773 161.314 108.15 157.857C107.157 155.753 107.593 153.633 109.037 151.77C109.984 150.552 110.916 149.32 111.848 148.102C113.954 145.352 113.954 143.458 111.848 140.693C110.871 139.415 109.894 138.153 108.931 136.875C107.608 135.117 107.338 133.178 108.044 131.104C109.713 126.204 112.284 121.816 115.668 117.893C116.961 116.405 118.6 115.654 120.585 115.819C122.239 115.954 123.908 116.15 125.546 116.39C129.291 116.946 130.899 116.044 132.358 112.497C132.824 111.355 133.35 110.243 133.756 109.086C134.779 106.2 136.839 104.562 139.816 104.456C144.116 104.306 148.432 104.306 152.717 104.456C155.709 104.562 157.769 106.185 158.792 109.071C159.243 110.348 159.814 111.581 160.325 112.828C161.603 115.909 163.453 116.931 166.821 116.405C167.438 116.315 168.069 116.345 168.655 116.18C173.452 114.782 176.85 116.661 179.166 120.794C180.97 124.01 182.729 127.256 184.323 130.578C185.451 132.938 185.015 135.252 183.331 137.311C182.399 138.453 181.526 139.656 180.624 140.843C178.67 143.413 178.67 145.382 180.624 147.937C181.632 149.26 182.654 150.582 183.647 151.92C184.97 153.678 185.24 155.632 184.534 157.691C182.85 162.591 180.278 166.98 176.91 170.902C175.617 172.39 173.978 173.142 171.994 172.976C170.34 172.841 168.67 172.646 167.032 172.405C163.378 171.864 161.679 172.796 160.295 176.133C159.799 177.32 159.243 178.507 158.822 179.725C157.799 182.61 155.739 184.083 152.747 184.384C150.597 184.594 148.447 184.79 146.056 185.015L146.086 185ZM158.16 144.465C158.19 137.897 152.882 132.562 146.327 132.562C139.786 132.562 134.433 137.897 134.448 144.435C134.448 150.898 139.741 156.203 146.191 156.264C152.747 156.309 158.13 151.018 158.145 144.48L158.16 144.465Z" fill="url(#paint1_linear_913_722)"/>
</g>
<defs>
<linearGradient id="paint0_linear_913_722" x1="84.1898" y1="15" x2="84.1898" y2="184.865" gradientUnits="userSpaceOnUse">
<stop stop-color="#F5C835"/>
<stop offset="1" stop-color="#E57331"/>
</linearGradient>
<linearGradient id="paint1_linear_913_722" x1="146.281" y1="104.344" x2="146.281" y2="185.015" gradientUnits="userSpaceOnUse">
<stop stop-color="#F5C835"/>
<stop offset="1" stop-color="#E57331"/>
</linearGradient>
<clipPath id="clip0_913_722">
<rect width="170" height="170" fill="white" transform="translate(15 15)"/>
</clipPath>
</defs>
</svg>
