<svg width="200" height="200" viewBox="0 0 200 200" fill="none" xmlns="http://www.w3.org/2000/svg">
<g clip-path="url(#clip0_912_671)">
<path d="M99.9723 160.974C112.949 160.974 125.926 160.974 138.903 160.974C142.8 160.974 145.398 158.832 145.464 155.228C145.543 150.75 145.648 146.218 145.123 141.779C142.551 120.207 125.218 103.846 103.371 102.122C82.862 100.49 63.5868 113.195 56.9474 132.573C54.5593 139.533 54.4019 146.676 54.4806 153.883C54.5331 158.793 56.6718 160.974 61.6055 160.987C74.3988 160.987 87.1921 160.987 99.9854 160.987L99.9723 160.974ZM99.9591 39C83.5312 39.0262 70.2918 52.2669 70.3443 68.6284C70.3836 84.8072 83.8068 98.0871 100.051 98.0479C116.413 98.0087 129.718 84.6635 129.666 68.3542C129.613 52.1232 116.308 38.9739 99.9591 39ZM151.329 110.44C163.519 110.479 173.425 100.738 173.478 88.6331C173.53 76.4501 163.624 66.5 151.434 66.4869C139.376 66.4869 129.351 76.424 129.325 88.4373C129.298 100.503 139.192 110.388 151.329 110.44ZM48.6285 110.44C60.7788 110.427 70.6854 100.568 70.6854 88.5026C70.6854 76.4762 60.7263 66.5392 48.6416 66.4869C36.4781 66.4478 26.4928 76.4109 26.5321 88.5809C26.5715 100.686 36.4387 110.453 48.6285 110.44ZM46.7784 160.974C42.1859 153.857 42.1596 146.467 43.275 138.906C44.3772 131.45 47.0145 124.516 51.0166 117.569C48.2873 117.752 46.0698 117.804 43.8785 118.053C27.5687 119.946 14.408 135.25 15.0247 151.559C15.2216 156.678 19.2236 160.778 24.3671 160.922C29.3663 161.052 34.3656 160.961 39.3648 160.974C41.7004 160.974 44.036 160.974 46.7784 160.974ZM153.56 160.974C160.777 160.974 167.875 161.026 174.961 160.961C181.01 160.909 185.064 156.652 184.998 150.58C184.815 134.584 172.953 120.795 156.998 118.17C154.518 117.765 151.959 117.778 149.072 117.583C150.135 119.633 151.027 121.108 151.697 122.675C157.037 135.106 160.357 147.655 153.573 160.961L153.56 160.974Z" fill="white"/>
<path d="M99.9727 160.974C87.1794 160.974 74.3861 160.974 61.5928 160.974C56.6723 160.974 54.5204 158.793 54.4679 153.871C54.3892 146.663 54.5466 139.52 56.9347 132.56C63.5741 113.182 82.8493 100.49 103.358 102.109C125.205 103.846 142.538 120.207 145.11 141.766C145.635 146.206 145.53 150.737 145.451 155.216C145.386 158.819 142.788 160.948 138.891 160.961C125.914 160.974 112.937 160.961 99.9596 160.961L99.9727 160.974Z" fill="url(#paint0_linear_912_671)"/>
<path d="M99.9587 39C116.308 38.9739 129.613 52.1232 129.665 68.3542C129.718 84.6635 116.413 98.0087 100.051 98.0479C83.7932 98.0871 70.3832 84.8072 70.3438 68.6284C70.3045 52.2669 83.5439 39.0262 99.9587 39Z" fill="url(#paint1_linear_912_671)"/>
<path d="M151.329 110.44C139.192 110.401 129.298 100.516 129.324 88.4372C129.351 76.4239 139.375 66.4738 151.434 66.4868C163.623 66.4868 173.53 76.45 173.478 88.633C173.425 100.738 163.518 110.479 151.329 110.44Z" fill="url(#paint2_linear_912_671)"/>
<path d="M48.6316 110.44C36.4419 110.453 26.5746 100.686 26.5353 88.5809C26.4959 76.424 36.4812 66.4478 48.6447 66.4869C60.7295 66.5261 70.6886 76.4762 70.6886 88.5026C70.6886 100.568 60.782 110.427 48.6316 110.44Z" fill="url(#paint3_linear_912_671)"/>
<path d="M46.7814 160.974C44.039 160.974 41.7034 160.974 39.3679 160.974C34.3686 160.974 29.3694 161.052 24.3702 160.922C19.2135 160.791 15.2115 156.678 15.0278 151.559C14.4242 135.237 27.5849 119.946 43.8816 118.052C46.0729 117.804 48.2772 117.752 51.0196 117.569C47.0176 124.516 44.3802 131.45 43.278 138.906C42.1627 146.466 42.1889 153.857 46.7814 160.974Z" fill="url(#paint4_linear_912_671)"/>
<path d="M153.563 160.974C160.347 147.668 157.027 135.119 151.687 122.688C151.018 121.121 150.125 119.646 149.062 117.596C151.949 117.805 154.508 117.779 156.988 118.183C172.943 120.808 184.818 134.584 184.989 150.593C185.054 156.652 181 160.909 174.951 160.974C167.852 161.039 160.767 160.987 153.55 160.987L153.563 160.974Z" fill="url(#paint5_linear_912_671)"/>
</g>
<defs>
<linearGradient id="paint0_linear_912_671" x1="99.9848" y1="101.97" x2="99.9848" y2="160.974" gradientUnits="userSpaceOnUse">
<stop stop-color="#F5C835"/>
<stop offset="1" stop-color="#E57331"/>
</linearGradient>
<linearGradient id="paint1_linear_912_671" x1="100.005" y1="39" x2="100.005" y2="98.048" gradientUnits="userSpaceOnUse">
<stop stop-color="#F5C835"/>
<stop offset="1" stop-color="#E57331"/>
</linearGradient>
<linearGradient id="paint2_linear_912_671" x1="151.401" y1="66.4868" x2="151.401" y2="110.44" gradientUnits="userSpaceOnUse">
<stop stop-color="#F5C835"/>
<stop offset="1" stop-color="#E57331"/>
</linearGradient>
<linearGradient id="paint3_linear_912_671" x1="48.6119" y1="66.4868" x2="48.6119" y2="110.44" gradientUnits="userSpaceOnUse">
<stop stop-color="#F5C835"/>
<stop offset="1" stop-color="#E57331"/>
</linearGradient>
<linearGradient id="paint4_linear_912_671" x1="33.0137" y1="117.569" x2="33.0137" y2="160.997" gradientUnits="userSpaceOnUse">
<stop stop-color="#F5C835"/>
<stop offset="1" stop-color="#E57331"/>
</linearGradient>
<linearGradient id="paint5_linear_912_671" x1="167.026" y1="117.596" x2="167.026" y2="161.007" gradientUnits="userSpaceOnUse">
<stop stop-color="#F5C835"/>
<stop offset="1" stop-color="#E57331"/>
</linearGradient>
<clipPath id="clip0_912_671">
<rect width="170" height="122" fill="white" transform="translate(15 39)"/>
</clipPath>
</defs>
</svg>
