<svg width="200" height="200" viewBox="0 0 200 200" fill="none" xmlns="http://www.w3.org/2000/svg">
<g clip-path="url(#clip0_912_662)">
<path d="M123.899 142.342C123.899 133.506 123.929 124.671 123.899 115.835C123.854 106.578 116.931 99.6537 107.702 99.5935C102.607 99.5634 97.5281 99.5634 92.4338 99.5935C83.0243 99.6387 76.117 106.578 76.102 116.046C76.0721 133.551 76.0721 151.042 76.102 168.548C76.102 178.001 83.0393 184.925 92.4638 184.97C97.3783 184.985 102.308 184.97 107.237 184.97C117.081 184.955 123.884 178.091 123.899 168.187C123.899 159.577 123.899 150.967 123.899 142.357V142.342ZM137.174 152.984C137.174 158.147 137.159 163.31 137.174 168.488C137.204 178.031 144.111 184.94 153.64 184.97C158.615 184.985 163.589 184.985 168.564 184.97C178.003 184.925 184.925 178.031 184.955 168.578C184.985 158.132 185 147.685 184.955 137.239C184.925 127.877 177.988 120.983 168.654 120.938C163.619 120.907 158.585 120.923 153.55 120.938C144.051 120.983 137.189 127.907 137.159 137.495C137.144 142.658 137.159 147.821 137.159 152.999L137.174 152.984ZM111.418 38.2556C111.223 37.6836 111.058 37.2321 110.893 36.7504C109.02 30.9553 107.117 25.1451 105.274 19.35C104.645 17.3782 103.566 15.8729 101.514 15.2558C98.5769 14.3828 95.865 15.9181 94.8161 19.0941C92.9133 24.8892 91.0104 30.6844 89.2124 36.5096C88.8078 37.8342 88.2684 38.3158 86.845 38.3008C80.9267 38.2105 75.0083 38.2556 69.0899 38.2707C65.8685 38.2707 63.9207 39.4749 63.0966 41.9735C62.2725 44.4421 63.1715 46.6096 65.7786 48.5062C70.5732 51.9983 75.3379 55.5205 80.1625 58.9525C81.2263 59.7201 81.526 60.3674 81.0915 61.6769C79.1137 67.5021 77.2707 73.3725 75.3828 79.2278C74.7386 81.2147 74.9034 83.0662 76.2818 84.7068C78.1847 86.9647 81.1065 87.2507 83.7285 85.3541C88.8078 81.6964 93.8572 78.0086 98.8766 74.2756C99.7456 73.6284 100.3 73.6585 101.154 74.2907C106.084 77.9634 111.073 81.5609 116.017 85.1885C117.411 86.2121 118.894 86.8443 120.662 86.483C123.944 85.8207 125.697 82.735 124.633 79.3332C122.775 73.4177 120.872 67.5021 118.894 61.6167C118.49 60.3975 118.714 59.7653 119.748 59.0277C124.798 55.4302 129.802 51.7575 134.791 48.0697C136.964 46.4591 137.653 44.2163 136.889 41.9133C136.11 39.6103 134.192 38.3008 131.51 38.2707C129.967 38.2556 128.409 38.2707 126.865 38.2707C121.726 38.2707 116.587 38.2707 111.433 38.2707L111.418 38.2556ZM141.309 59.5094C140.036 59.5094 138.762 59.4943 137.488 59.5094C134.776 59.5546 132.919 60.834 132.154 63.1671C131.39 65.4701 132.154 67.6677 134.312 69.2934C136.35 70.8136 138.432 72.2887 140.47 73.809C143.002 75.6906 143.647 77.6774 142.703 80.6427C141.938 83.0812 141.114 85.4896 140.35 87.928C139.556 90.502 140.23 92.6845 142.238 94.1446C144.261 95.6197 146.433 95.6047 148.696 94.0091C150.824 92.5039 152.906 90.9385 155.019 89.4333C157.341 87.7775 159.454 87.7474 161.761 89.3881C163.889 90.8933 165.957 92.4587 168.069 93.979C170.332 95.6047 172.489 95.6649 174.527 94.2199C176.595 92.7598 177.284 90.5622 176.445 87.8829C175.681 85.4444 174.857 83.036 174.093 80.5976C173.194 77.6925 173.838 75.7056 176.28 73.8843C178.363 72.3339 180.49 70.8287 182.573 69.2632C184.656 67.6828 185.405 65.5303 184.701 63.2725C183.966 60.9093 182.109 59.5546 179.442 59.5244C176.79 59.4943 174.137 59.5395 171.485 59.5094C168.684 59.4642 166.916 58.1697 166.017 55.5205C165.192 53.1122 164.458 50.6737 163.649 48.2503C162.75 45.5108 160.817 43.9604 158.375 43.9905C155.933 44.0056 154.06 45.556 153.146 48.3256C152.352 50.749 151.603 53.1875 150.779 55.5958C149.91 58.1547 148.142 59.4492 145.43 59.5244C144.051 59.5696 142.658 59.5244 141.279 59.5244L141.309 59.5094Z" fill="white"/>
<path d="M14.9994 134.605C15.329 133.567 15.6137 132.498 15.9883 131.474C18.2208 125.288 24.0043 121.058 30.537 120.953C36.1257 120.863 41.6995 120.848 47.2883 120.953C55.7388 121.103 62.6761 128.027 62.766 136.532C62.8858 147.475 62.8858 158.418 62.766 169.361C62.6761 177.865 55.7538 184.774 47.2883 184.94C41.8793 185.045 36.4554 185 31.0314 184.955C23.2102 184.895 16.9921 179.732 15.299 172.025C15.2391 171.769 15.0893 171.543 14.9844 171.288C14.9844 159.065 14.9844 146.828 14.9844 134.605H14.9994Z" fill="url(#paint0_linear_912_662)"/>
<path d="M15 63.5736C16.2286 60.4879 18.5061 59.2386 21.7874 59.4794C23.99 59.645 26.2075 59.5396 28.425 59.4945C31.3317 59.4493 33.0398 58.1849 33.9838 55.4003C34.7929 52.9919 35.542 50.5534 36.3511 48.13C37.2351 45.4959 39.138 43.9756 41.5353 43.9606C43.9177 43.9455 45.8805 45.4507 46.7495 48.0698C47.5736 50.5384 48.3377 53.0371 49.1768 55.5056C50.0758 58.1548 51.8438 59.4493 54.6457 59.4945C57.2977 59.5396 59.9498 59.4945 62.6018 59.5095C65.1939 59.5396 67.0518 60.8642 67.816 63.107C68.5951 65.41 67.8609 67.6377 65.7333 69.2483C63.6506 70.8138 61.523 72.3039 59.4403 73.8694C57.013 75.6756 56.3538 77.6776 57.2678 80.5827C58.0169 82.9609 58.811 85.3241 59.5602 87.7024C60.4292 90.487 59.8599 92.5793 57.8221 94.0996C55.7395 95.65 53.492 95.5747 51.0797 93.8437C49.1019 92.4288 47.1541 90.9537 45.1763 89.5387C42.5692 87.6723 40.5914 87.6723 38.0293 89.5237C35.9616 91.0139 33.9238 92.5341 31.8412 94.0093C29.5937 95.5897 27.4211 95.6198 25.3834 94.1297C23.3906 92.6696 22.7164 90.5021 23.5255 87.9131C24.2597 85.5348 25.0538 83.1716 25.8029 80.7934C26.8068 77.6174 26.1775 75.7057 23.4805 73.7038C21.9672 72.5899 20.349 71.5965 18.9406 70.3471C17.5022 69.0978 16.3035 67.6227 15 66.2379C15 65.3498 15 64.4617 15 63.5736Z" fill="url(#paint1_linear_912_662)"/>
<path d="M123.897 142.342C123.897 150.952 123.897 159.562 123.897 168.172C123.897 178.091 117.08 184.94 107.236 184.955C102.306 184.955 97.3918 184.97 92.4623 184.955C83.0378 184.91 76.1156 177.986 76.1006 168.533C76.0706 151.027 76.0706 133.537 76.1006 116.031C76.1006 106.563 83.0229 99.6239 92.4323 99.5787C97.5267 99.5486 102.606 99.5486 107.7 99.5787C116.93 99.6389 123.852 106.563 123.897 115.82C123.942 124.656 123.897 133.491 123.897 142.327V142.342Z" fill="url(#paint2_linear_912_662)"/>
<path d="M137.172 152.984C137.172 147.821 137.172 142.658 137.172 137.48C137.202 127.892 144.064 120.968 153.564 120.923C158.598 120.908 163.632 120.893 168.667 120.923C178.001 120.968 184.924 127.877 184.968 137.224C185.013 147.67 184.998 158.117 184.968 168.563C184.938 178.016 178.016 184.91 168.577 184.955C163.602 184.97 158.628 184.97 153.653 184.955C144.109 184.925 137.217 178.016 137.187 168.473C137.172 163.31 137.187 158.147 137.187 152.969L137.172 152.984Z" fill="url(#paint3_linear_912_662)"/>
<path d="M111.417 38.2556C116.571 38.2556 121.71 38.2556 126.85 38.2556C128.393 38.2556 129.951 38.2405 131.494 38.2556C134.162 38.2857 136.094 39.5952 136.873 41.8982C137.653 44.2012 136.948 46.444 134.776 48.0546C129.786 51.7424 124.782 55.4152 119.733 59.0126C118.699 59.7502 118.474 60.3824 118.879 61.6016C120.856 67.487 122.759 73.4026 124.617 79.3181C125.681 82.7199 123.943 85.7906 120.647 86.4679C118.894 86.8292 117.395 86.197 116.002 85.1734C111.042 81.5458 106.068 77.9333 101.138 74.2756C100.284 73.6434 99.73 73.6133 98.861 74.2605C93.8416 77.9935 88.7772 81.6813 83.7129 85.339C81.0908 87.2356 78.1691 86.9496 76.2662 84.6918C74.8878 83.0511 74.7229 81.1996 75.3672 79.2127C77.2551 73.3574 79.113 67.487 81.0758 61.6618C81.5253 60.3523 81.2257 59.705 80.1469 58.9374C75.3223 55.5055 70.5576 51.9832 65.763 48.4911C63.1559 46.5945 62.2569 44.4421 63.081 41.9584C63.905 39.4598 65.8529 38.2556 69.0743 38.2556C74.9926 38.2556 80.911 38.1954 86.8294 38.2857C88.2528 38.3008 88.7922 37.8341 89.1968 36.4945C90.9948 30.6693 92.8826 24.8742 94.8005 19.079C95.8493 15.888 98.5763 14.3526 101.498 15.2407C103.551 15.8579 104.63 17.3631 105.259 19.3349C107.117 25.1451 109.005 30.9402 110.878 36.7353C111.027 37.2019 111.192 37.6686 111.402 38.2405L111.417 38.2556Z" fill="url(#paint4_linear_912_662)"/>
<path d="M141.292 59.5096C142.671 59.5096 144.064 59.5397 145.443 59.5096C148.155 59.4343 149.908 58.1399 150.792 55.581C151.616 53.1726 152.365 50.7342 153.159 48.3107C154.073 45.5411 155.946 44.0058 158.388 43.9757C160.831 43.9606 162.763 45.496 163.662 48.2355C164.457 50.6589 165.206 53.0974 166.03 55.5057C166.929 58.1549 168.697 59.4494 171.499 59.4946C174.151 59.5397 176.803 59.4946 179.455 59.5096C182.122 59.5397 183.98 60.8944 184.714 63.2576C185.418 65.5155 184.684 67.6679 182.586 69.2484C180.504 70.8138 178.376 72.304 176.293 73.8694C173.851 75.6908 173.207 77.6777 174.106 80.5827C174.87 83.0212 175.694 85.4296 176.458 87.868C177.297 90.5473 176.608 92.745 174.54 94.205C172.503 95.65 170.345 95.5748 168.082 93.9642C165.97 92.459 163.902 90.8785 161.775 89.3733C159.452 87.7326 157.339 87.7627 155.032 89.4184C152.919 90.9387 150.837 92.5041 148.709 93.9943C146.462 95.5898 144.289 95.6049 142.251 94.1298C140.244 92.6697 139.569 90.5022 140.363 87.9132C141.113 85.4747 141.952 83.0664 142.716 80.6279C143.645 77.6476 143.001 75.6757 140.483 73.7942C138.446 72.2739 136.363 70.7988 134.325 69.2785C132.168 67.6529 131.403 65.4552 132.168 63.1522C132.932 60.8192 134.79 59.5397 137.502 59.4946C138.775 59.4795 140.049 59.4946 141.322 59.4946L141.292 59.5096Z" fill="url(#paint5_linear_912_662)"/>
</g>
<defs>
<linearGradient id="paint0_linear_912_662" x1="38.9201" y1="120.879" x2="38.9201" y2="185.004" gradientUnits="userSpaceOnUse">
<stop stop-color="#F5C835"/>
<stop offset="1" stop-color="#E57331"/>
</linearGradient>
<linearGradient id="paint1_linear_912_662" x1="41.5595" y1="43.9604" x2="41.5595" y2="95.2217" gradientUnits="userSpaceOnUse">
<stop stop-color="#F5C835"/>
<stop offset="1" stop-color="#E57331"/>
</linearGradient>
<linearGradient id="paint2_linear_912_662" x1="99.9976" y1="99.5562" x2="99.9976" y2="184.962" gradientUnits="userSpaceOnUse">
<stop stop-color="#F5C835"/>
<stop offset="1" stop-color="#E57331"/>
</linearGradient>
<linearGradient id="paint3_linear_912_662" x1="161.084" y1="120.905" x2="161.084" y2="184.966" gradientUnits="userSpaceOnUse">
<stop stop-color="#F5C835"/>
<stop offset="1" stop-color="#E57331"/>
</linearGradient>
<linearGradient id="paint4_linear_912_662" x1="99.9829" y1="14.9917" x2="99.9829" y2="86.5929" gradientUnits="userSpaceOnUse">
<stop stop-color="#F5C835"/>
<stop offset="1" stop-color="#E57331"/>
</linearGradient>
<linearGradient id="paint5_linear_912_662" x1="158.426" y1="43.9756" x2="158.426" y2="95.2335" gradientUnits="userSpaceOnUse">
<stop stop-color="#F5C835"/>
<stop offset="1" stop-color="#E57331"/>
</linearGradient>
<clipPath id="clip0_912_662">
<rect width="170" height="170" fill="white" transform="translate(15 15)"/>
</clipPath>
</defs>
</svg>
