<svg width="200" height="200" viewBox="0 0 200 200" fill="none" xmlns="http://www.w3.org/2000/svg">
<g clip-path="url(#clip0_918_21)">
<path d="M99.9406 141.63C106.018 141.63 112.083 141.63 118.16 141.63C120.204 141.63 120.615 141.176 120.376 139.258C119.182 129.191 110.344 121.521 99.9671 121.534C89.6034 121.547 80.7789 129.243 79.6112 139.31C79.3989 141.137 79.8235 141.63 81.7211 141.63C87.7987 141.63 93.863 141.63 99.9406 141.63ZM86.8035 119.5C84.1362 116.001 82.995 112.076 83.5391 107.8C83.7116 106.426 83.1808 105.779 82.1723 105.092C69.5792 96.4499 52.4346 103.667 49.9664 118.67C49.5683 121.054 49.9266 121.482 52.3682 121.482C61.9888 121.482 71.6095 121.417 81.2301 121.534C83.3798 121.56 85.1314 121.08 86.8035 119.5ZM112.998 119.785C114.431 120.42 115.639 121.404 116.86 121.417C127.343 121.534 137.813 121.482 148.296 121.495C149.795 121.495 150.366 120.769 150.154 119.37C150.074 118.878 149.994 118.372 149.902 117.88C147.38 103.382 129.386 96.4628 117.457 105.416C116.979 105.766 116.395 106.478 116.448 106.945C117.019 111.531 116.063 115.716 112.985 119.798L112.998 119.785ZM174.637 172.868C168.678 172.868 162.999 172.842 157.333 172.868C154.413 172.881 152.171 175.058 152.104 177.804C152.038 180.59 154.32 182.935 157.306 182.948C164.804 183 172.314 183 179.812 182.948C182.718 182.935 184.947 180.784 184.961 177.947C185.014 170.626 185.014 163.293 184.961 155.973C184.947 153.044 182.585 150.829 179.719 150.868C176.839 150.906 174.65 153.135 174.637 156.115C174.61 161.039 174.637 165.962 174.637 170.873C174.637 171.469 174.637 172.078 174.637 172.868ZM25.3773 27.1321C26.2531 27.1321 26.8768 27.1321 27.4872 27.1321C32.5829 27.1321 37.6785 27.158 42.7741 27.1191C45.6537 27.0932 47.8963 24.8258 47.8963 22.0919C47.8963 19.4229 45.72 17.0907 42.9333 17.0648C35.2634 17 27.5934 17 19.9234 17.0648C17.2827 17.0907 15.0799 19.2415 15.0667 21.8199C15.0003 29.3088 14.9738 36.8106 15.0667 44.2996C15.1065 47.6165 18.5036 49.8579 21.7414 48.9121C23.9442 48.2643 25.3641 46.3078 25.3773 43.7943C25.3906 38.3266 25.3773 32.8589 25.3773 27.145V27.1321ZM25.3773 172.868C25.3773 172.078 25.3773 171.469 25.3773 170.873C25.3773 166.066 25.3773 161.259 25.3773 156.452C25.3773 153.187 23.2807 150.919 20.2817 150.868C17.2429 150.816 15.0269 153.161 15.0269 156.478C15.0269 163.41 15.0269 170.341 15.0269 177.273C15.0269 180.94 17.1102 182.961 20.8789 182.974C27.9251 182.974 34.9714 182.974 42.0045 182.974C42.6281 182.974 43.2784 182.974 43.8755 182.832C46.3968 182.249 48.1086 179.929 47.8697 177.493C47.6043 174.837 45.4679 172.907 42.6679 172.894C37.0017 172.868 31.3355 172.894 25.3641 172.894L25.3773 172.868ZM174.623 27.1321C174.623 32.9496 174.597 38.482 174.623 44.0145C174.65 46.8779 176.866 49.0676 179.666 49.1324C182.519 49.1972 184.921 46.9686 184.934 44.0534C184.987 36.7329 184.987 29.3995 184.934 22.079C184.921 19.2285 182.718 17.0648 179.812 17.0389C172.248 16.987 164.697 16.987 157.134 17.0389C154.254 17.0648 152.025 19.4099 152.065 22.1308C152.104 24.8776 154.347 27.0802 157.253 27.0932C162.349 27.1321 167.444 27.0932 172.54 27.0932C173.15 27.0932 173.774 27.0932 174.583 27.0932L174.623 27.1321ZM88.9266 69.1633C88.8868 75.1881 93.8365 80.0857 99.9671 80.1116C106.031 80.1375 111.008 75.3306 111.074 69.3965C111.14 63.3458 106.27 58.4352 100.126 58.3704C93.9824 58.3056 88.9664 63.1385 88.9266 69.1633ZM70.1498 100.337C76.3203 100.402 81.3761 95.5818 81.4292 89.6088C81.4822 83.6099 76.5326 78.6864 70.3887 78.6346C64.2845 78.5827 59.2154 83.4803 59.1889 89.4663C59.1624 95.3745 64.112 100.285 70.1498 100.337ZM129.546 100.337C135.703 100.389 140.732 95.6077 140.825 89.5958C140.918 83.6617 135.902 78.6864 129.758 78.6346C123.733 78.5698 118.664 83.4155 118.585 89.3108C118.505 95.3356 123.428 100.285 129.546 100.337ZM111.087 109.601C111.087 103.589 106.058 98.7043 99.9406 98.7562C93.8497 98.808 88.9532 103.615 88.9266 109.562C88.9001 115.6 93.8365 120.471 99.9804 120.471C106.151 120.471 111.087 115.639 111.074 109.601H111.087ZM104.983 164.848C106.536 164.848 107.863 164.913 109.163 164.822C109.774 164.77 110.663 164.55 110.888 164.122C111.114 163.695 110.888 162.801 110.53 162.334C107.504 158.408 104.399 154.521 101.307 150.634C100.405 149.507 99.5292 149.598 98.6667 150.699C95.5881 154.599 92.4829 158.473 89.4441 162.399C89.1124 162.827 88.8603 163.695 89.0726 164.032C89.3645 164.472 90.1474 164.757 90.7579 164.809C92.1114 164.926 93.4782 164.848 95.0308 164.848C95.0308 165.612 95.0308 166.208 95.0308 166.817C95.0308 171.52 95.0573 176.211 95.0175 180.914C95.0042 182.391 95.535 183.065 97.1274 183C99.1311 182.909 101.135 182.935 103.139 183C104.479 183.039 105.023 182.43 104.983 181.186C104.957 180.409 104.983 179.618 104.983 178.841C104.983 174.267 104.983 169.681 104.983 164.861V164.848ZM104.983 35.1652C104.983 34.4007 104.983 33.7918 104.983 33.1958C104.983 28.4925 104.957 23.8022 104.996 19.099C105.01 17.6219 104.479 16.9352 102.887 17.013C101.002 17.1037 99.1046 17.1037 97.2203 17.013C95.5483 16.9223 94.9909 17.596 95.0175 19.1767C95.0706 23.88 95.044 28.5702 95.0308 33.2735C95.0308 33.8695 95.0308 34.4655 95.0308 35.1652C93.4782 35.1652 92.1512 35.1004 90.8508 35.1911C90.2271 35.2429 89.3513 35.4632 89.1257 35.8778C88.9001 36.2924 89.1389 37.1993 89.4972 37.6528C92.5228 41.5787 95.6279 45.4657 98.7065 49.3526C99.516 50.3633 100.392 50.4799 101.241 49.4304C104.399 45.4527 107.571 41.488 110.676 37.4714C111.645 36.2146 111.061 35.217 109.429 35.1652C108.009 35.1133 106.589 35.1652 104.983 35.1652ZM33.5914 104.846C33.5914 106.478 33.525 107.826 33.6312 109.16C33.671 109.692 33.9629 110.456 34.3743 110.65C34.7989 110.845 35.6349 110.65 36.0596 110.326C40.1334 107.32 44.1542 104.276 48.1749 101.218C49.2498 100.402 49.21 99.5465 48.1484 98.7432C44.1144 95.6984 40.0936 92.6406 36.0198 89.6347C35.5951 89.3238 34.7458 89.1294 34.3345 89.3367C33.9231 89.544 33.6444 90.3085 33.6046 90.8526C33.5118 92.226 33.5781 93.6124 33.5781 95.1413C32.7421 95.1413 32.1184 95.1413 31.508 95.1413C26.691 95.1413 21.8741 95.1672 17.0704 95.1283C15.6505 95.1283 14.934 95.5688 15.0003 97.0718C15.0799 99.0283 15.0667 100.985 15.0003 102.941C14.9605 104.315 15.5444 104.872 16.9244 104.846C19.7377 104.807 22.5376 104.846 25.3508 104.846C28.0313 104.846 30.7118 104.846 33.5914 104.846ZM166.396 104.846C167.219 104.846 167.842 104.846 168.453 104.846C173.203 104.846 177.967 104.846 182.718 104.846C184.748 104.846 184.947 104.626 184.961 102.604C184.961 100.868 184.961 99.1319 184.961 97.3957C184.961 95.3745 184.748 95.1542 182.718 95.1542C177.901 95.1413 173.097 95.1542 168.28 95.1542C167.683 95.1542 167.073 95.1024 166.383 95.0635C166.383 93.4828 166.436 92.0835 166.383 90.6842C166.316 89.1942 165.295 88.65 164.074 89.557C159.907 92.6277 155.807 95.7502 151.693 98.8857C150.777 99.5854 150.777 100.428 151.693 101.127C155.807 104.263 159.92 107.385 164.074 110.456C165.295 111.35 166.33 110.806 166.383 109.329C166.449 107.942 166.383 106.543 166.383 104.859L166.396 104.846ZM85.8347 101.037C89.2982 96.0871 94.009 93.3921 100.047 93.4051C106.085 93.4051 110.756 96.1778 114.166 101.024C115.015 100.466 115.758 99.9741 116.528 99.4688C113.741 95.5688 112.52 91.4616 113.277 86.8361C113.356 86.3697 112.826 85.6311 112.374 85.2813C105.806 80.2671 96.5435 79.8266 89.3247 84.0763C87.52 85.1388 86.3921 86.1364 86.7769 88.6371C87.3873 92.5888 85.8613 96.2037 83.4462 99.4817C84.2424 100 84.9457 100.479 85.8215 101.062L85.8347 101.037Z" fill="#F5C835"/>
<path d="M99.9416 141.629C93.8641 141.629 87.7997 141.629 81.7221 141.629C79.8246 141.629 79.3999 141.137 79.6122 139.31C80.78 129.243 89.6044 121.547 99.9682 121.534C110.345 121.521 119.17 129.191 120.377 139.258C120.603 141.189 120.205 141.629 118.161 141.629C112.084 141.629 106.019 141.629 99.9416 141.629Z" fill="#2D2D2D"/>
<path d="M86.8026 119.5C85.1306 121.093 83.379 121.56 81.2293 121.534C71.6086 121.417 61.988 121.482 52.3673 121.482C49.9257 121.482 49.5807 121.055 49.9655 118.671C52.4337 103.667 69.5916 96.45 82.1714 105.092C83.1799 105.779 83.7107 106.44 83.5382 107.8C82.9941 112.076 84.1353 115.989 86.8026 119.5Z" fill="#2D2D2D"/>
<path d="M112.984 119.785C116.063 115.704 117.018 111.519 116.448 106.932C116.395 106.466 116.979 105.766 117.456 105.403C129.386 96.4501 147.38 103.382 149.901 117.867C149.994 118.36 150.074 118.865 150.153 119.357C150.366 120.757 149.795 121.482 148.295 121.482C137.812 121.482 127.342 121.534 116.859 121.405C115.638 121.392 114.431 120.407 112.998 119.772L112.984 119.785Z" fill="#2D2D2D"/>
<path d="M174.623 172.868C174.623 172.078 174.623 171.469 174.623 170.873C174.623 165.949 174.597 161.026 174.623 156.115C174.637 153.135 176.84 150.92 179.706 150.868C182.559 150.829 184.934 153.044 184.947 155.973C184.987 163.293 185 170.627 184.947 177.947C184.921 180.784 182.705 182.935 179.799 182.948C172.301 183 164.791 183 157.293 182.948C154.307 182.935 152.025 180.59 152.091 177.804C152.158 175.058 154.4 172.894 157.32 172.868C162.986 172.842 168.652 172.868 174.623 172.868Z" fill="#F5C835"/>
<path d="M25.3786 27.132C25.3786 32.8458 25.3919 38.3135 25.3786 43.7812C25.3786 46.2948 23.9455 48.2512 21.7427 48.8991C18.5048 49.8449 15.1077 47.6034 15.0679 44.2865C14.975 36.8106 15.0016 29.3087 15.0679 21.8198C15.0812 19.2414 17.284 17.0906 19.9247 17.0647C27.5947 16.9999 35.2646 16.9999 42.9346 17.0647C45.7213 17.0906 47.8975 19.4228 47.8975 22.0919C47.8975 24.8387 45.6682 27.0931 42.7754 27.119C37.6798 27.1709 32.5841 27.132 27.4885 27.132C26.8648 27.132 26.2411 27.132 25.3786 27.132Z" fill="#F5C835"/>
<path d="M25.3763 172.868C31.3477 172.868 37.0139 172.842 42.6802 172.868C45.4801 172.881 47.6165 174.811 47.8819 177.467C48.1208 179.903 46.4222 182.223 43.8877 182.806C43.2906 182.948 42.6403 182.948 42.0167 182.948C34.9704 182.948 27.9241 182.961 20.8911 182.948C17.1224 182.948 15.0391 180.914 15.0391 177.247C15.0391 170.315 15.0391 163.384 15.0391 156.452C15.0391 153.135 17.2551 150.79 20.2939 150.842C23.2796 150.893 25.3763 153.161 25.3895 156.426C25.4028 161.233 25.3895 166.04 25.3895 170.847C25.3895 171.443 25.3895 172.052 25.3895 172.842L25.3763 172.868Z" fill="#F5C835"/>
<path d="M174.625 27.1323C173.802 27.1323 173.192 27.1323 172.581 27.1323C167.486 27.1323 162.39 27.1582 157.295 27.1323C154.388 27.1063 152.146 24.9037 152.106 22.1699C152.066 19.449 154.296 17.0909 157.175 17.0779C164.739 17.0261 172.289 17.0261 179.853 17.0779C182.759 17.0909 184.949 19.2676 184.975 22.1181C185.028 29.4385 185.028 36.772 184.975 44.0924C184.962 47.0077 182.547 49.2362 179.707 49.1714C176.894 49.1067 174.678 46.917 174.665 44.0536C174.625 38.5211 174.665 32.9886 174.665 27.1711L174.625 27.1323Z" fill="#F5C835"/>
<path d="M88.926 69.1631C88.9658 63.1513 93.9818 58.3055 100.126 58.3703C106.27 58.4351 111.153 63.3456 111.073 69.3963C111.007 75.3305 106.031 80.1374 99.9665 80.1115C93.8359 80.0855 88.8862 75.1879 88.926 69.1631Z" fill="#2D2D2D"/>
<path d="M70.1485 100.337C64.1107 100.272 59.1611 95.3617 59.1876 89.4664C59.2141 83.4805 64.2832 78.5829 70.3874 78.6347C76.5313 78.6865 81.4809 83.61 81.4279 89.6089C81.3748 95.5819 76.319 100.402 70.1485 100.337Z" fill="#2D2D2D"/>
<path d="M129.544 100.337C123.426 100.285 118.503 95.3225 118.583 89.3107C118.663 83.4154 123.732 78.5696 129.756 78.6344C135.9 78.6992 140.903 83.6616 140.823 89.5957C140.73 95.6076 135.714 100.389 129.544 100.337Z" fill="#2D2D2D"/>
<path d="M111.073 109.601C111.073 115.639 106.137 120.484 99.9797 120.472C93.8225 120.472 88.8993 115.6 88.9259 109.562C88.9524 103.615 93.849 98.8081 99.9399 98.7563C106.057 98.7044 111.073 103.589 111.087 109.601H111.073Z" fill="#2D2D2D"/>
<path d="M104.983 164.848C104.983 169.667 104.983 174.241 104.983 178.828C104.983 179.605 104.956 180.395 104.983 181.173C105.022 182.417 104.478 183.026 103.138 182.987C101.134 182.935 99.1307 182.909 97.1269 182.987C95.5345 183.052 95.0038 182.378 95.017 180.901C95.0568 176.198 95.0303 171.507 95.0303 166.804C95.0303 166.195 95.0303 165.599 95.0303 164.835C93.4777 164.835 92.1109 164.912 90.7574 164.796C90.1603 164.744 89.3641 164.459 89.0721 164.018C88.8465 163.681 89.1119 162.813 89.4437 162.386C92.4825 158.46 95.5876 154.586 98.6662 150.686C99.5288 149.585 100.418 149.494 101.307 150.621C104.399 154.508 107.491 158.382 110.529 162.321C110.888 162.775 111.127 163.681 110.888 164.109C110.662 164.537 109.773 164.757 109.163 164.809C107.862 164.912 106.535 164.835 104.983 164.835V164.848Z" fill="#F5C835"/>
<path d="M104.984 35.1655C106.603 35.1655 108.023 35.1267 109.43 35.1655C111.062 35.2174 111.646 36.228 110.677 37.4718C107.572 41.4884 104.401 45.4531 101.242 49.4308C100.393 50.4932 99.5173 50.3766 98.7078 49.353C95.6292 45.466 92.5241 41.5791 89.4986 37.6532C89.1403 37.1997 88.9014 36.2928 89.127 35.8782C89.3659 35.4506 90.2417 35.2303 90.8521 35.1915C92.1525 35.0878 93.4795 35.1655 95.0321 35.1655C95.0321 34.4659 95.0321 33.8699 95.0321 33.2739C95.0321 28.5706 95.0719 23.8803 95.0188 19.1771C95.0055 17.6094 95.5629 16.9356 97.2216 17.0133C99.1059 17.117 101.004 17.104 102.888 17.0133C104.48 16.9356 105.011 17.6094 104.998 19.0994C104.958 23.8026 104.984 28.4929 104.984 33.1961C104.984 33.7921 104.984 34.4011 104.984 35.1655Z" fill="#F5C835"/>
<path d="M33.5905 104.846C30.7242 104.846 28.0304 104.846 25.3499 104.846C22.5367 104.846 19.7367 104.82 16.9235 104.846C15.5302 104.859 14.9463 104.302 14.9994 102.941C15.0657 100.985 15.079 99.0284 14.9994 97.0719C14.9463 95.569 15.6496 95.1284 17.0695 95.1284C21.8864 95.1673 26.6901 95.1414 31.5071 95.1414C32.1308 95.1414 32.7545 95.1414 33.5772 95.1414C33.5772 93.6125 33.5108 92.2262 33.6037 90.8528C33.6435 90.3086 33.9222 89.5441 34.3336 89.3368C34.7449 89.1295 35.5942 89.3109 36.0188 89.6348C40.0927 92.6278 44.1134 95.6856 48.1475 98.7433C49.2091 99.5466 49.2356 100.415 48.174 101.218C44.1532 104.276 40.1192 107.334 36.0586 110.327C35.634 110.637 34.798 110.845 34.3734 110.65C33.962 110.456 33.6701 109.692 33.6303 109.16C33.5241 107.826 33.5905 106.478 33.5905 104.846Z" fill="#F5C835"/>
<path d="M166.408 104.846C166.408 106.53 166.461 107.93 166.408 109.316C166.341 110.793 165.306 111.337 164.099 110.443C159.932 107.372 155.832 104.25 151.718 101.114C150.802 100.415 150.802 99.5726 151.718 98.873C155.832 95.7375 159.945 92.6149 164.099 89.5442C165.32 88.6502 166.341 89.1944 166.408 90.6714C166.474 92.0578 166.408 93.4571 166.408 95.0508C167.098 95.0896 167.695 95.1415 168.305 95.1415C173.122 95.1415 177.926 95.1415 182.743 95.1415C184.773 95.1415 184.972 95.3617 184.985 97.383C184.985 99.1191 184.985 100.855 184.985 102.592C184.985 104.613 184.773 104.833 182.743 104.833C177.992 104.846 173.228 104.833 168.478 104.833C167.854 104.833 167.244 104.833 166.421 104.833L166.408 104.846Z" fill="#F5C835"/>
<path d="M85.848 101.036C84.9589 100.453 84.2556 99.987 83.4727 99.4558C85.8878 96.1907 87.4138 92.5629 86.8034 88.6111C86.4186 86.1105 87.5332 85.1128 89.3512 84.0504C96.57 79.8136 105.819 80.2411 112.401 85.2554C112.852 85.6052 113.383 86.3437 113.303 86.8101C112.547 91.4357 113.768 95.5559 116.554 99.4428C115.785 99.9481 115.042 100.44 114.192 100.998C110.782 96.1519 106.111 93.3921 100.073 93.3791C94.0355 93.3791 89.3247 96.0612 85.8612 101.011L85.848 101.036Z" fill="#2D2D2D"/>
</g>
<defs>
<clipPath id="clip0_918_21">
<rect width="170" height="166" fill="white" transform="translate(15 17)"/>
</clipPath>
</defs>
</svg>
