<svg width="200" height="200" viewBox="0 0 200 200" fill="none" xmlns="http://www.w3.org/2000/svg">
<g clip-path="url(#clip0_919_60)">
<path d="M150.944 44.5758C150.729 39.5798 147.283 36.2287 142.423 36.2287C123.118 36.198 103.814 36.2287 84.4947 36.2287C84.0486 36.2287 83.6025 36.2902 83.0795 36.3363V44.5912H150.929L150.944 44.5758ZM49.0703 44.5143H74.358V36.2287C68.3899 36.2287 62.5602 36.1058 56.7305 36.2748C52.4236 36.3978 49.178 40.0256 49.0703 44.5143ZM101.968 134.011H98.0614V142.327H101.968V134.011Z" fill="#F5C835"/>
<path d="M184.907 99.8847H159.481C159.481 99.1007 159.481 98.3475 159.481 97.5789C159.481 80.1162 159.512 62.6535 159.481 45.1908C159.465 36.4441 154.236 29.8341 146.037 28.097C144.622 27.805 143.13 27.7588 141.684 27.7588C113.92 27.7435 86.1556 27.7281 58.3914 27.7588C47.5934 27.7588 40.5639 34.7839 40.5485 45.5751C40.5331 62.838 40.5485 80.1008 40.5485 97.3637C40.5485 98.1477 40.5485 98.9316 40.5485 99.8386H15.1839C15.1377 99.3774 15.03 98.8702 15.03 98.3783C15.03 77.7335 14.9531 57.0888 15.0454 36.4287C15.0916 25.576 22.2595 17.1675 32.7653 15.2921C34.1804 15.0307 35.6725 15 37.1184 15C79.0338 15 120.949 15 162.849 15C174.186 15 182.707 21.9021 184.676 32.601C184.922 33.9538 184.984 35.368 184.984 36.7669C184.999 57.2118 184.984 77.6567 184.984 98.1169C184.984 98.6396 184.938 99.1622 184.907 99.8847Z" fill="#F5C835"/>
<path d="M49.0547 99.8078V53.3994H150.882V99.8078H49.0547ZM123.118 76.5959C120.073 79.1323 117.242 81.4227 114.474 83.79C112.443 85.5271 112.197 88.1096 113.797 89.9696C115.304 91.7374 117.858 91.9526 119.857 90.3232C124.026 86.9413 128.163 83.498 132.24 80.0085C134.639 77.9487 134.639 75.1817 132.24 73.1526C128.148 69.6631 124.072 66.1736 119.811 62.8994C118.811 62.1308 116.95 61.6696 115.827 62.0539C114.612 62.469 113.443 63.8986 112.905 65.1591C112.228 66.727 113.105 68.2489 114.427 69.3557C117.273 71.7383 120.119 74.1056 123.087 76.5959H123.118ZM76.8958 76.5959C79.6953 74.2593 82.3564 72.0611 84.9866 69.8476C87.4631 67.757 87.94 65.3282 86.2787 63.299C84.6175 61.2546 82.0641 61.2238 79.603 63.2529C75.7268 66.4657 71.8506 69.6938 67.9897 72.9373C65.3133 75.1817 65.2825 77.9333 67.9436 80.193C71.8352 83.498 75.7575 86.7569 79.7107 90.0004C82.0795 91.9526 84.5867 91.8911 86.2326 89.9389C87.9246 87.9251 87.4939 85.4349 85.0482 83.375C82.4025 81.1614 79.7568 78.9632 76.8958 76.5959ZM103.368 62.1C101.43 62.0693 99.8916 63.1146 99.2148 65.1744C96.9845 71.9689 94.8003 78.7787 92.6776 85.604C91.9546 87.9405 93.1544 90.0772 95.3694 90.8458C97.5536 91.5991 99.907 90.5999 100.676 88.2787C102.999 81.2998 105.26 74.3055 107.398 67.2804C108.182 64.6825 106.06 62.1461 103.368 62.1154V62.1Z" fill="#2D2D2D"/>
<path d="M110.829 133.534C118.166 133.949 125.488 133.626 132.517 134.902C143.207 136.855 150.329 145.986 150.975 157.038C151.514 166.246 148.96 174.224 141.362 180.066C132.286 187.044 114.966 186.86 106.906 177.252C106.537 176.822 105.814 176.484 105.245 176.468C101.799 176.392 98.3386 176.376 94.8931 176.468C94.2163 176.484 93.4164 176.96 92.9242 177.468C85.4794 185.092 76.3426 186.337 66.6213 183.801C57.2537 181.357 51.6701 174.87 49.5936 165.416C47.0094 153.626 51.8547 142.02 61.7298 137.008C64.5601 135.579 67.8364 134.503 70.9743 134.287C76.9732 133.857 83.0183 134.164 89.2787 134.164C89.3094 134.764 89.4017 135.456 89.4017 136.147C89.4017 139.468 89.371 142.788 89.4171 146.109C89.4786 149.306 91.0937 150.905 94.2163 150.935C98.1386 150.966 102.046 150.966 105.968 150.935C108.952 150.905 110.629 149.229 110.69 146.216C110.752 142.834 110.69 139.452 110.706 136.055C110.706 135.41 110.767 134.764 110.813 133.534H110.829ZM70.2206 163.694C70.2206 165.139 70.1745 166.384 70.2206 167.614C70.3437 170.381 72.0203 172.134 74.4967 172.134C76.9578 172.134 78.6345 170.381 78.7729 167.614C78.8344 166.369 78.7729 165.139 78.7729 163.694C80.2188 163.694 81.4647 163.725 82.7106 163.694C85.3717 163.617 87.2483 161.819 87.2329 159.405C87.2021 157.053 85.4178 155.347 82.8183 155.255C81.5262 155.209 80.2188 155.255 78.7729 155.255C78.7729 153.748 78.819 152.565 78.7729 151.381C78.6652 148.645 76.9732 146.785 74.589 146.723C72.1433 146.662 70.3283 148.583 70.2206 151.397C70.1745 152.626 70.2206 153.856 70.2206 155.255C68.667 155.255 67.4057 155.224 66.1598 155.255C63.5756 155.347 61.776 157.069 61.7606 159.421C61.7452 161.834 63.6218 163.617 66.2828 163.694C67.5288 163.725 68.7747 163.694 70.2206 163.694ZM125.488 155.193C127.795 155.209 129.81 153.18 129.764 150.874C129.718 148.63 127.795 146.723 125.549 146.693C123.319 146.677 121.35 148.553 121.273 150.812C121.196 153.118 123.165 155.163 125.488 155.193ZM117.012 155.255C114.705 155.255 112.828 157.069 112.782 159.344C112.736 161.665 114.689 163.679 117.012 163.679C119.366 163.679 121.242 161.742 121.211 159.344C121.165 157.007 119.366 155.255 117.028 155.255H117.012ZM125.472 172.134C127.856 172.149 129.81 170.227 129.764 167.875C129.718 165.631 127.81 163.725 125.549 163.71C123.211 163.679 121.227 165.677 121.258 167.998C121.288 170.273 123.165 172.118 125.457 172.134H125.472ZM129.825 159.359C129.794 161.757 131.671 163.694 134.024 163.679C136.27 163.679 138.193 161.773 138.239 159.528C138.285 157.176 136.378 155.24 133.994 155.255C131.64 155.255 129.856 157.023 129.825 159.359Z" fill="#F5C835"/>
<path d="M15.0312 108.524H184.908C185.001 113.843 183.216 118.362 179.878 122.251C175.556 127.293 169.957 129.707 163.374 129.707C121.135 129.737 78.8966 129.753 36.6581 129.707C25.7062 129.691 17.2155 122.482 15.3081 111.952C15.1082 110.876 15.1235 109.754 15.0312 108.524Z" fill="#F5C835"/>
<path d="M150.943 44.5758H83.0938V36.321C83.6167 36.2749 84.0628 36.2134 84.5089 36.2134C103.813 36.2134 123.117 36.198 142.437 36.2134C147.298 36.2134 150.743 39.5645 150.958 44.5604L150.943 44.5758Z" fill="#2D2D2D"/>
<path d="M49.0859 44.5299C49.1936 40.0413 52.4238 36.4135 56.7461 36.2905C62.5758 36.1214 68.4055 36.2444 74.3737 36.2444V44.5299H49.0859Z" fill="#2D2D2D"/>
<path d="M101.985 134.026V142.343H98.0781V134.026H101.985Z" fill="#2D2D2D"/>
</g>
<defs>
<clipPath id="clip0_919_60">
<rect width="170" height="170" fill="white" transform="translate(15 15)"/>
</clipPath>
</defs>
</svg>
