<svg width="200" height="200" viewBox="0 0 200 200" fill="none" xmlns="http://www.w3.org/2000/svg">
<g clip-path="url(#clip0_918_31)">
<path d="M34.6303 138.194C34.6855 138.401 34.6717 138.47 34.7131 138.511C43.4991 147.31 52.2851 156.108 61.0986 164.879C61.3749 165.155 62.1762 165.224 62.5768 165.045C69.3597 161.9 76.5708 161.004 83.9062 161.28C92.112 161.597 100.318 162.204 108.51 162.783C120.003 163.61 131.055 162.135 141.277 156.563C149.442 152.123 157.592 147.627 165.563 142.814C170.84 139.628 175.855 135.974 180.814 132.278C182.361 131.119 183.688 129.354 184.475 127.575C186.188 123.7 183.591 120.031 179.336 119.866C176.974 119.769 174.957 120.652 172.968 121.797C163.712 127.134 154.553 132.664 145.118 137.697C132.989 144.179 120.141 147.489 106.313 144.469C102.321 143.6 98.3975 142.414 94.5019 141.145C92.8718 140.621 92.3606 138.828 93.0237 137.422C93.6592 136.07 95.1926 135.463 96.6984 136.111C102.804 138.745 109.269 139.738 115.817 139.863C119.755 139.931 123.761 139.338 127.643 138.58C130.254 138.07 131.607 135.808 131.635 133.339C131.663 130.857 130.212 128.513 127.808 127.685C126.537 127.244 125.101 127.12 123.733 127.092C115.002 126.913 106.424 125.741 98.1903 122.789C91.8909 120.528 85.6883 117.976 79.4165 115.632C71.4456 112.639 63.7925 113.163 56.4846 117.714C47.823 123.12 41.1783 130.65 34.6441 138.194H34.6303ZM50.1853 185.014C52.589 182.6 55.0756 180.118 57.5622 177.622C60.6428 174.519 60.6428 171.361 57.5622 168.272C52.2574 162.948 46.9251 157.653 41.6065 152.343C38.1253 148.868 34.6717 145.379 31.1628 141.945C28.8558 139.683 25.5956 139.421 23.3301 141.517C20.4152 144.22 17.7214 147.144 15 149.902C26.7008 161.583 38.4016 173.264 50.1853 185.028V185.014ZM159.554 109.288C156.156 102.131 152.909 95.2767 149.759 88.6433C147.204 88.6433 144.897 88.7812 142.617 88.6019C140.297 88.4226 138.667 89.1949 137.202 90.9739C135.973 92.4771 134.481 93.7873 132.975 95.0284C132.243 95.6352 132.146 96.049 132.45 96.8902C133.818 100.572 135.102 104.268 136.429 107.964C137.534 111.053 138.667 114.129 139.868 117.452C142.092 114.777 144.22 112.35 146.182 109.812C147.052 108.695 147.908 108.213 149.373 108.392C152.633 108.778 155.907 108.971 159.54 109.274L159.554 109.288ZM110.333 117.425C112.93 110.198 115.417 103.331 117.848 96.4351C117.959 96.1041 117.669 95.4973 117.379 95.1939C115.859 93.6356 114.187 92.2013 112.737 90.574C111.425 89.1259 109.96 88.4778 107.999 88.5743C105.54 88.6984 103.067 88.6019 100.428 88.6019C97.2647 95.2905 94.0184 102.131 90.6477 109.247C94.419 108.93 97.8311 108.709 101.202 108.309C102.362 108.171 102.998 108.53 103.675 109.371C105.761 111.977 107.929 114.543 110.319 117.411L110.333 117.425Z" fill="#F5C835"/>
<path d="M34.631 138.194C41.1514 130.65 47.7961 123.12 56.4716 117.714C63.7794 113.15 71.4326 112.626 79.4035 115.632C85.6752 117.99 91.8779 120.528 98.1772 122.789C106.424 125.741 114.989 126.927 123.72 127.092C125.088 127.12 126.524 127.244 127.795 127.685C130.199 128.513 131.65 130.857 131.622 133.339C131.594 135.808 130.254 138.07 127.63 138.58C123.748 139.338 119.742 139.931 115.804 139.862C109.256 139.752 102.791 138.745 96.6853 136.111C95.1795 135.463 93.6461 136.084 93.0107 137.422C92.3476 138.828 92.8587 140.607 94.4888 141.145C98.3706 142.414 102.308 143.6 106.3 144.469C120.128 147.489 132.976 144.179 145.105 137.697C154.526 132.664 163.685 127.134 172.955 121.796C174.944 120.652 176.975 119.769 179.323 119.866C183.578 120.031 186.189 123.7 184.462 127.575C183.675 129.354 182.348 131.119 180.801 132.278C175.842 135.96 170.827 139.628 165.55 142.814C157.593 147.613 149.442 152.109 141.264 156.563C131.042 162.135 119.976 163.61 108.497 162.783C100.305 162.19 92.0989 161.583 83.8931 161.28C76.5577 161.004 69.3466 161.9 62.5637 165.045C62.1631 165.224 61.3619 165.169 61.0856 164.879C52.2582 156.122 43.486 147.31 34.7001 138.511C34.6724 138.483 34.6724 138.414 34.6172 138.194H34.631Z" fill="#F5C835"/>
<path d="M94.9044 72.701C95.6503 67.8052 94.0893 64.523 90.6495 61.8752C84.806 57.3655 84.7922 50.1943 90.6495 45.7123C94.2965 42.9127 95.6503 39.396 94.9872 34.9416C94.4899 31.5766 95.4017 28.6667 97.9159 26.2809C100.209 24.1158 102.917 23.1504 106.025 23.6607C110.722 24.433 114.314 22.9573 117.228 19.1373C121.442 13.6071 128.86 13.6347 133.087 19.1924C136.002 23.0125 139.608 24.364 144.305 23.6607C150.687 22.6953 156.282 28.2806 155.301 34.6658C154.583 39.3685 155.964 42.9541 159.791 45.864C165.344 50.0702 165.344 57.4621 159.804 61.7097C156.005 64.6195 154.569 68.1914 155.301 72.8941C156.268 79.1689 151.046 84.4784 144.678 83.9819C142.896 83.844 141.072 83.6923 139.331 83.9819C136.569 84.437 134.676 86.3401 133.018 88.5191C130.394 91.9392 126.899 93.0839 122.713 92.1737C120.337 91.6496 118.499 90.2705 117.118 88.3398C114.548 84.7542 111.095 83.0717 106.757 83.8854C99.9742 85.1541 93.6472 79.4171 94.932 72.7148L94.9044 72.701ZM125.061 74.5627C136.527 74.6041 145.962 65.2401 145.99 53.7937C146.004 42.4024 136.5 32.9143 125.089 32.9557C113.678 32.9833 104.367 42.2921 104.312 53.6834C104.257 65.185 113.54 74.5214 125.061 74.5765V74.5627Z" fill="#2D2D2D"/>
<path d="M50.1853 185C38.4016 173.236 26.7008 161.555 15 149.875C17.7214 147.116 20.4152 144.193 23.3301 141.49C25.5956 139.394 28.842 139.656 31.1628 141.917C34.6717 145.351 38.1253 148.854 41.6065 152.316C46.9251 157.625 52.2436 162.935 57.5622 168.244C60.6428 171.333 60.6428 174.491 57.5622 177.594C55.0756 180.09 52.589 182.587 50.1853 184.986V185Z" fill="#F5C835"/>
<path d="M159.555 109.274C155.922 108.971 152.648 108.778 149.388 108.392C147.923 108.212 147.067 108.695 146.196 109.812C144.221 112.35 142.107 114.777 139.883 117.452C138.668 114.115 137.549 111.04 136.443 107.964C135.117 104.268 133.832 100.558 132.465 96.8901C132.147 96.0489 132.258 95.6351 132.99 95.0283C134.496 93.7871 135.988 92.477 137.217 90.9738C138.668 89.1948 140.311 88.4087 142.632 88.6018C144.912 88.7811 147.232 88.6432 149.774 88.6432C152.924 95.2766 156.17 102.131 159.569 109.288L159.555 109.274Z" fill="#2D2D2D"/>
<path d="M110.32 117.411C107.93 114.529 105.761 111.977 103.675 109.371C102.999 108.53 102.349 108.171 101.203 108.309C97.8181 108.709 94.4198 108.929 90.6484 109.247C94.0192 102.131 97.2655 95.2903 100.429 88.6017C103.068 88.6017 105.54 88.6983 107.999 88.5742C109.961 88.4776 111.425 89.1396 112.738 90.5738C114.202 92.1874 115.86 93.6216 117.379 95.1938C117.669 95.4972 117.973 96.104 117.849 96.4349C115.418 103.33 112.931 110.198 110.334 117.425L110.32 117.411Z" fill="#2D2D2D"/>
<path d="M121.924 55.4763C124.673 52.7319 127.326 50.0703 129.992 47.4224C130.406 47.0087 130.793 46.5674 131.249 46.2364C132.327 45.4503 133.446 45.4503 134.399 46.3881C135.407 47.381 135.518 48.6636 134.551 49.6565C130.724 53.5869 126.828 57.476 122.878 61.296C121.745 62.3855 120.184 62.0683 119.313 60.6479C117.946 58.4413 116.647 56.1796 115.418 53.9041C114.727 52.6078 115.183 51.2011 116.385 50.6357C117.656 50.0289 118.802 50.3323 119.576 51.5045C120.391 52.7457 121.109 54.0696 121.938 55.4901L121.924 55.4763Z" fill="#F5C835"/>
</g>
<defs>
<clipPath id="clip0_918_31">
<rect width="170" height="170" fill="white" transform="translate(15 15)"/>
</clipPath>
</defs>
</svg>
