<svg width="200" height="200" viewBox="0 0 200 200" fill="none" xmlns="http://www.w3.org/2000/svg">
<g clip-path="url(#clip0_920_80)">
<path d="M63.4242 35.2283C61.607 35.2669 60.2345 36.5614 60.4858 38.165C61.1817 42.6473 61.9937 47.1103 62.8829 51.554C63.1922 53.0803 64.5647 53.8338 65.9953 53.5633C67.3871 53.2929 68.489 52.0177 68.257 50.5687C67.5418 46.1443 66.7298 41.7393 65.8793 37.3535C65.6086 35.9625 64.5841 35.2669 63.4049 35.209L63.4242 35.2283ZM38.5061 60.4607C36.8049 60.3448 35.4904 61.3495 35.2777 62.8178C35.0651 64.2862 35.935 65.6193 37.5782 65.9477C41.8504 66.7978 46.1419 67.5513 50.4528 68.2662C52.0187 68.5366 53.3719 67.4933 53.6039 66.025C53.8552 64.4987 53.0626 63.1656 51.4194 62.8371C47.0892 61.9677 42.7203 61.2335 38.5061 60.48V60.4607ZM164.759 136.564C164.682 135.095 163.696 134.187 162.111 133.897C157.993 133.144 153.876 132.41 149.758 131.695C148.173 131.424 146.781 132.333 146.433 133.743C146.046 135.269 146.878 136.776 148.579 137.105C152.909 137.974 157.259 138.747 161.628 139.462C163.348 139.732 164.721 138.438 164.759 136.564ZM131.683 149.257C131.799 149.914 131.915 150.552 132.031 151.209C132.688 154.918 133.307 158.628 134.042 162.298C134.37 163.999 135.627 164.868 137.096 164.675C138.507 164.501 139.744 163.264 139.512 161.835C138.797 157.294 137.985 152.773 137.077 148.272C136.787 146.784 135.298 146.031 133.887 146.378C132.418 146.746 131.741 147.77 131.664 149.257H131.683ZM61.7617 59.0117C61.3944 58.123 61.2977 57.4661 60.9111 57.0797C57.8954 53.9884 54.8991 50.8971 51.748 47.9411C50.6655 46.9365 49.235 47.1103 48.1717 48.173C47.1085 49.2549 46.9345 50.6846 47.9591 51.7472C50.9168 54.8771 53.9711 57.9491 57.1415 60.8664C57.7021 61.3881 59.1326 61.4074 59.9252 61.079C60.7178 60.7505 61.1817 59.7072 61.7617 59.0117ZM152.928 150.049C152.561 149.199 152.445 148.542 152.058 148.137C149.043 145.065 146.027 142.012 142.895 139.056C141.794 138.013 140.402 138.245 139.338 139.307C138.275 140.37 138.063 141.761 139.106 142.862C142.064 145.973 145.08 149.045 148.25 151.962C148.849 152.503 150.357 152.522 151.189 152.194C151.942 151.885 152.387 150.764 152.909 150.069L152.928 150.049Z" fill="#F5C835"/>
<path d="M95.1659 157.836C101.758 157.971 105.721 161.449 105.74 166.781C105.74 171.688 101.777 175.726 96.867 175.804C91.5509 175.881 88.0132 171.94 87.7039 165.255C87.1047 165.815 86.6407 166.24 86.1961 166.665C81.0153 171.824 75.8538 177.002 70.673 182.16C66.8841 185.928 63.0371 185.908 59.2482 182.121C45.4649 168.346 31.701 154.59 17.9177 140.814C13.9741 136.873 13.9741 133.125 17.9564 129.164C23.5045 123.639 29.0719 118.113 35.026 112.201C31.6623 112.317 28.9946 111.718 26.9068 109.631C24.761 107.506 23.8331 104.956 24.2971 101.961C25.0317 97.2277 29.1686 93.9046 33.8081 94.2717C38.9116 94.6774 41.9853 98.4835 42.1206 104.917C42.6812 104.376 43.0872 104.028 43.4738 103.642C48.7319 98.3869 53.99 93.1318 59.2482 87.8959C63.0371 84.1091 66.8454 84.1285 70.673 87.9346C75.8152 93.0545 80.938 98.1937 86.0608 103.314C86.5054 103.758 86.9887 104.202 87.7233 104.879C87.5686 101.188 88.4965 98.213 91.2802 96.0878C93.1167 94.6967 95.2238 94.0591 97.5243 94.291C102.202 94.7353 105.817 98.8313 105.682 103.449C105.527 108.723 101.661 112.046 95.1465 112.24C95.7071 112.858 96.1131 113.302 96.5577 113.747C101.758 118.963 106.958 124.18 112.158 129.415C115.87 133.144 115.87 137.028 112.177 140.718C107.016 145.896 101.835 151.054 96.6737 156.232C96.2291 156.676 95.8038 157.159 95.1659 157.836Z" fill="#F5C835"/>
<path d="M165.321 87.6254C172.377 88.3982 176.069 91.7986 175.798 97.073C175.547 101.807 171.777 105.555 167.099 105.709C161.725 105.883 158.458 102.27 157.743 95.199C157.24 95.6627 156.815 96.0297 156.409 96.4355C151.151 101.691 145.912 106.946 140.634 112.182C137 115.814 133.095 115.814 129.461 112.182C124.203 106.946 118.945 101.691 113.687 96.4355C113.281 96.0297 112.913 95.6047 112.449 95.1024C119.525 94.3875 123.217 91.0258 122.927 85.6933C122.676 80.8053 118.655 76.9799 113.861 77.0378C108.564 77.0958 105.161 81.0178 104.968 87.4708C104.639 87.2583 104.33 87.1231 104.117 86.9105C98.5307 81.3269 92.9246 75.7434 87.3572 70.1211C84.3608 67.0878 84.2642 62.9533 87.1832 59.9972C92.8087 54.2784 98.5307 48.6369 104.214 42.9567C104.369 42.8021 104.562 42.6669 104.987 42.3384C104.794 46.0093 105.78 49.0233 108.66 51.1292C110.516 52.5009 112.623 53.0805 114.924 52.8294C119.583 52.3077 123.178 48.1345 122.927 43.5363C122.656 38.3391 118.848 35.0933 112.391 34.8808C112.913 34.3011 113.261 33.8954 113.648 33.509C118.945 28.2152 124.222 22.9021 129.519 17.6083C132.999 14.15 136.981 14.1307 140.422 17.5504C154.418 31.519 168.394 45.507 182.371 59.4756C185.831 62.9533 185.85 66.9139 182.41 70.3723C177.132 75.6854 171.816 80.9599 166.519 86.2536C166.113 86.6594 165.746 87.0844 165.282 87.5867L165.321 87.6254Z" fill="#F5C835"/>
<path d="M63.4257 35.2285C64.6049 35.2865 65.6295 35.9627 65.9001 37.3731C66.7507 41.7588 67.5626 46.1638 68.2778 50.5882C68.5098 52.0372 67.4079 53.3124 66.0161 53.5829C64.5856 53.8534 63.1937 53.0999 62.9037 51.5736C62.0145 47.1299 61.2026 42.6669 60.5066 38.1845C60.2553 36.5809 61.6085 35.2865 63.445 35.2478L63.4257 35.2285Z" fill="#2D2D2D"/>
<path d="M38.5061 60.4799C42.7203 61.2528 47.0892 61.9869 51.4194 62.837C53.0626 63.1655 53.8552 64.5179 53.6039 66.0249C53.3525 67.4932 52.0187 68.5365 50.4528 68.2661C46.1613 67.5512 41.8697 66.7784 37.5782 65.9476C35.935 65.6192 35.0651 64.2861 35.2777 62.8177C35.4904 61.3494 36.8049 60.364 38.5061 60.4606V60.4799Z" fill="#2D2D2D"/>
<path d="M164.759 136.583C164.721 138.457 163.348 139.752 161.628 139.481C157.259 138.767 152.909 137.994 148.579 137.124C146.878 136.777 146.047 135.289 146.433 133.763C146.781 132.352 148.173 131.444 149.758 131.715C153.876 132.41 157.993 133.164 162.111 133.917C163.696 134.207 164.682 135.115 164.759 136.583Z" fill="#2D2D2D"/>
<path d="M131.664 149.277C131.722 147.808 132.399 146.765 133.887 146.398C135.298 146.05 136.787 146.804 137.077 148.291C137.985 152.793 138.797 157.314 139.513 161.854C139.745 163.303 138.507 164.52 137.096 164.694C135.627 164.887 134.37 163.999 134.042 162.318C133.307 158.628 132.689 154.918 132.031 151.228C131.915 150.59 131.799 149.933 131.683 149.277H131.664Z" fill="#2D2D2D"/>
<path d="M61.7632 59.0119C61.1833 59.7075 60.7 60.7508 59.9267 61.0792C59.1341 61.4077 57.7036 61.3883 57.143 60.8667C53.9727 57.9493 50.9183 54.8774 47.9606 51.7475C46.9554 50.6655 47.11 49.2551 48.1732 48.1732C49.2365 47.0913 50.667 46.9174 51.7495 47.9413C54.8812 50.8974 57.8969 53.9886 60.9126 57.0799C61.2992 57.4663 61.3959 58.1425 61.7632 59.0119Z" fill="#2D2D2D"/>
<path d="M152.931 150.049C152.39 150.745 151.964 151.885 151.21 152.175C150.36 152.503 148.852 152.484 148.272 151.943C145.102 149.045 142.086 145.973 139.128 142.843C138.084 141.742 138.297 140.351 139.36 139.288C140.423 138.225 141.815 137.993 142.917 139.037C146.049 141.993 149.065 145.045 152.08 148.117C152.467 148.504 152.583 149.18 152.95 150.03L152.931 150.049Z" fill="#2D2D2D"/>
</g>
<defs>
<clipPath id="clip0_920_80">
<rect width="170" height="170" fill="white" transform="translate(15 15)"/>
</clipPath>
</defs>
</svg>
