<?xml version="1.0" encoding="UTF-8"?>
<svg id="OBJECTS" xmlns="http://www.w3.org/2000/svg" xmlns:xlink="http://www.w3.org/1999/xlink" viewBox="0 0 285.83 80.75">
  <defs>
    <style>
      .cls-1 {
        fill: url(#linear-gradient);
      }

      .cls-1, .cls-2 {
        stroke-width: 0px;
      }

      .cls-2 {
        fill: url(#linear-gradient-2);
      }

      .cls-3 {
        font-family: Gilmer-Medium-Trial, Gilmer;
        font-size: 60px;
        font-weight: 500;
      }

      .cls-4 {
        letter-spacing: -.08em;
      }

      .cls-5 {
        letter-spacing: -.06em;
      }
    </style>
    <linearGradient id="linear-gradient" x1="0" y1="40.31" x2="79.54" y2="40.31" gradientUnits="userSpaceOnUse">
      <stop offset="0" stop-color="#f2d031"/>
      <stop offset=".13" stop-color="#f0c431"/>
      <stop offset=".36" stop-color="#eba431"/>
      <stop offset=".68" stop-color="#e37032"/>
      <stop offset="1" stop-color="#db3434"/>
    </linearGradient>
    <linearGradient id="linear-gradient-2" x1="35.16" y1="60.36" x2="93.16" y2="60.36" xlink:href="#linear-gradient"/>
  </defs>
  <text class="cls-3" transform="translate(104.33 59.58)"><tspan class="cls-4" x="0" y="0">R</tspan><tspan class="cls-5" x="36.12" y="0">aiden</tspan></text>
  <path class="cls-1" d="m7.17,67.93c6.69-10.73,13.41-21.45,20.07-32.2,6.19-9.98,2.01-22.5-8.9-26.88C12.47,6.5,6.61,4.13.76,1.75c0,0-.02,0-.03-.01C-.19,1.37.09,0,1.08,0h77.55c.81,0,1.22.98.65,1.55L1.57,80.34c-.76.77-2-.2-1.42-1.12,2.34-3.76,4.67-7.52,7.02-11.28Z"/>
  <path class="cls-2" d="m36.1,50.07c2.23-2.47,4.4-4.85,6.86-6.89,5.87-4.86,14.87-4.12,19.91,1.59,10.13,11.48,19.96,23.24,29.91,34.89.1.12.12.32.38,1.08-18.86-8.41-37.37-16.67-55.85-24.91-2.26-1.01-2.87-3.93-1.21-5.76Z"/>
</svg>