<svg width="65" height="65" viewBox="0 0 65 65" fill="none" xmlns="http://www.w3.org/2000/svg">
<g clip-path="url(#clip0_991_20)">
<path d="M46.6533 48.2707C44.5715 46.1479 42.5364 44.0726 40.4546 41.9497C38.5749 42.9003 36.6485 43.8666 34.7532 44.8647C34.5823 44.9597 34.4114 45.2766 34.4114 45.4825C34.3958 48.4133 34.4114 51.3282 34.3803 54.259C34.3803 54.7977 34.691 54.8452 35.0328 54.9878C37.1456 55.8908 38.3574 57.9027 38.202 60.279C38.0622 62.4018 36.4621 64.287 34.3648 64.8257C31.8014 65.491 29.1915 64.0653 28.3215 61.4988C27.4515 58.98 28.5856 56.2393 30.9625 55.0987C31.2422 54.9561 31.5529 54.8452 31.8636 54.7026C31.8636 51.6134 31.8636 48.5242 31.848 45.435C31.848 45.2132 31.615 44.8964 31.4131 44.8013C29.6731 43.8825 27.9176 42.9795 26.1621 42.1082C25.9912 42.0289 25.6184 42.0448 25.4941 42.1715C23.5056 44.1518 21.5481 46.1637 19.5751 48.1598C23.5832 54.0056 21.2685 60.2315 17.4001 63.0514C13.2677 66.0614 7.53519 65.5069 4.00866 61.6573C0.5132 57.8393 0.326775 51.9778 3.62027 47.938C6.91377 43.8983 12.8172 42.726 17.7419 46.338C18.6585 45.4033 19.5906 44.4528 20.5228 43.5023C21.4393 42.5676 22.3559 41.6487 23.3191 40.6665C23.024 40.5081 22.822 40.3655 22.62 40.2863C21.9209 39.9853 21.6568 39.4625 21.6724 38.6863C21.7034 37.0862 21.6724 35.502 21.6724 33.8386C21.4083 33.8228 21.1752 33.7911 20.9577 33.7911C17.9905 33.7911 15.0077 33.7911 12.0404 33.7911C11.5744 33.7911 11.3103 33.8703 11.1083 34.3931C10.1917 36.7535 7.81482 38.1001 5.50005 37.6407C3.07654 37.1496 1.32104 35.0743 1.3055 32.6346C1.27443 30.0365 2.90565 27.9612 5.40684 27.3909C7.65947 26.8839 10.0364 28.1513 11.0306 30.3692C11.1549 30.6385 11.2637 30.9078 11.3724 31.1771H21.6879C21.6879 29.8622 21.7345 28.579 21.6879 27.2958C21.6258 25.9651 21.6413 24.7453 23.2414 24.4443C21.1442 22.3056 19.109 20.2303 17.0739 18.155C12.3822 22.2897 6.15254 21.2758 2.70369 17.4104C-0.776236 13.5766 -0.90052 7.6675 2.40851 3.70699C5.81076 -0.364426 11.6055 -1.18821 15.9243 1.82178C20.1344 4.75256 21.9365 10.6933 18.7983 16.0638C19.9324 17.2203 21.0976 18.3926 22.2627 19.5807C23.4123 20.7531 24.5464 21.9254 25.7426 23.1452C27.7156 22.1472 29.6731 21.1491 31.6306 20.1352C31.7704 20.0718 31.8636 19.7867 31.8636 19.5966C31.8636 16.5074 31.8636 13.434 31.8636 10.6141C30.8382 9.80618 29.8284 9.25171 29.1449 8.41208C27.234 6.06745 27.8399 2.56636 30.3256 0.887097C32.8268 -0.792162 36.1513 0.0633099 37.5961 2.74062C39.0409 5.41793 37.9534 8.74476 35.1882 9.94876C34.5357 10.2339 34.3648 10.5666 34.3803 11.2478C34.4269 13.9568 34.3803 16.6658 34.4114 19.3748C34.4114 19.6599 34.5978 20.0718 34.8153 20.1986C36.6951 21.1966 38.5904 22.1472 40.4391 23.0818C42.5208 20.959 44.556 18.8837 46.6688 16.745C44.7424 14.0202 44.0744 10.9468 44.9754 7.60413C45.6435 5.13277 47.0727 3.1842 49.1544 1.77425C53.4267 -1.12485 58.9728 -0.380268 62.4372 3.54857C65.7618 7.30314 65.8705 13.0221 62.6702 17.0302C59.6408 20.8323 53.7529 22.4798 48.6573 18.7886C46.8086 20.6738 44.991 22.5432 43.1267 24.4284C43.0957 24.4284 43.0801 24.3492 43.1267 24.4284C44.3696 24.8561 44.6958 25.7591 44.6026 27.0107C44.5094 28.3731 44.5871 29.7513 44.5871 31.1771H54.9181C55.0424 30.8603 55.1666 30.5276 55.322 30.2108C56.3629 28.0562 58.7398 26.8839 60.9613 27.4226C63.4315 28.0246 65.0005 30.084 64.9695 32.6504C64.9384 35.0584 63.2295 37.1021 60.8215 37.6249C58.6 38.1001 56.2075 36.8644 55.2754 34.6624C54.9802 33.9653 54.654 33.7752 53.9549 33.7911C51.143 33.8386 48.3311 33.8069 45.5192 33.8069C45.2395 33.8069 44.9444 33.8069 44.5871 33.8069C44.5871 35.3594 44.5404 36.8486 44.6026 38.3219C44.6492 39.3833 44.354 40.1121 43.3442 40.4764C43.2355 40.524 43.1267 40.619 43.049 40.6665C44.8822 42.5359 46.6999 44.3894 48.5796 46.3221C51.3915 44.2785 54.5142 43.6132 57.9164 44.7063C60.3088 45.4825 62.1576 47.0034 63.4781 49.1737C66.1191 53.5145 65.2025 59.2017 61.3497 62.5444C57.5591 65.8396 51.8887 65.792 48.1291 62.4811C44.4317 59.2334 43.0957 53.3243 46.6377 48.2549L46.6533 48.2707ZM10.1917 18.2183C14.3708 18.2183 17.8507 14.6539 17.8351 10.3923C17.8196 6.16251 14.3863 2.64557 10.2228 2.61388C6.05933 2.5822 2.56387 6.13082 2.54833 10.3923C2.5328 14.638 6.02826 18.2025 10.1917 18.2025V18.2183ZM54.7161 18.2183C58.8796 18.2658 62.3906 14.7331 62.4217 10.4557C62.4527 6.22587 59.035 2.69309 54.8715 2.62972C50.708 2.55051 47.197 6.06745 47.1349 10.3448C47.0727 14.5905 50.5371 18.1708 54.7161 18.2183ZM11.4812 62.4018C15.6602 62.4018 19.1401 58.8374 19.109 54.5759C19.0935 50.346 15.6447 46.8291 11.4967 46.8133C7.33323 46.7974 3.82223 50.346 3.82223 54.5917C3.82223 58.8532 7.30216 62.4018 11.4656 62.4018H11.4812ZM62.4372 54.6392C62.4527 50.3777 58.9883 46.8291 54.8093 46.8133C50.6614 46.8133 47.197 50.2985 47.1504 54.5283C47.1038 58.774 50.5526 62.3543 54.7472 62.4018C58.9107 62.4335 62.4217 58.9008 62.4372 54.6392ZM31.7859 42.0448C31.8325 41.8864 31.8636 41.823 31.8636 41.7438C31.8636 38.6546 31.8791 35.5812 31.848 32.492C31.848 32.2386 31.5529 31.89 31.3043 31.7633C29.1449 30.6227 26.9544 29.5296 24.7795 28.4206C24.6241 28.3414 24.4532 28.2939 24.2357 28.2147C24.2357 31.4464 24.2357 34.6149 24.2512 37.7674C24.2512 38.0051 24.5309 38.3219 24.7639 38.4328C26.2087 39.2091 27.6846 39.9378 29.1604 40.6824C30.0304 41.126 30.9004 41.5695 31.8014 42.0131L31.7859 42.0448ZM42.0548 28.1513C39.5225 29.4503 37.1301 30.6543 34.7532 31.9059C34.5512 32.0168 34.4269 32.4287 34.4269 32.698C34.3958 34.8366 34.4269 36.9753 34.4269 39.114C34.4269 40.0804 34.4269 41.0309 34.4269 42.124C36.9592 40.8408 39.3672 39.6051 41.7751 38.3694C41.915 38.2902 42.0703 38.0367 42.0703 37.8783C42.0859 34.6941 42.0703 31.5098 42.0703 28.1671L42.0548 28.1513ZM40.4391 26.0285C37.9845 24.7769 35.6853 23.5888 33.386 22.464C33.1841 22.3689 32.8268 22.464 32.5937 22.5907C30.6363 23.5571 28.7099 24.5551 26.768 25.5532C26.5039 25.6958 26.2398 25.8384 25.8359 26.0443C28.2749 27.2958 30.5741 28.4681 32.8734 29.6088C33.0287 29.688 33.2928 29.6721 33.4482 29.5771C35.7164 28.4365 37.9845 27.2641 40.4236 26.0285H40.4391ZM35.6697 5.21198C35.6697 3.81788 34.458 2.62972 33.1064 2.62972C31.7548 2.62972 30.5741 3.86541 30.5741 5.24367C30.5741 6.62193 31.7859 7.84177 33.1375 7.82592C34.4891 7.82592 35.6853 6.59024 35.6697 5.21198ZM8.91784 32.492C8.9023 31.0979 7.70608 29.9098 6.33896 29.9256C4.98739 29.9415 3.8067 31.1771 3.82223 32.5396C3.83777 33.9178 5.04953 35.1376 6.38557 35.106C7.73715 35.0901 8.91784 33.8544 8.9023 32.4762L8.91784 32.492ZM57.3416 32.397C57.2639 33.7594 58.398 35.0268 59.7651 35.106C61.1012 35.1852 62.344 34.0287 62.4217 32.6346C62.4993 31.2722 61.3653 30.0048 59.9981 29.9256C58.6621 29.8464 57.4193 31.0029 57.3416 32.397ZM33.0909 62.4018C34.4425 62.4335 35.6542 61.2295 35.6697 59.8513C35.7008 58.473 34.5201 57.2373 33.1686 57.2215C31.8325 57.1898 30.6052 58.3938 30.5897 59.7721C30.5586 61.1503 31.7393 62.386 33.0909 62.4018Z" fill="black"/>
<path d="M10.2083 6.52686C12.3522 6.52686 14.03 8.25364 14.0145 10.4557C14.0145 12.6261 12.2901 14.337 10.1462 14.3212C8.04891 14.3212 6.38663 12.5785 6.37109 10.4398C6.37109 8.25364 8.06445 6.52686 10.1928 6.5427L10.2083 6.52686ZM11.4667 10.4557C11.4978 9.79032 10.8919 9.15664 10.2394 9.12496C9.58692 9.09327 8.9655 9.71111 8.93443 10.3765C8.90336 11.0418 9.50924 11.6755 10.1617 11.7072C10.8142 11.7389 11.4356 11.1211 11.4667 10.4557Z" fill="black"/>
<path d="M54.7633 6.52686C56.9072 6.52686 58.6005 8.2378 58.6005 10.424C58.6005 12.6102 56.9072 14.3212 54.7633 14.3212C52.666 14.3212 50.9727 12.5944 50.9727 10.4715C50.9727 8.28533 52.6349 6.5427 54.7788 6.5427L54.7633 6.52686ZM56.0527 10.424C56.0527 9.75864 55.4468 9.12496 54.7944 9.12496C54.1419 9.12496 53.5205 9.7428 53.5205 10.4082C53.5205 11.0735 54.1263 11.7072 54.7788 11.7072C55.4313 11.7072 56.0527 11.0894 56.0527 10.424Z" fill="black"/>
<path d="M15.2851 54.7187C15.254 56.8732 13.5141 58.5367 11.3391 58.505C9.24183 58.4733 7.61062 56.6831 7.65722 54.4652C7.70383 52.3583 9.42826 50.6948 11.5721 50.7265C13.6849 50.7582 15.3317 52.5167 15.3006 54.7346L15.2851 54.7187ZM12.7373 54.6078C12.7373 53.9425 12.1314 53.3088 11.4634 53.3246C10.8109 53.3246 10.205 53.9425 10.205 54.6237C10.205 55.289 10.8109 55.9227 11.4789 55.9069C12.1314 55.9069 12.7528 55.2732 12.7373 54.6078Z" fill="black"/>
<path d="M54.7944 50.7107C56.9382 50.7107 58.6161 52.4375 58.6161 54.6237C58.6161 56.794 56.9072 58.505 54.7478 58.4891C52.6505 58.4891 50.9727 56.7465 50.9727 54.6078C50.9727 52.4216 52.6505 50.6948 54.7944 50.6948V50.7107ZM56.0527 54.592C56.0527 53.9266 55.4313 53.3088 54.7788 53.3088C54.1263 53.3088 53.5205 53.9424 53.5205 54.6078C53.5205 55.2732 54.1419 55.891 54.7944 55.891C55.4468 55.891 56.0527 55.2573 56.0527 54.592Z" fill="black"/>
</g>
<defs>
<clipPath id="clip0_991_20">
<rect width="65" height="65" fill="white"/>
</clipPath>
</defs>
</svg>
