<svg width="65" height="63" viewBox="0 0 65 63" fill="none" xmlns="http://www.w3.org/2000/svg">
<g clip-path="url(#clip0_991_9)">
<path d="M38.5353 29.3705V41.3559C39.0793 41.3559 39.5939 41.3559 40.1085 41.3559C41.0053 41.3559 41.5052 41.8095 41.5052 42.5559C41.5052 43.3022 40.9906 43.7412 40.0938 43.7412C33.6981 43.7412 27.3172 43.7412 20.9216 43.7412C19.0397 43.7412 17.1578 43.7412 15.2758 43.7412C14.3643 43.7412 13.8497 43.3315 13.835 42.5851C13.8203 41.8095 14.3349 41.3559 15.2758 41.3559C15.7757 41.3559 16.2609 41.3559 16.8049 41.3559V29.3705C16.0992 29.3705 15.3935 29.3559 14.673 29.3705C13.9967 29.3998 13.4674 29.1656 13.2763 28.4924C13.0852 27.8193 13.4233 27.3656 13.9967 26.9998C18.2752 24.3071 22.5389 21.5998 26.8026 18.8924C27.4055 18.512 27.9347 18.4973 28.5376 18.8924C32.816 21.6144 37.1091 24.3363 41.4023 27.0437C41.9757 27.4095 42.2697 27.8924 42.0639 28.551C41.8581 29.1802 41.3582 29.3998 40.7113 29.3851C40.0202 29.3559 39.3145 29.3851 38.5353 29.3851V29.3705ZM26.4204 41.3266V29.429H19.2896V41.3266H26.4204ZM36.0506 41.3266V29.429H28.9198V41.3266H36.0506ZM36.7269 26.9559C33.6981 25.0388 30.8753 23.2388 28.0377 21.4681C27.8465 21.351 27.4202 21.4241 27.1996 21.5559C24.5385 23.2095 21.9067 24.8924 19.2749 26.5607C19.1279 26.6485 19.0103 26.7802 18.7898 26.9559H36.7269Z" fill="black"/>
<path d="M52.9155 23.6486C52.9743 19.3023 56.4882 17.2389 59.2817 17.3852C62.2369 17.5462 64.8246 20.0779 64.9863 23.0193C65.148 26.034 62.9133 29.2681 58.8701 29.3998C57.5615 35.195 56.2383 41.0047 54.9151 46.8437C56.8264 47.8681 58.1349 49.3754 58.723 51.4535C59.517 54.2779 58.4731 57.3071 56.0766 59.1071C53.7389 60.8632 50.4896 61.0096 47.9608 59.473C45.476 57.9657 44.1234 55.0535 44.638 52.2437C44.7262 51.7901 44.5498 51.6291 44.2263 51.4242C42.5943 50.4584 40.9476 49.4925 39.3304 48.4974C38.4776 47.9706 38.4335 46.9023 39.2274 46.4047C39.742 46.0828 40.2125 46.2145 40.6977 46.5071C42.3297 47.4876 43.9617 48.4535 45.6378 49.4486C47.3285 47.0779 49.6221 45.9511 52.5774 46.1559C53.0184 44.2535 53.4448 42.395 53.8565 40.5364C54.6798 36.8779 55.5032 33.2047 56.3559 29.5462C56.4588 29.0632 56.3853 28.8437 55.9589 28.5218C55.1797 27.9218 54.4887 27.1901 53.8418 26.4584C53.5771 26.151 53.4007 26.0193 52.989 26.1364C50.5778 26.795 48.1666 27.4242 45.7407 28.0535C44.8291 28.2876 44.1675 28.0096 43.9764 27.3071C43.7705 26.5901 44.1822 25.9901 45.0791 25.7559C47.6814 25.0535 50.2838 24.351 52.9302 23.6486H52.9155ZM51.7246 48.5413C49.1223 48.5413 46.9463 50.7364 46.9463 53.3267C46.9463 55.9462 49.1517 58.1413 51.7834 58.1267C54.3858 58.112 56.5765 55.9315 56.5617 53.3413C56.5617 50.7218 54.3564 48.5267 51.7246 48.5413ZM58.9583 19.7998C57.0028 19.8145 55.3708 21.4681 55.3708 23.3998C55.3708 25.3608 57.0763 27.0145 59.0465 26.9852C60.9578 26.9559 62.5751 25.3169 62.5898 23.4291C62.5898 21.4535 60.9284 19.7852 58.9583 19.8145V19.7998Z" fill="black"/>
<path d="M12.1003 17.2099C11.9827 18.5709 11.8651 19.7416 11.7475 21.1026C12.2326 21.3953 12.909 21.7904 13.5853 22.2001C14.4086 22.6977 14.6439 23.3416 14.2616 23.9855C13.8793 24.644 13.203 24.7465 12.365 24.2636C11.6298 23.8392 10.8947 23.4001 10.1743 22.9757C8.21884 24.5855 6.08697 25.0831 3.71986 24.1318C1.39686 23.2099 -0.0145888 21.0294 0.00011375 18.4977C0.0148163 16.0977 1.49977 13.9465 3.76397 13.0392C6.04286 12.1318 8.64522 12.644 10.3213 14.444C10.8065 14.9709 11.1447 14.9855 11.7769 14.7514C18.2901 12.2197 24.8327 9.71721 31.3607 7.22941C31.8753 7.03916 31.9194 6.73185 31.9194 6.27819C31.8606 3.20502 33.7425 0.81965 36.6977 0.161114C39.844 -0.541325 43.0786 1.50746 43.7843 4.6538C44.5195 7.90258 42.5199 11.166 39.3 11.8538C36.8447 12.3806 34.7864 11.6489 33.1985 9.73185C32.875 9.33672 32.6398 9.30746 32.1987 9.46843C25.5826 12.0294 18.9664 14.5757 12.3356 17.1221C12.2032 17.1806 12.0709 17.2392 12.1003 17.2245V17.2099ZM37.8739 2.42941C35.9479 2.42941 34.2718 4.11233 34.3012 6.02941C34.3306 7.97575 35.9626 9.60014 37.9033 9.60014C39.844 9.60014 41.5054 7.97575 41.5201 6.02941C41.5348 4.06843 39.8587 2.41477 37.8739 2.41477V2.42941ZM6.02816 15.0148C4.08742 15.0148 2.44074 16.6245 2.41133 18.5709C2.38193 20.4879 4.02861 22.1709 5.96935 22.1855C7.93949 22.2001 9.63029 20.5465 9.63029 18.5855C9.63029 16.6538 7.9836 15.0148 6.02816 15.0001V15.0148Z" fill="black"/>
<path d="M17.3772 50.8831C19.1415 53.1367 19.7002 55.5074 18.8034 58.1416C17.6566 61.4928 14.275 63.4684 10.6582 62.9123C7.3648 62.4148 4.76245 59.444 4.64483 56.0343C4.4684 50.6343 9.87894 46.9611 14.8631 49.127C15.3924 49.3611 15.657 49.2587 16.0099 48.8928C16.7009 48.1611 17.4213 47.4733 18.1271 46.7709C18.774 46.1416 19.5385 46.0831 20.0531 46.6099C20.5971 47.166 20.5383 47.8099 19.8326 48.4977C19.0386 49.2879 18.2153 50.0635 17.3772 50.8831ZM11.9961 50.9416C9.39375 50.9709 7.21777 53.1513 7.21777 55.7416C7.21777 58.3611 9.45256 60.5709 12.0696 60.527C14.7161 60.4977 16.8921 58.2733 16.8479 55.6538C16.8038 53.0635 14.5985 50.9123 11.9961 50.9416Z" fill="black"/>
</g>
<defs>
<clipPath id="clip0_991_9">
<rect width="65" height="63" fill="white"/>
</clipPath>
</defs>
</svg>
