<svg width="65" height="44" viewBox="0 0 65 44" fill="none" xmlns="http://www.w3.org/2000/svg">
<g clip-path="url(#clip0_968_33)">
<path d="M32.4982 31.6398C32.3007 31.6398 32.1009 31.6513 31.9035 31.6398C30.2558 31.5256 28.7867 31.7153 27.3787 32.8194C25.8837 33.9898 23.968 34.3784 22.0218 34.3487C21.5587 34.3418 21.3213 34.4973 21.1074 34.879C19.7347 37.3182 18.1504 39.6087 15.9808 41.4603C14.225 42.9576 12.2293 43.952 9.84821 44C5.96509 44.08 2.71191 41.8375 1.24517 38.1137C0.175662 35.4002 -0.0429402 32.5657 0.00642152 29.6991C0.105145 23.7465 1.32744 17.9607 2.77773 12.2115C3.09741 10.9451 3.39828 9.66728 3.82608 8.43286C6.53627 0.635479 16.8975 -3.08834 24.2407 3.11802C24.8706 3.65065 25.4512 4.245 26.0107 4.84849C26.4244 5.29654 26.8921 5.52284 27.5103 5.52056C30.8199 5.51141 34.1295 5.50913 37.4414 5.52284C38.1489 5.52513 38.6237 5.21424 39.0774 4.71819C41.153 2.46195 43.6022 0.784066 46.7355 0.219436C53.1455 -0.932684 59.532 2.84371 61.3207 8.95863C62.8228 14.0906 63.9957 19.3003 64.6233 24.606C65.0487 28.1926 65.225 31.793 64.5199 35.3728C64.0568 37.7251 63.2247 39.9241 61.396 41.6272C58.1639 44.6378 53.3429 44.7749 49.6784 41.9929C47.2315 40.1344 45.4897 37.7205 44.0089 35.1122C43.701 34.5727 43.3954 34.3327 42.709 34.3304C40.3114 34.3167 38.2053 33.4686 36.332 32.0216C36.0522 31.8044 35.6362 31.6741 35.2766 31.6536C34.3528 31.6033 33.4243 31.6376 32.4982 31.6376V31.6398ZM2.8459 30.2911C2.8694 30.7758 2.88115 31.6787 2.96107 32.5748C3.13266 34.4607 3.45704 36.3192 4.39962 38.0085C5.61485 40.1847 7.47885 41.3391 10.0574 41.1814C11.9402 41.0671 13.407 40.0636 14.7045 38.8246C16.5685 37.0461 17.9271 34.9133 19.0883 32.6662C19.5372 31.7976 20.139 31.4341 21.1379 31.537C23.5684 31.7884 25.6299 31.0044 27.4069 29.3836C27.7266 29.091 28.2578 28.8761 28.695 28.867C31.2312 28.819 33.7698 28.8213 36.3061 28.867C36.7245 28.8738 37.2322 29.0796 37.5378 29.3585C39.3454 31.0158 41.4491 31.7976 43.929 31.5347C44.848 31.4364 45.4004 31.7999 45.84 32.5748C46.6039 33.9235 47.3937 35.2677 48.2916 36.5364C49.5397 38.2988 51.0135 39.867 53.0985 40.7379C55.6018 41.7872 58.3802 41.0374 59.9927 38.9069C60.8459 37.7799 61.3231 36.4975 61.6193 35.1465C62.402 31.569 62.1646 27.9755 61.7156 24.3911C61.1162 19.602 60.0326 14.9044 58.7375 10.2525C57.6539 6.36179 55.0965 3.8861 51.0606 3.0083C47.114 2.14878 43.9102 3.60264 41.3269 6.44408C40.2057 7.6785 38.927 8.30256 37.2369 8.28428C34.0825 8.24999 30.9257 8.2477 27.7712 8.28428C26.0577 8.30485 24.739 7.70364 23.6272 6.42122C22.2263 4.80277 20.4774 3.5775 18.3337 3.07688C13.0638 1.84246 7.93015 4.72733 6.38349 9.793C5.79585 11.7178 5.32338 13.6814 4.86738 15.6405C3.77672 20.3267 2.94227 25.0517 2.84355 30.2911H2.8459Z" fill="black"/>
<path d="M21.9276 19.2501C24.6919 19.2913 26.8661 21.44 26.8403 24.11C26.8144 26.7777 24.5508 28.9265 21.8265 28.8671C19.0552 28.8054 16.881 26.6269 16.9468 23.9775C17.0126 21.3143 19.2292 19.209 21.9276 19.2501ZM24.0102 24.0552C24.0031 22.9511 23.023 22.0024 21.89 22.0024C20.7617 22.0024 19.7768 22.9671 19.7792 24.0643C19.7815 25.1661 20.7641 26.1171 21.8994 26.1171C23.023 26.1171 24.0196 25.1456 24.0102 24.0552Z" fill="black"/>
<path d="M42.944 28.8649C40.1656 28.7574 38.0242 26.5515 38.1371 23.9112C38.2523 21.2389 40.497 19.1656 43.1837 19.2547C45.9856 19.3462 48.1434 21.5727 48.0212 24.245C47.8989 26.9127 45.6377 28.97 42.944 28.8672V28.8649ZM43.0968 22.0047C41.9755 21.991 40.9765 22.9465 40.9648 24.0461C40.953 25.1388 41.9285 26.1034 43.0638 26.1194C44.1827 26.1354 45.1887 25.1708 45.1958 24.0758C45.2029 22.9785 44.2297 22.0184 43.0944 22.0047H43.0968Z" fill="black"/>
<path d="M13.4254 11.6995C13.4254 10.9977 13.4183 10.36 13.4254 9.72217C13.4371 8.86723 14.0365 8.24545 14.831 8.24316C15.5926 8.24316 16.1873 8.82608 16.2484 9.65588C16.2719 9.99649 16.2601 10.3417 16.2601 10.6846C16.2601 11.0023 16.2601 11.3201 16.2601 11.6995C16.9888 11.6995 17.6446 11.6927 18.3004 11.6995C19.1725 11.711 19.7578 12.239 19.7789 13.0139C19.8024 13.814 19.2806 14.3627 18.4062 14.4335C18.056 14.461 17.701 14.4495 17.3485 14.4518C17.0217 14.4541 16.695 14.4518 16.2272 14.4518C16.2272 15.2267 16.2601 15.9468 16.2178 16.6646C16.1779 17.323 15.7407 17.7207 15.099 17.8487C14.4761 17.9745 13.9542 17.7367 13.6346 17.2064C13.4982 16.9801 13.4442 16.6829 13.4324 16.4132C13.4042 15.7937 13.423 15.1719 13.423 14.4152C12.6262 14.4152 11.8599 14.4541 11.103 14.4038C10.4331 14.3604 9.93244 13.8095 9.86897 13.1762C9.81021 12.5888 10.2122 11.9693 10.8115 11.775C11.0137 11.7087 11.2441 11.7018 11.4603 11.6972C12.0926 11.6881 12.7273 11.695 13.423 11.695L13.4254 11.6995Z" fill="black"/>
<path d="M28.9266 17.8739C28.6634 17.8739 28.3978 17.8876 28.1369 17.8693C27.4011 17.8213 26.8205 17.2269 26.8088 16.5229C26.797 15.8485 27.3189 15.229 28.0358 15.1627C28.6234 15.1102 29.2228 15.1056 29.8105 15.1559C30.6143 15.2244 31.0962 15.8279 31.0468 16.6097C31.0022 17.3275 30.4381 17.8419 29.6553 17.8693C29.4132 17.8784 29.1711 17.8693 28.9313 17.8693L28.9266 17.8739Z" fill="black"/>
<path d="M36.0561 17.8717C35.7717 17.8717 35.4826 17.89 35.2005 17.8671C34.4812 17.8123 33.9476 17.2568 33.9265 16.5573C33.9053 15.8303 34.359 15.2474 35.0924 15.1697C35.6565 15.108 36.2347 15.1103 36.8012 15.1446C37.6051 15.1948 38.174 15.7938 38.1669 16.5161C38.1575 17.2682 37.5417 17.8488 36.7166 17.874C36.498 17.8808 36.2771 17.874 36.0584 17.874V17.8694L36.0561 17.8717Z" fill="black"/>
<path d="M53.6762 14.438C52.8981 14.438 52.2306 13.7934 52.2423 13.0527C52.2541 12.2984 52.917 11.6857 53.7044 11.6994C54.4613 11.7132 55.0912 12.3212 55.1053 13.0504C55.1194 13.7934 54.4542 14.438 53.6738 14.438H53.6762Z" fill="black"/>
<path d="M51.5511 9.65819C51.5394 10.4194 50.8742 11.0526 50.1055 11.0275C49.3322 11.0023 48.7093 10.344 48.7352 9.58276C48.761 8.85125 49.4074 8.23862 50.1478 8.24319C50.9212 8.24776 51.5605 8.89011 51.5488 9.65591L51.5511 9.65819Z" fill="black"/>
<path d="M48.0212 13.0801C48.0165 13.8596 47.3912 14.454 46.5873 14.4402C45.7929 14.4265 45.1864 13.807 45.2076 13.0275C45.2264 12.2869 45.8422 11.704 46.6085 11.7017C47.41 11.6994 48.0259 12.3006 48.0212 13.0801Z" fill="black"/>
<path d="M50.1533 17.8759C49.3542 17.8805 48.7336 17.2747 48.7383 16.4975C48.743 15.718 49.3683 15.1259 50.1722 15.1374C50.9431 15.1488 51.5449 15.7363 51.5543 16.4838C51.5637 17.2564 50.9455 17.8737 50.1533 17.8759Z" fill="black"/>
</g>
<defs>
<clipPath id="clip0_968_33">
<rect width="65" height="44" fill="white"/>
</clipPath>
</defs>
</svg>
