<svg width="65" height="65" viewBox="0 0 65 65" fill="none" xmlns="http://www.w3.org/2000/svg">
<g clip-path="url(#clip0_967_15)">
<path d="M0 11.8063C0.984228 8.0149 3.94601 6.16581 7.15555 4.6124C11.0425 2.7292 15.2021 1.70572 19.4459 1.03932C21.7371 0.679968 24.0556 0.48437 26.3628 0.227363C27.3288 0.118192 27.9675 0.554876 28.0357 1.33499C28.1107 2.18334 27.5288 2.70873 26.4992 2.78379C21.2825 3.15451 16.1477 3.98012 11.1925 5.71321C8.89215 6.51835 6.67821 7.50771 4.77112 9.06567C3.79599 9.86171 2.95269 10.7692 2.63901 12.0542C2.39352 13.0618 2.70265 13.9397 3.25727 14.7448C4.29606 16.2528 5.78263 17.2217 7.37376 18.0382C8.36708 18.5476 9.40131 18.9729 10.4265 19.4187C11.2038 19.7553 11.4289 20.0578 11.4289 20.9107C11.4334 23.9789 11.4289 27.0471 11.4311 30.1152C11.4311 30.2198 11.4471 30.3245 11.4584 30.4632C13.5974 29.9287 15.7136 29.4011 17.873 28.8597C17.7161 28.58 17.5411 28.2752 17.3752 27.9682C13.8451 21.4361 17.9934 13.4211 25.3649 12.5682C26.1537 12.4773 26.9629 12.5728 27.7607 12.5455C28.0812 12.5341 28.4381 12.4909 28.7131 12.3431C32.2772 10.4258 36.1028 9.78665 40.1011 9.97998C41.9468 10.071 43.7493 10.3871 45.4541 11.1376C48.7045 12.5705 50.6434 15.0246 50.9617 18.584C51.2731 22.0752 50.1343 24.9978 47.1634 27.0448C46.5088 27.4951 46.9747 28.0887 46.9202 28.6096C46.9088 28.721 47.3157 28.9416 47.5566 29.003C49.516 29.492 51.4822 29.9537 53.512 30.4382C53.5211 30.2471 53.5416 30.0265 53.5416 29.8082C53.5416 26.8878 53.5416 23.9675 53.5416 21.0472C53.5416 20.0032 53.7211 19.7371 54.7122 19.3528C56.6284 18.6068 58.49 17.7493 60.0879 16.4347C60.6858 15.9434 61.2449 15.3703 61.6995 14.7448C62.6883 13.3825 62.7224 11.9587 61.6609 10.6509C60.9267 9.74572 60.0311 8.92011 59.0696 8.26508C56.3124 6.38416 53.1688 5.3857 49.9706 4.56464C46.1769 3.5912 42.315 3.04307 38.4122 2.77924C38.244 2.76786 38.0758 2.7474 37.9121 2.70418C37.2279 2.52223 36.8483 1.96045 36.9347 1.28268C37.0143 0.673145 37.5621 0.150033 38.219 0.202344C45.4973 0.761846 52.6483 1.86493 59.2128 5.33338C60.8108 6.17719 62.2655 7.23023 63.4134 8.65628C64.4408 9.93222 64.9818 11.3583 64.9773 13.0299C64.9523 21.7886 64.8977 30.5496 65.0045 39.3083C65.0386 42.1513 63.9067 44.2279 61.8268 45.9405C59.8788 47.5439 57.6353 48.6197 55.2895 49.4908C54.328 49.8479 53.5484 49.2292 53.5461 48.1466C53.5393 43.4273 53.5302 38.7102 53.5598 33.9908C53.5643 33.3835 53.3779 33.1402 52.8119 32.9969C50.8753 32.5011 48.95 31.9598 46.8793 31.398C46.8793 32.0234 46.8634 32.5193 46.8816 33.0105C46.9452 34.5844 46.6247 36.0173 45.5814 37.2682C45.3723 37.5207 45.4291 38.0256 45.4245 38.4145C45.3927 42.4538 43.8584 45.7995 40.8216 48.456C40.6193 48.6334 40.4147 48.8039 40.2102 48.9768C41.5194 49.4612 42.831 49.8433 44.0562 50.4142C49.5774 52.9843 53.2893 57.1919 55.1782 62.9894C55.6078 64.3062 55.0895 65.0022 53.7257 65.0022C39.5578 65.0022 25.3899 65.0022 11.222 65.0022C9.88775 65.0022 9.35358 64.3085 9.78091 63.0348C12.2176 55.7886 17.1547 51.1807 24.508 49.1451C24.583 49.1246 24.6557 49.0996 24.8489 48.9199C24.7216 48.854 24.5784 48.8085 24.4716 48.7198C21.2575 46.0792 19.5936 42.6835 19.5618 38.5168C19.5573 37.8163 19.4459 37.2386 18.989 36.6655C18.2821 35.7762 18.0821 34.6845 18.0912 33.5587C18.0957 32.9036 18.0912 32.2509 18.0912 31.4821C16.866 31.7642 15.7022 32.0121 14.5498 32.3055C13.7133 32.5193 12.8973 32.8149 12.0631 33.0333C11.5789 33.1584 11.413 33.3767 11.4152 33.9066C11.4402 38.5396 11.4311 43.1748 11.4289 47.8078C11.4289 48.0397 11.4425 48.2763 11.413 48.506C11.3175 49.2338 10.5788 49.7865 9.89002 49.5408C6.73731 48.4173 3.72779 47.0003 1.57522 44.3256C0.868303 43.4455 0.513708 42.2878 0 41.262C0 31.4435 0 21.6249 0 11.8086V11.8063ZM37.928 51.2944C37.9894 52.916 37.6871 54.4012 36.6165 55.6385C35.5504 56.8735 34.198 57.5217 32.5659 57.5558C31.2498 57.5831 30.0724 57.1692 29.0518 56.3345C27.4697 55.0358 26.9469 53.289 27.0311 51.3171C21.4575 51.5287 13.3246 57.9106 12.8041 62.423H52.2164C50.2025 56.9781 44.6835 52.1337 37.9258 51.2944H37.928ZM45.7018 24.9228C45.8723 24.8045 46.0178 24.7226 46.1428 24.618C48.2499 22.8576 48.7795 20.565 48.2658 17.9859C47.7544 15.4158 46.0314 13.876 43.6175 13.2096C38.7531 11.8677 34.0479 12.359 29.5973 14.8176C29.1245 15.0792 28.6836 15.2998 28.1107 15.1906C24.6262 14.5288 21.2348 16.1345 19.58 19.2595C18.5958 21.12 18.3776 23.0805 18.9663 25.1252C19.0618 25.1024 19.1163 25.1047 19.1368 25.0797C20.3801 23.4967 22.0485 22.985 24.0011 22.9964C29.5405 23.0305 35.0776 23.0327 40.617 22.9964C42.581 22.9827 44.3607 23.3148 45.7018 24.9228ZM32.4864 25.6028C29.4655 25.6028 26.4423 25.5914 23.4215 25.6074C21.6985 25.6165 20.6711 26.6627 20.6643 28.3776C20.6574 30.0902 20.6597 31.8028 20.6643 33.5154C20.6665 35.3713 21.7099 36.4244 23.5647 36.4289C25.9309 36.4358 28.2971 36.4426 30.6657 36.4176C30.9998 36.413 31.3726 36.2902 31.6544 36.1105C32.225 35.7466 32.7364 35.7284 33.3001 36.1082C33.5342 36.2652 33.8297 36.4153 34.0979 36.4176C36.6324 36.4403 39.1691 36.4608 41.7058 36.4176C43.2583 36.3903 44.2903 35.2667 44.2994 33.7201C44.3085 32.028 44.2289 30.3336 44.3221 28.646C44.4176 26.9311 43.3061 25.5232 41.2353 25.5846C38.3213 25.671 35.4027 25.6074 32.4886 25.6074L32.4864 25.6028ZM8.85806 46.3908C8.8717 46.1838 8.88533 46.0815 8.88533 45.9769C8.88533 38.0028 8.88533 30.0288 8.8967 22.0548C8.8967 21.6704 8.76259 21.4975 8.42391 21.3588C6.38271 20.5173 4.46199 19.471 2.78221 18.0131C2.72993 17.9677 2.6481 17.9563 2.53445 17.9131C2.53445 18.1587 2.53445 18.3475 2.53445 18.5363C2.53445 25.6642 2.54126 32.7922 2.52763 39.9201C2.52763 40.9846 2.84358 41.9125 3.51185 42.7245C4.91887 44.4371 6.81004 45.4401 8.85806 46.3908ZM62.4292 17.7971C60.5562 19.4597 58.5127 20.5309 56.3829 21.468C56.2101 21.543 56.0919 21.9365 56.0919 22.1821C56.076 30.0288 56.0783 37.8755 56.0806 45.7221C56.0806 45.92 56.1033 46.1201 56.1192 46.3885C58.0399 45.4992 59.8129 44.5463 61.2108 43.0179C62.0587 42.0899 62.4474 41.0096 62.4428 39.7291C62.4155 33.0674 62.4315 26.4034 62.4315 19.7417C62.4315 19.1503 62.4315 18.5613 62.4315 17.7948L62.4292 17.7971ZM22.1576 38.9808C22.0758 44.3711 27.2106 49.1701 32.7614 48.9495C39.3669 48.6857 42.9742 42.9565 42.7742 38.9854C39.3419 38.7875 35.9027 39.3106 32.4864 38.6942C29.0677 39.3083 25.6286 38.7943 22.1576 38.9808ZM29.6632 51.3922C29.445 52.7364 29.9155 53.9145 30.9725 54.5695C31.9613 55.1836 33.2478 55.129 34.1889 54.4376C35.1367 53.7394 35.5686 52.468 35.2822 51.3922H29.6655H29.6632Z" fill="black"/>
<path d="M32.8623 0C33.1487 0.32069 33.5419 0.595892 33.6988 0.968893C33.942 1.55114 33.5442 2.21299 32.9441 2.45407C32.3804 2.67924 31.719 2.45862 31.3985 1.93551C31.078 1.41468 31.1757 0.723258 31.6349 0.32069C31.7758 0.197873 31.944 0.106897 32.1008 0C32.3554 0 32.6077 0 32.8623 0Z" fill="black"/>
<path d="M35.4702 31.3571C36.193 31.3685 36.7272 31.9348 36.7044 32.6626C36.6817 33.354 36.1316 33.8908 35.4429 33.8908C34.7542 33.8908 34.1473 33.2858 34.1564 32.6035C34.1654 31.9098 34.7587 31.3457 35.4702 31.3571Z" fill="black"/>
<path d="M40.5233 31.3569C41.2484 31.3569 41.7939 31.9119 41.7826 32.6374C41.7712 33.3311 41.2325 33.877 40.546 33.8906C39.855 33.9043 39.2436 33.3152 39.2345 32.6283C39.2254 31.9392 39.8164 31.3547 40.5233 31.3569Z" fill="black"/>
<path d="M32.4875 45.4061C31.526 45.3674 30.6464 45.0694 29.9349 44.3644C29.4007 43.8344 29.353 43.1339 29.7985 42.6017C30.2463 42.0672 30.9419 41.9922 31.5556 42.4107C32.3784 42.9724 32.5944 42.9724 33.4149 42.4038C34.015 41.9899 34.731 42.0718 35.172 42.6085C35.5948 43.1226 35.5607 43.8208 35.0674 44.328C34.3696 45.0467 33.4922 45.3537 32.4898 45.4061H32.4875Z" fill="black"/>
</g>
<defs>
<clipPath id="clip0_967_15">
<rect width="65" height="65" fill="white"/>
</clipPath>
</defs>
</svg>
