<svg width="65" height="65" viewBox="0 0 65 65" fill="none" xmlns="http://www.w3.org/2000/svg">
<g clip-path="url(#clip0_991_27)">
<path d="M4.51074e-05 34.1502C0.625496 31.0997 3.01785 29.8012 5.48838 28.5654C5.92619 28.3464 6.37965 28.1586 6.81746 27.9866C7.89637 27.5485 8.74072 28.1117 8.74072 29.2694C8.74072 31.5064 8.74072 33.7591 8.74072 35.9962C8.74072 36.9974 8.74072 37.9829 8.74072 39.0937C10.4764 39.5786 12.1963 40.0792 13.9945 40.5798C14.0883 40.3608 14.1665 40.1887 14.2291 40.0323C15.3861 36.7158 18.1069 34.6665 21.6094 34.5413C23.2512 34.4944 24.9086 34.5257 26.5504 34.5257C27.2697 34.5257 27.7232 34.1606 27.9108 33.4306C27.7857 33.3524 27.6606 33.2585 27.5043 33.1803C24.2519 31.6159 22.1254 29.0973 21.1403 25.6243C21.0308 25.2332 20.8588 25.0612 20.4367 25.1081C20.1083 25.1394 19.7643 25.1394 19.4203 25.1081C18.5134 25.0455 18.013 24.5449 18.013 23.6376C17.9974 21.291 17.8879 18.9288 18.0443 16.5979C18.1381 15.1586 17.6378 13.8133 17.669 12.4053C17.7785 8.25972 19.1545 4.77116 22.7039 2.37765C24.1268 1.42338 25.7843 1.45467 27.3948 1.28259C30.6315 0.938425 33.8526 0.562973 37.0737 0.156235C38.9969 -0.0940662 40.8733 -0.140998 42.6245 0.828918C44.4696 1.84577 45.5329 3.50401 46.1427 5.44384C47.1747 8.72904 47.5031 12.0925 46.9245 15.5184C46.862 15.9252 46.8932 16.3632 46.8932 16.7856C46.8932 18.9914 46.8932 21.1815 46.8932 23.3873C46.8932 24.6231 46.4085 25.0925 45.1576 25.1081C43.9693 25.1081 44.0005 25.1237 43.5784 26.297C42.5464 29.2381 40.67 31.4595 37.9024 32.93C37.6366 33.0708 37.3707 33.1959 37.1049 33.3211C37.0737 33.3367 37.0424 33.3837 37.0268 33.415C37.0268 33.4619 37.0111 33.4932 37.0268 33.5401C37.204 34.1867 37.6314 34.51 38.3089 34.51C39.8569 34.51 41.3893 34.51 42.9373 34.51C46.7056 34.557 49.4732 36.5437 50.7085 40.0792C50.7554 40.22 50.8179 40.3452 50.8805 40.5329C51.7874 40.3139 52.663 40.1105 53.5387 39.8602C54.4143 39.6099 55.2587 39.3283 56.1812 39.0467C56.1812 38.7964 56.1812 38.5774 56.1812 38.3428C56.1812 35.3548 56.1812 32.3825 56.1812 29.3945C56.1812 28.0648 56.9943 27.5329 58.2295 28.0335C59.8714 28.7062 61.4663 29.4884 62.8266 30.646C64.187 31.8036 64.9375 33.2272 64.9219 35.0576C64.8906 41.2994 64.8593 47.5413 64.9375 53.7832C64.9688 56.1767 63.9055 57.8036 62.0604 59.0864C59.5899 60.8229 56.7597 61.7772 53.8827 62.5437C50.2081 63.5293 46.4554 64.155 42.6714 64.4836C40.7951 64.64 38.9187 64.7495 37.0424 64.8903C36.8078 64.9059 36.5889 64.9685 36.3544 64.9998H28.4893C28.2861 64.9685 28.0828 64.9059 27.8639 64.8903C24.5803 64.5931 21.2967 64.374 18.0287 63.9673C13.8694 63.4354 9.80399 62.5281 5.95747 60.8229C3.33057 59.6653 0.797495 58.3199 -0.0625 55.2224V34.1502H4.51074e-05ZM38.5278 50.013C39.7475 48.7615 40.8889 47.5726 42.046 46.3993C43.0467 45.3981 43.6096 45.3981 44.6103 46.3993C47.4718 49.2465 50.3489 52.0937 53.2103 54.9408C53.5074 55.2381 53.7419 55.3319 54.1328 55.1598C55.3681 54.5654 56.619 54.0179 57.8543 53.4234C58.511 53.1105 59.0895 53.1418 59.5274 53.6111C60.0903 54.2212 59.9652 55.0816 59.1677 55.6135C57.4634 56.7712 55.5557 57.4595 53.6168 58.007C47.5187 59.7435 41.2642 60.3849 34.9628 60.5413C29.6464 60.6665 24.3457 60.4475 19.0919 59.6183C16.1992 59.1647 13.3691 58.3981 10.5076 57.7411C9.64763 57.5377 9.27236 56.8337 9.49127 56.1141C9.71017 55.3789 10.3825 55.0347 11.2113 55.3006C11.6647 55.4571 11.9462 55.3476 12.2745 55.0503C15.0265 52.6725 17.7785 50.2946 20.5461 47.9324C21.3592 47.2441 21.9221 47.2441 22.7196 47.9324C23.4857 48.5894 24.2519 49.2465 25.0494 49.9192C26.4254 48.2296 27.7544 46.5714 29.1461 44.8349C28.8333 44.8193 28.677 44.8036 28.505 44.8036C23.4232 44.6159 18.3883 44.1153 13.4316 43.0203C10.1949 42.3006 7.0051 41.4089 4.08111 39.7663C3.59639 39.5004 3.1273 39.1875 2.56439 38.8434C2.56439 39.1875 2.56439 39.4065 2.56439 39.6412C2.56439 44.3813 2.59567 49.1213 2.54876 53.8614C2.54876 55.1755 3.06476 56.0672 4.06548 56.8181C5.59783 57.9601 7.31782 58.6953 9.10036 59.2898C15.0734 61.2922 21.281 62.0275 27.5355 62.3403C32.8675 62.6063 38.1838 62.4499 43.5002 61.8554C47.722 61.3861 51.8969 60.6352 55.931 59.2742C57.7135 58.6641 59.4492 57.9288 60.9659 56.7868C61.9353 56.0515 62.4357 55.1598 62.4357 53.8771C62.3888 49.1213 62.4201 44.35 62.4201 39.5943C62.4201 39.3752 62.4201 39.1562 62.4201 38.8434C61.8259 39.2188 61.3412 39.5317 60.8564 39.7976C57.7605 41.5185 54.383 42.4414 50.943 43.161C45.9238 44.2248 40.842 44.6941 35.7289 44.8349C35.338 44.8349 34.9471 44.8819 34.4311 44.9132C35.8228 46.6496 37.1362 48.2609 38.5591 50.013H38.5278ZM44.2663 15.0491C44.2663 15.0491 44.3602 15.0491 44.4071 15.0491C44.4383 14.9553 44.4853 14.8614 44.5009 14.7675C44.9074 11.7014 44.6573 8.68211 43.5627 5.788C42.5933 3.19113 40.7638 2.17429 38.0118 2.6436C34.0715 3.31628 30.0999 3.73867 26.1126 3.92639C24.8774 3.98897 23.8141 4.47392 22.9697 5.36562C20.7807 7.64962 19.9988 10.4029 20.3272 13.516C20.3741 13.9071 20.4679 14.2982 20.5461 14.6893C20.6556 14.3139 20.6556 13.9541 20.6556 13.5943C20.6556 12.155 21.0621 11.7483 22.5006 11.7483C25.581 11.7483 28.677 11.7483 31.7573 11.7483C32.3515 11.7483 32.805 11.6231 33.2428 11.2164C33.9464 10.575 34.6969 9.98054 35.4319 9.38608C36.0886 8.85419 36.5889 8.83855 37.2769 9.3235C37.746 9.65202 38.2307 9.9649 38.6373 10.356C39.7631 11.4354 41.0453 12.0142 42.6402 11.7326C42.7027 11.7326 42.7653 11.7326 42.8278 11.7326C43.7503 11.7952 44.2038 12.2645 44.2194 13.1875C44.2351 13.7976 44.2194 14.4077 44.2194 15.0178L44.2663 15.0491ZM23.6734 25.155C23.7203 25.3271 23.7359 25.4366 23.7672 25.5305C24.7523 28.2212 26.5504 30.1141 29.2399 31.131C30.7566 31.7098 30.9599 32.0852 30.5064 33.6496C30.2406 34.557 29.9904 35.4799 29.709 36.3873C29.6152 36.7002 29.6621 36.8879 29.9592 37.06C30.6784 37.4667 31.3508 37.936 32.0857 38.3115C32.289 38.421 32.6486 38.4053 32.8675 38.3115C33.5711 37.936 34.2435 37.4823 34.9471 37.0913C35.2599 36.9035 35.3224 36.7158 35.2129 36.3716C34.9159 35.3861 34.6344 34.3849 34.3529 33.3993C34.0089 32.1791 34.2435 31.6785 35.4162 31.2561C36.714 30.8024 37.8711 30.1298 38.8562 29.1598C39.9976 28.0491 40.8264 26.7507 41.2798 25.155H23.6734ZM16.6058 41.0648C27.1915 42.7543 37.7617 42.7543 48.41 41.0648C47.7063 39.0467 46.4867 37.6075 44.5165 37.3103C42.4213 36.9974 40.2791 37.0913 38.1526 36.9974C38.09 38.0299 37.9649 38.2489 37.2144 38.7026C35.9478 39.4691 34.6813 40.22 33.4304 41.0022C32.7737 41.4089 32.1951 41.4089 31.5384 41.0022C30.3188 40.2357 29.0992 39.4848 27.8639 38.7651C27.2072 38.3897 26.7694 37.9204 26.8632 37.1069C24.9868 37.1069 23.1417 37.013 21.3123 37.1225C19.045 37.2633 17.2 38.8746 16.6214 41.0648H16.6058ZM22.2505 57.4595C28.677 58.1165 34.9628 58.226 41.358 57.6003C40.5293 56.5678 39.81 55.5666 38.9656 54.6905C38.4809 54.1899 37.8086 53.8771 37.2144 53.5172C37.1206 53.4703 36.9017 53.5642 36.7766 53.658C36.1511 54.0961 35.5569 54.5654 34.9315 55.0034C34.2122 55.5197 33.7431 55.5197 33.0239 55.0034C32.4922 54.628 31.945 54.2681 31.4446 53.8301C31.0693 53.5016 30.8035 53.5642 30.4595 53.8458C29.9592 54.2525 29.4119 54.628 28.8802 55.019C28.333 55.4414 27.7857 55.4727 27.1759 55.1286C26.4879 54.7375 25.7686 54.3777 25.0337 53.9866C24.1112 55.1442 23.2043 56.2393 22.2348 57.4438L22.2505 57.4595ZM27.0977 22.4643H44.3133V17.7712H27.0977V18.8349C27.3948 18.8349 27.645 18.8349 27.8952 18.8349C30.4752 18.8349 33.0551 18.8349 35.6351 18.8349C36.6515 18.8349 37.2613 19.3512 37.2613 20.1334C37.2613 20.9156 36.6358 21.4005 35.6195 21.4162C35.4944 21.4162 35.3693 21.4162 35.2442 21.4162C33.0395 21.4162 30.8504 21.4162 28.6457 21.4162C28.1453 21.4162 27.645 21.4162 27.0977 21.4162V22.4643ZM50.5521 56.1923C48.1285 53.6893 45.7362 51.2333 43.3438 48.7772C42.2649 49.8879 41.2173 50.9517 40.154 52.0467C41.2329 53.3765 42.4056 54.7218 43.4376 56.1611C44.0787 57.0527 44.7354 57.4126 45.7831 57.0527C46.0802 56.9432 46.4085 56.9589 46.7212 56.8963C48.0191 56.6616 49.3325 56.427 50.5521 56.208V56.1923ZM26.7381 51.9059C27.4261 52.4065 28.0776 52.4274 28.6926 51.9685C29.1304 51.64 29.5682 51.3115 30.0217 50.9986C30.6941 50.5136 31.1944 50.498 31.8668 50.983C32.461 51.3897 33.0082 51.8434 33.618 52.2501C33.7744 52.344 34.0715 52.3909 34.1966 52.3127C34.8064 51.9059 35.4006 51.4523 36.0104 50.9986C34.5875 49.2308 33.1802 47.4944 31.7417 45.711C30.0373 47.8073 28.3955 49.8566 26.7381 51.9059ZM21.625 50.3728C19.3578 52.3283 17.1218 54.2525 14.7451 56.3018C16.3087 56.5678 17.669 56.8181 19.0294 57.0215C19.1858 57.0371 19.4047 56.8807 19.5298 56.7399C20.7494 55.2537 21.9534 53.7675 23.1574 52.2657C23.2512 52.1562 23.2981 52.0311 23.3763 51.8903C22.7821 51.3897 22.2348 50.9047 21.625 50.3885V50.3728ZM23.2668 15.0804H41.6707V14.3139C41.4362 14.3139 41.2173 14.2982 41.014 14.3139C40.0915 14.4234 39.3409 14.1105 38.6373 13.516C37.9493 12.9372 37.1987 12.4366 36.4638 11.8891C35.6977 12.5305 34.9471 13.1093 34.2435 13.7351C33.7744 14.1418 33.2428 14.3139 32.6173 14.3139C29.7402 14.2982 26.8632 14.3139 24.0017 14.3139C23.7672 14.3139 23.517 14.3139 23.2512 14.3139C23.2512 14.6424 23.2668 14.8458 23.2825 15.0804H23.2668ZM20.6399 17.7399V22.4487H24.4552V17.7399H20.6399ZM6.19201 31.084C4.95674 31.7098 3.78402 32.3355 2.98657 33.4462C2.56439 34.0251 2.4393 34.6508 2.81457 35.2922C3.58075 36.6063 4.84729 37.279 6.19201 37.9517V31.084ZM58.8081 37.9673C60.0434 37.3259 61.2004 36.7002 62.0135 35.5894C62.4357 35.0106 62.5452 34.3692 62.1855 33.7435C61.4193 32.4294 60.1372 31.7724 58.8081 31.0997V37.9673Z" fill="black"/>
</g>
<defs>
<clipPath id="clip0_991_27">
<rect width="65" height="65" fill="white"/>
</clipPath>
</defs>
</svg>
