<svg width="65" height="65" viewBox="0 0 65 65" fill="none" xmlns="http://www.w3.org/2000/svg">
<g clip-path="url(#clip0_967_22)">
<path d="M59.3156 25.8634C59.2343 25.914 59.153 25.9646 59.0717 26.0152C58.6916 25.7557 58.3159 25.4873 57.9315 25.2366C57.2262 24.777 56.4441 24.9001 56.0355 25.5247C55.6466 26.1185 55.8224 26.8751 56.4902 27.3435C57.7359 28.2189 58.9904 29.0832 60.2493 29.9387C61.0863 30.5083 61.7388 30.3874 62.3057 29.5582C63.1054 28.3882 63.8941 27.2116 64.674 26.0284C64.8102 25.8216 64.9399 25.5819 64.9794 25.3444C65.0783 24.7308 64.8102 24.2689 64.261 23.9918C63.7205 23.7191 63.1427 23.8577 62.7319 24.3723C62.4155 24.7682 62.1365 25.1948 61.8048 25.6567C61.741 25.5071 61.7191 25.4697 61.7081 25.428C58.8564 14.6338 52.1314 7.43117 41.5947 3.82873C40.0304 3.29431 38.3585 3.05238 36.7218 2.75988C36.0187 2.63452 35.4783 3.16455 35.4014 3.83093C35.3179 4.5435 35.7331 5.11532 36.445 5.26487C36.6515 5.30886 36.8602 5.33965 37.0689 5.37703C46.4259 7.07269 53.1618 12.2608 57.3625 20.7479C58.1687 22.3775 58.6719 24.1546 59.3156 25.8634ZM25.8797 3.17554C25.6402 3.25252 25.504 3.3031 25.3634 3.34049C15.266 6.08081 8.31915 12.3532 4.57549 22.1048C3.83291 24.0358 3.49897 26.1317 3.06396 28.1705C2.90139 28.9358 3.44843 29.5142 4.16465 29.5956C4.86769 29.6748 5.4389 29.2063 5.57512 28.4344C5.63443 28.1023 5.663 27.7636 5.7311 27.4315C7.4074 19.0368 11.9749 12.7117 19.3678 8.43404C21.4945 7.20244 23.7771 6.34252 26.2993 5.75091C25.9456 6.26335 25.6468 6.66362 25.3875 7.08588C25.0009 7.71928 25.1459 8.42305 25.7149 8.82332C26.2861 9.22579 27.0199 9.14002 27.4637 8.54181C28.4194 7.24863 29.3509 5.93785 30.2626 4.61388C30.6911 3.99148 30.557 3.25692 29.9353 2.82146C28.672 1.93734 27.3912 1.07522 26.0972 0.232894C25.4534 -0.18717 24.7087 -0.0156255 24.311 0.578183C23.9199 1.16099 24.0737 1.89556 24.7021 2.35961C25.0558 2.62132 25.4271 2.86324 25.8818 3.17554H25.8797Z" fill="white"/>
<path d="M0 37.9333C0.922734 36.5939 1.84547 35.2545 2.7726 33.9174C3.42071 32.9849 4.01389 32.8683 4.96738 33.4951C6.14936 34.2737 7.32695 35.061 8.50014 35.8527C9.28007 36.3806 9.47779 37.0778 9.05597 37.7375C8.62536 38.4083 7.87619 38.4963 7.05891 37.9663C6.64149 37.6936 6.22406 37.4208 5.71436 37.0844C6.35368 40.7044 7.5796 43.9659 9.50855 46.9416C13.8102 53.5702 19.8344 57.6939 27.5919 59.2466C27.9852 59.3258 28.3872 59.3566 28.7805 59.4379C29.5429 59.5985 29.9515 60.1769 29.8504 60.9137C29.756 61.5888 29.1891 62.0485 28.4312 61.9561C25.496 61.5932 22.6751 60.7861 20.0255 59.4885C11.3914 55.2571 5.833 48.4987 3.51298 39.1275C3.41631 38.7382 3.34161 38.3445 3.22737 37.8189C2.9857 38.1488 2.79237 38.4017 2.61002 38.6634C1.74441 39.906 0.977658 39.9544 0.00439397 38.824C0.00439397 38.5271 0.00439397 38.2302 0.00439397 37.9355L0 37.9333Z" fill="black"/>
<path d="M38.3409 65C36.8733 64.0521 35.3947 63.1174 33.9403 62.1476C33.2768 61.7055 33.145 60.9907 33.5822 60.3134C34.4325 59.0004 35.3025 57.6984 36.1857 56.4074C36.6229 55.7696 37.3676 55.6245 37.9608 56.0049C38.5694 56.3964 38.7122 57.153 38.2882 57.8436C38.0048 58.3054 37.6928 58.7497 37.3303 59.3017C39.5844 58.9146 41.6474 58.3252 43.6027 57.4147C52.2654 53.3812 57.5777 46.6756 59.5198 37.3066C59.5923 36.9547 59.6209 36.594 59.6868 36.2421C59.8296 35.479 60.3898 35.0545 61.1324 35.1359C61.8113 35.2107 62.3473 35.7803 62.1914 36.5236C61.7651 38.5426 61.4444 40.6187 60.715 42.5321C56.9955 52.2881 50.0552 58.5715 39.9864 61.3646C39.4064 61.5252 38.8154 61.6395 38.2728 61.7649C38.7847 62.2971 39.3954 62.7458 39.7448 63.344C40.1051 63.962 39.6811 64.5228 38.7232 65H38.3431H38.3409Z" fill="black"/>
<path d="M20.2817 18.3312C20.9539 18.4807 21.9426 18.6897 22.9268 18.9228C24.3681 19.2659 25.0315 18.9008 25.4512 17.5065C25.6401 16.8797 25.8181 16.2507 26.0202 15.6283C26.5738 13.9392 28.037 12.8044 29.81 12.767C31.6928 12.7274 33.5756 12.7274 35.4584 12.767C37.2248 12.8044 38.6814 13.9436 39.2394 15.6415C39.457 16.3035 39.6481 16.9742 39.848 17.6406C40.1973 18.8062 40.9158 19.2439 42.0999 18.9866C42.8205 18.8304 43.5346 18.6369 44.2552 18.472C46.1731 18.0321 47.9373 18.7491 48.9545 20.4051C49.8179 21.8105 50.666 23.2246 51.4986 24.6476C52.4961 26.3476 52.2522 28.2368 50.8681 29.6531C50.3496 30.1832 49.8113 30.6912 49.2951 31.2234C48.5547 31.9888 48.5635 32.7519 49.306 33.4975C49.8289 34.0231 50.3628 34.5356 50.8791 35.0656C52.2522 36.4819 52.4895 38.3667 51.4898 40.0756C50.6572 41.4985 49.8091 42.9149 48.9435 44.318C47.9263 45.9675 46.1292 46.691 44.2354 46.2446C43.517 46.0752 42.8008 45.8905 42.0823 45.7233C40.9465 45.4594 40.1907 45.9037 39.8568 47.0209C39.681 47.6081 39.5163 48.1976 39.3405 48.7826C38.7737 50.6608 37.528 51.8242 35.5705 51.9297C33.5273 52.0397 31.4643 52.0309 29.4233 51.888C27.7426 51.7714 26.6068 50.7245 26.0356 49.1322C25.7851 48.4373 25.6094 47.7181 25.3962 47.0099C25.0645 45.9015 24.3 45.4638 23.1597 45.7233C22.2546 45.9279 21.3582 46.205 20.442 46.3194C18.7152 46.5349 17.3179 45.8795 16.3776 44.4126C15.4439 42.9544 14.5673 41.4567 13.6995 39.9546C12.779 38.3623 13.0228 36.4819 14.2883 35.1514C14.8287 34.5839 15.4044 34.0517 15.9492 33.4887C16.683 32.7321 16.6808 31.958 15.9492 31.2058C15.4022 30.645 14.8287 30.1106 14.2883 29.5454C13.0404 28.2434 12.7834 26.363 13.6797 24.8015C14.5519 23.2796 15.4527 21.7731 16.3842 20.2864C17.1993 18.9866 18.4252 18.3708 20.2839 18.3268L20.2817 18.3312ZM45.0681 43.8012C45.9556 43.8078 46.439 43.5153 46.7685 42.9654C47.6056 41.5711 48.4514 40.1789 49.2753 38.7758C49.7125 38.0302 49.6224 37.4628 49.005 36.8294C48.5173 36.3302 48.0142 35.8463 47.5221 35.3493C45.7535 33.5657 45.7535 31.1619 47.5221 29.3672C48.012 28.8702 48.5217 28.3929 49.0072 27.8893C49.6356 27.2383 49.7037 26.6621 49.2445 25.8836C48.4382 24.5178 47.6231 23.1586 46.7993 21.8039C46.3203 21.0165 45.692 20.7636 44.8022 20.9703C44.0838 21.1397 43.3698 21.3244 42.6492 21.4938C40.2127 22.0656 38.1563 20.8824 37.4225 18.4939C37.2182 17.8276 37.0315 17.1568 36.8184 16.4948C36.5679 15.7184 36.034 15.3182 35.2124 15.3138C33.4987 15.3028 31.7851 15.3028 30.0714 15.3138C29.1882 15.3182 28.6741 15.7162 28.4039 16.5806C28.1908 17.2645 28.0019 17.9573 27.7866 18.6435C27.1187 20.768 25.1436 21.9622 22.9444 21.5488C22.1161 21.3926 21.2989 21.1749 20.4772 20.9857C19.5435 20.7702 18.9283 21.0121 18.4318 21.8303C17.6189 23.1674 16.8148 24.509 16.0173 25.855C15.534 26.6709 15.5999 27.2383 16.2568 27.9113C16.8038 28.4721 17.3838 29 17.9155 29.574C19.438 31.219 19.4204 33.5613 17.8804 35.1909C17.3707 35.7298 16.8302 36.2378 16.3095 36.7634C15.5845 37.4958 15.5142 38.0258 16.0437 38.9143C16.8214 40.2229 17.6057 41.5271 18.3923 42.8313C18.9239 43.711 19.5413 43.9683 20.5321 43.733C21.2308 43.568 21.9272 43.3943 22.6237 43.2294C25.0206 42.6619 27.0879 43.8452 27.8085 46.1984C28.0194 46.8846 28.2062 47.5774 28.4281 48.2591C28.6632 48.9827 29.1729 49.383 29.9352 49.3918C31.7126 49.4116 33.4899 49.4116 35.2651 49.3918C36.0692 49.3852 36.5657 48.9937 36.8118 48.2283C37.0381 47.5246 37.1897 46.7944 37.4621 46.1104C37.6928 45.532 37.9652 44.9272 38.3716 44.4676C39.4943 43.2052 40.9399 42.8401 42.5767 43.214C43.4796 43.4207 44.3804 43.6406 45.0571 43.8012H45.0681Z" fill="black"/>
<path d="M59.3154 25.8637C58.6717 24.1549 58.1686 22.3756 57.3623 20.7482C53.1639 12.2611 46.4257 7.07297 37.0687 5.37732C36.86 5.33993 36.6513 5.30914 36.4448 5.26516C35.733 5.1178 35.3177 4.54379 35.4012 3.83122C35.4781 3.16483 36.0208 2.63481 36.7216 2.76016C38.3584 3.05267 40.0303 3.29239 41.5945 3.82902C52.1313 7.43146 58.8562 14.6341 61.7079 25.4282C61.7189 25.4678 61.7409 25.5052 61.8046 25.657C62.1363 25.1951 62.4132 24.7685 62.7317 24.3726C63.1426 23.858 63.7204 23.7194 64.2608 23.9921C64.8101 24.2692 65.0781 24.7311 64.9792 25.3447C64.9397 25.5844 64.8101 25.8219 64.6739 26.0286C63.8939 27.2119 63.1052 28.3885 62.3055 29.5585C61.7387 30.3876 61.0862 30.5086 60.2491 29.939C58.9903 29.0835 57.7358 28.2191 56.4901 27.3438C55.8222 26.8754 55.6464 26.1188 56.0353 25.525C56.444 24.9004 57.2283 24.7773 57.9313 25.2369C58.318 25.4876 58.6915 25.7559 59.0715 26.0155C59.1528 25.9649 59.2341 25.9143 59.3154 25.8637Z" fill="black"/>
<path d="M25.8819 3.17554C25.4271 2.86105 25.0558 2.62132 24.7021 2.35961C24.0759 1.89556 23.9199 1.16099 24.311 0.578183C24.7087 -0.0156255 25.4512 -0.18717 26.0972 0.232894C27.3912 1.07522 28.672 1.93734 29.9353 2.82146C30.557 3.25692 30.6911 3.99368 30.2626 4.61388C29.3509 5.93785 28.4194 7.24863 27.4637 8.54181C27.0221 9.14002 26.2861 9.22579 25.7149 8.82332C25.1459 8.42305 25.0009 7.71928 25.3875 7.08588C25.6468 6.66142 25.9478 6.26335 26.2993 5.75091C23.7771 6.34252 21.4945 7.20244 19.3678 8.43404C11.9749 12.7139 7.4074 19.0368 5.7311 27.4315C5.66519 27.7636 5.63443 28.1001 5.57512 28.4344C5.4389 29.2063 4.86769 29.6748 4.16465 29.5956C3.44843 29.5142 2.90139 28.9358 3.06396 28.1705C3.49897 26.1317 3.83291 24.0358 4.57549 22.1048C8.32135 12.3532 15.2682 6.08081 25.3656 3.34049C25.5062 3.3031 25.6446 3.25252 25.8819 3.17554Z" fill="black"/>
<path d="M32.6341 42.2087C27.6315 42.1383 23.2376 38.1048 22.8707 33.1806C22.4884 28.0541 26.2211 23.3652 31.2456 22.6812C34.7717 22.2018 37.6784 23.3982 40.0225 26.0307C40.6706 26.7587 40.6619 27.5263 40.0643 28.0409C39.4513 28.5687 38.7703 28.45 38.0848 27.6956C36.1317 25.5403 33.7326 24.6298 30.8919 25.3732C28.0863 26.1077 26.309 27.9837 25.5949 30.8032C24.6283 34.6124 27.4734 38.8526 31.3532 39.4684C34.0445 39.8951 36.2547 39.0351 38.0628 37.0382C38.1485 36.9436 38.2276 36.8446 38.3155 36.7523C38.8647 36.1915 39.5809 36.1409 40.128 36.6203C40.6399 37.0712 40.7168 37.8057 40.2576 38.3907C38.8801 40.1436 37.1115 41.3224 34.9431 41.8524C34.1895 42.0372 33.4052 42.0922 32.6363 42.2065L32.6341 42.2087Z" fill="black"/>
<path d="M31.2967 33.2487C32.5314 32.0149 33.6651 30.8823 34.7987 29.7496C35.1722 29.3758 35.5831 29.0987 36.1455 29.235C37.1869 29.4901 37.49 30.647 36.7057 31.4651C35.8577 32.3492 34.9789 33.2025 34.1133 34.0712C33.5311 34.6541 32.9577 35.2457 32.3645 35.8175C31.6702 36.4861 31.0067 36.4751 30.3125 35.7933C29.6336 35.1269 28.9613 34.4539 28.2957 33.7765C27.6827 33.1519 27.6388 32.4086 28.166 31.8698C28.7065 31.3155 29.4403 31.3287 30.0708 31.9423C30.4795 32.3382 30.8508 32.7715 31.2967 33.2509V33.2487Z" fill="black"/>
<path d="M41.1019 33.6182C40.4011 33.605 39.8672 33.064 39.8672 32.3624C39.8672 31.6652 40.4692 31.0736 41.1678 31.0846C41.8467 31.0934 42.3959 31.663 42.3981 32.358C42.3981 33.0816 41.8357 33.6314 41.1019 33.6182Z" fill="black"/>
</g>
<defs>
<clipPath id="clip0_967_22">
<rect width="65" height="65" fill="white"/>
</clipPath>
</defs>
</svg>
